<svg width="1280" height="165" viewBox="0 0 1280 165" fill="none" xmlns="http://www.w3.org/2000/svg">
<rect width="1280" height="165" fill="white"/>
<path d="M49.3672 76.001H54.7725V82.6074C56.027 80.4453 57.8021 78.6969 60.0977 77.3623C62.3932 76.001 64.8356 75.3203 67.4248 75.3203C70.6279 75.3203 73.2438 76.0544 75.2725 77.5225C77.3278 78.9639 78.8092 80.8991 79.7168 83.3281C80.651 85.7572 81.1182 88.5065 81.1182 91.5762V116H75.7129V92.2168C75.7129 88.9069 75.0456 86.1442 73.7109 83.9287C72.403 81.6865 70.1742 80.5654 67.0244 80.5654C64.8356 80.5654 62.7936 81.1527 60.8984 82.3271C59.0299 83.4749 57.5352 85.0231 56.4141 86.9717C55.3197 88.8936 54.7725 90.9756 54.7725 93.2178V116H49.3672V76.001ZM110.387 116.801C106.757 116.801 103.513 115.88 100.657 114.038C97.8278 112.196 95.6257 109.701 94.0508 106.551C92.4759 103.401 91.6885 99.931 91.6885 96.1406C91.6885 92.3503 92.4759 88.8802 94.0508 85.7305C95.6257 82.5807 97.8278 80.085 100.657 78.2432C103.513 76.4014 106.757 75.4805 110.387 75.4805C113.99 75.4805 117.22 76.4014 120.076 78.2432C122.932 80.085 125.161 82.5941 126.763 85.7705C128.364 88.9202 129.165 92.377 129.165 96.1406C129.165 99.931 128.364 103.401 126.763 106.551C125.161 109.701 122.932 112.196 120.076 114.038C117.22 115.88 113.99 116.801 110.387 116.801ZM110.387 111.996C113.296 111.996 115.685 111.275 117.554 109.834C119.422 108.393 120.784 106.484 121.638 104.108C122.492 101.706 122.919 99.0501 122.919 96.1406C122.919 93.2578 122.492 90.6286 121.638 88.2529C120.784 85.8506 119.422 83.9287 117.554 82.4873C115.685 81.0459 113.296 80.3252 110.387 80.3252C107.504 80.3252 105.128 81.0459 103.26 82.4873C101.391 83.9287 100.03 85.8506 99.1758 88.2529C98.3216 90.6286 97.8945 93.2578 97.8945 96.1406C97.8945 99.0501 98.3216 101.693 99.1758 104.068C100.03 106.444 101.391 108.366 103.26 109.834C105.128 111.275 107.504 111.996 110.387 111.996ZM156.712 133.537C153.242 133.537 150.252 132.896 147.743 131.615C145.261 130.361 143.032 128.412 141.057 125.77L145.341 122.566C146.035 123.607 146.956 124.608 148.104 125.569C149.278 126.557 150.586 127.358 152.027 127.972C153.469 128.586 154.924 128.893 156.392 128.893C158.767 128.893 160.769 128.345 162.397 127.251C164.052 126.183 165.294 124.702 166.121 122.807C166.975 120.911 167.429 118.749 167.482 116.32V110.274C164.573 114.625 160.355 116.801 154.83 116.801C151.493 116.801 148.584 115.893 146.102 114.078C143.646 112.236 141.751 109.741 140.416 106.591C139.108 103.414 138.454 99.8776 138.454 95.9805C138.454 92.0833 139.108 88.5599 140.416 85.4102C141.751 82.2337 143.646 79.738 146.102 77.9229C148.584 76.0811 151.493 75.1602 154.83 75.1602C160.329 75.1602 164.546 77.349 167.482 81.7266V76.001H172.968V116.32C172.968 119.817 172.314 122.86 171.006 125.449C169.725 128.038 167.856 130.027 165.4 131.415C162.971 132.83 160.075 133.537 156.712 133.537ZM156.231 112.076C158.874 112.076 161.063 111.355 162.798 109.914C164.56 108.446 165.841 106.511 166.642 104.108C167.469 101.679 167.883 98.9967 167.883 96.0605C167.883 93.0977 167.469 90.4017 166.642 87.9727C165.841 85.5436 164.56 83.5951 162.798 82.127C161.063 80.6589 158.874 79.9248 156.231 79.9248C153.589 79.9248 151.373 80.6589 149.585 82.127C147.823 83.5951 146.515 85.557 145.661 88.0127C144.834 90.4417 144.42 93.1243 144.42 96.0605C144.42 98.9701 144.834 101.639 145.661 104.068C146.515 106.497 147.823 108.446 149.585 109.914C151.373 111.355 153.589 112.076 156.231 112.076ZM203.638 133.537C200.168 133.537 197.178 132.896 194.669 131.615C192.187 130.361 189.958 128.412 187.982 125.77L192.267 122.566C192.961 123.607 193.882 124.608 195.029 125.569C196.204 126.557 197.512 127.358 198.953 127.972C200.395 128.586 201.849 128.893 203.317 128.893C205.693 128.893 207.695 128.345 209.323 127.251C210.978 126.183 212.219 124.702 213.047 122.807C213.901 120.911 214.355 118.749 214.408 116.32V110.274C211.499 114.625 207.281 116.801 201.756 116.801C198.419 116.801 195.51 115.893 193.027 114.078C190.572 112.236 188.676 109.741 187.342 106.591C186.034 103.414 185.38 99.8776 185.38 95.9805C185.38 92.0833 186.034 88.5599 187.342 85.4102C188.676 82.2337 190.572 79.738 193.027 77.9229C195.51 76.0811 198.419 75.1602 201.756 75.1602C207.255 75.1602 211.472 77.349 214.408 81.7266V76.001H219.894V116.32C219.894 119.817 219.24 122.86 217.932 125.449C216.65 128.038 214.782 130.027 212.326 131.415C209.897 132.83 207.001 133.537 203.638 133.537ZM203.157 112.076C205.8 112.076 207.989 111.355 209.724 109.914C211.485 108.446 212.767 106.511 213.567 104.108C214.395 101.679 214.809 98.9967 214.809 96.0605C214.809 93.0977 214.395 90.4017 213.567 87.9727C212.767 85.5436 211.485 83.5951 209.724 82.127C207.989 80.6589 205.8 79.9248 203.157 79.9248C200.515 79.9248 198.299 80.6589 196.511 82.127C194.749 83.5951 193.441 85.557 192.587 88.0127C191.759 90.4417 191.346 93.1243 191.346 96.0605C191.346 98.9701 191.759 101.639 192.587 104.068C193.441 106.497 194.749 108.446 196.511 109.914C198.299 111.355 200.515 112.076 203.157 112.076ZM249.683 116.48C245.839 116.48 242.582 115.573 239.913 113.758C237.271 111.943 235.282 109.514 233.947 106.471C232.639 103.401 231.985 99.9844 231.985 96.2207C231.985 92.5104 232.639 89.0804 233.947 85.9307C235.255 82.7809 237.19 80.2585 239.753 78.3633C242.315 76.4414 245.412 75.4805 249.042 75.4805C254.994 75.4805 259.265 77.4424 261.854 81.3662C264.444 85.29 265.738 90.3617 265.738 96.5811C265.738 96.7946 265.712 97.0348 265.658 97.3018C265.632 97.5687 265.605 97.7555 265.578 97.8623H237.711C237.658 100.398 238.071 102.72 238.952 104.829C239.86 106.938 241.208 108.619 242.996 109.874C244.811 111.129 247.013 111.756 249.603 111.756C252.138 111.756 254.3 111.449 256.089 110.835C257.904 110.194 259.572 109.073 261.094 107.472L264.857 110.435C262.642 112.597 260.346 114.145 257.971 115.079C255.622 116.013 252.859 116.48 249.683 116.48ZM260.573 93.2979C260.627 90.7354 260.226 88.4932 259.372 86.5713C258.518 84.6227 257.223 83.1146 255.488 82.0469C253.753 80.9525 251.604 80.4053 249.042 80.4053C246.613 80.4053 244.558 80.9792 242.876 82.127C241.194 83.248 239.926 84.7829 239.072 86.7314C238.218 88.68 237.764 90.8688 237.711 93.2979H260.573ZM276.709 76.001H282.114V81.7266C285.024 77.349 289.241 75.1602 294.767 75.1602C298.076 75.1602 300.933 76.0677 303.335 77.8828C305.764 79.6979 307.606 82.1937 308.86 85.3701C310.115 88.5199 310.742 92.0566 310.742 95.9805C310.742 99.9043 310.115 103.454 308.86 106.631C307.606 109.781 305.764 112.263 303.335 114.078C300.933 115.893 298.076 116.801 294.767 116.801C289.268 116.801 285.05 114.625 282.114 110.274V133.537H276.709V76.001ZM293.365 112.076C296.008 112.076 298.21 111.355 299.972 109.914C301.76 108.446 303.068 106.497 303.896 104.068C304.75 101.639 305.177 98.9701 305.177 96.0605C305.177 93.1243 304.75 90.4417 303.896 88.0127C303.068 85.5837 301.76 83.6484 299.972 82.207C298.21 80.7389 296.008 80.0049 293.365 80.0049C290.723 80.0049 288.521 80.7389 286.759 82.207C285.024 83.6484 283.743 85.5837 282.915 88.0127C282.114 90.415 281.714 93.0977 281.714 96.0605C281.714 98.9967 282.114 101.679 282.915 104.108C283.743 106.511 285.024 108.446 286.759 109.914C288.521 111.355 290.723 112.076 293.365 112.076ZM323.435 98.7031C324.049 96.9681 324.889 95.46 325.957 94.1787C327.025 92.8708 328.199 92.2168 329.48 92.2168L319.471 76.001H326.277L335.086 90.8955H340.571V59.4248H346.057V90.8955H351.542L360.311 76.001H367.117L357.107 92.2168C358.415 92.2168 359.59 92.8574 360.631 94.1387C361.672 95.4199 362.526 96.9414 363.193 98.7031L369.68 116H363.354L358.429 101.586C357.708 99.4772 356.84 97.9691 355.826 97.0615C354.812 96.1273 353.464 95.6602 351.782 95.6602H346.057V116H340.571V95.6602H334.806C333.097 95.6602 331.736 96.1273 330.722 97.0615C329.734 97.9691 328.893 99.4772 328.199 101.586L323.274 116H316.948L323.435 98.7031ZM391.101 116.921C387.924 116.921 385.322 116.16 383.293 114.639C381.264 113.117 379.783 111.075 378.849 108.513C377.941 105.95 377.487 103.067 377.487 99.8643V76.001H382.893V100.024C382.893 103.441 383.533 106.351 384.814 108.753C386.122 111.129 388.351 112.316 391.501 112.316C393.69 112.316 395.718 111.689 397.587 110.435C399.482 109.18 400.99 107.525 402.111 105.47C403.232 103.414 403.793 101.266 403.793 99.0234V76.001H409.198V116H403.793V109.033C403.259 110.208 402.378 111.409 401.15 112.637C399.949 113.838 398.481 114.852 396.746 115.68C395.011 116.507 393.129 116.921 391.101 116.921ZM441.79 116.801C437.679 116.801 434.329 116.147 431.74 114.839C429.151 113.504 427.216 111.369 425.935 108.433C424.68 105.47 424.053 101.519 424.053 96.5811V76.7217C424.053 71.0628 425.414 66.6318 428.137 63.4287C430.859 60.1989 435.104 58.584 440.869 58.584C445.807 58.584 449.704 59.7318 452.561 62.0273C455.417 64.2962 456.845 67.7396 456.845 72.3574C456.845 73.5052 456.538 74.8265 455.924 76.3213C455.337 77.8161 454.416 79.2174 453.161 80.5254C451.907 81.8066 450.385 82.7275 448.597 83.2881C450.732 83.4482 452.587 84.2624 454.162 85.7305C455.737 87.1719 456.938 89.0003 457.766 91.2158C458.593 93.4313 459.007 95.7002 459.007 98.0225C459.007 101.866 458.286 105.203 456.845 108.032C455.43 110.862 453.428 113.037 450.839 114.559C448.25 116.053 445.233 116.801 441.79 116.801ZM441.189 112.076C445.514 112.076 448.557 110.875 450.318 108.473C452.107 106.07 453.001 102.627 453.001 98.1426C453.001 95.3932 452.494 93.0977 451.479 91.2559C450.492 89.4141 449.171 88.0661 447.516 87.2119C445.861 86.3311 444.059 85.8906 442.11 85.8906C440.509 85.8906 439.027 86.0508 437.666 86.3711C436.305 86.6914 435.05 87.332 433.902 88.293V83.5283C436.038 82.2471 439.428 81.513 444.072 81.3262C445.594 81.2728 446.862 80.779 447.876 79.8447C448.917 78.8838 449.678 77.7227 450.158 76.3613C450.639 75 450.879 73.6654 450.879 72.3574C450.879 69.3678 450.038 67.1523 448.356 65.7109C446.701 64.2428 444.206 63.5088 440.869 63.5088C437.933 63.5088 435.637 64.0026 433.982 64.9902C432.327 65.9512 431.166 67.3392 430.499 69.1543C429.858 70.9694 429.538 73.2516 429.538 76.001V96.5811C429.538 100.718 429.925 103.895 430.699 106.11C431.5 108.326 432.728 109.874 434.383 110.755C436.038 111.636 438.307 112.076 441.189 112.076ZM480.107 116.801C477.865 116.801 475.797 116.32 473.901 115.359C472.033 114.372 470.551 112.997 469.457 111.235C468.363 109.474 467.815 107.458 467.815 105.189C467.815 101.132 469.07 98.1426 471.579 96.2207C474.115 94.2721 477.585 93.2979 481.989 93.2979H494.682C494.682 88.9469 493.881 85.6637 492.279 83.4482C490.678 81.2061 487.955 80.085 484.111 80.085C481.842 80.085 479.747 80.6589 477.825 81.8066C475.93 82.9277 474.422 84.3158 473.301 85.9707L469.377 82.8877C471.165 80.3786 473.287 78.4967 475.743 77.2422C478.199 75.9609 481.095 75.3203 484.432 75.3203C487.635 75.3203 490.371 75.9876 492.64 77.3223C494.935 78.6302 496.67 80.4987 497.845 82.9277C499.019 85.3301 499.606 88.1595 499.606 91.416V116H495.042L494.842 108.793C493.053 111.516 490.971 113.531 488.596 114.839C486.247 116.147 483.417 116.801 480.107 116.801ZM481.669 111.836C484.151 111.836 486.38 111.155 488.355 109.794C490.357 108.433 491.906 106.671 493 104.509C494.121 102.347 494.682 100.131 494.682 97.8623H482.55C479.934 97.8623 477.758 98.5029 476.023 99.7842C474.315 101.039 473.461 102.84 473.461 105.189C473.461 107.538 474.235 109.233 475.783 110.274C477.358 111.315 479.32 111.836 481.669 111.836ZM528.194 116.48C524.351 116.48 521.094 115.573 518.425 113.758C515.782 111.943 513.794 109.514 512.459 106.471C511.151 103.401 510.497 99.9844 510.497 96.2207C510.497 92.5104 511.151 89.0804 512.459 85.9307C513.767 82.7809 515.702 80.2585 518.265 78.3633C520.827 76.4414 523.924 75.4805 527.554 75.4805C533.506 75.4805 537.777 77.4424 540.366 81.3662C542.955 85.29 544.25 90.3617 544.25 96.5811C544.25 96.7946 544.223 97.0348 544.17 97.3018C544.143 97.5687 544.117 97.7555 544.09 97.8623H516.223C516.169 100.398 516.583 102.72 517.464 104.829C518.371 106.938 519.719 108.619 521.508 109.874C523.323 111.129 525.525 111.756 528.114 111.756C530.65 111.756 532.812 111.449 534.601 110.835C536.416 110.194 538.084 109.073 539.605 107.472L543.369 110.435C541.154 112.597 538.858 114.145 536.482 115.079C534.133 116.013 531.371 116.48 528.194 116.48ZM539.085 93.2979C539.138 90.7354 538.738 88.4932 537.884 86.5713C537.03 84.6227 535.735 83.1146 534 82.0469C532.265 80.9525 530.116 80.4053 527.554 80.4053C525.125 80.4053 523.069 80.9792 521.388 82.127C519.706 83.248 518.438 84.7829 517.584 86.7314C516.73 88.68 516.276 90.8688 516.223 93.2979H539.085ZM555.221 76.001H560.746V83.208C561.574 80.859 562.975 78.9505 564.95 77.4824C566.925 75.9876 569.181 75.2402 571.717 75.2402C574.653 75.2402 577.215 75.9609 579.404 77.4023C581.593 78.8171 583.181 80.8857 584.169 83.6084C585.37 80.8857 586.998 78.8304 589.054 77.4424C591.136 76.0277 593.578 75.3203 596.381 75.3203C599.584 75.3203 602.213 76.0544 604.269 77.5225C606.324 78.9639 607.819 80.9124 608.753 83.3682C609.687 85.7972 610.154 88.5332 610.154 91.5762V116H604.669V92.2168C604.669 88.8268 604.002 85.9173 602.667 83.4883C601.332 81.0592 599.077 79.8447 595.9 79.8447C593.738 79.8447 591.856 80.472 590.255 81.7266C588.68 82.9811 587.479 84.6227 586.651 86.6514C585.824 88.68 585.41 90.8421 585.41 93.1377V116H579.925V92.0566C579.925 88.64 579.271 85.7572 577.963 83.4082C576.655 81.0326 574.413 79.8447 571.236 79.8447C569.074 79.8447 567.192 80.472 565.591 81.7266C564.016 82.9811 562.815 84.6227 561.987 86.6514C561.16 88.68 560.746 90.8421 560.746 93.1377V116H555.221V76.001ZM662.445 116.801C659.509 116.801 656.76 116.12 654.197 114.759C651.635 113.397 649.473 111.542 647.711 109.193C645.949 106.818 644.761 104.188 644.147 101.306L649.232 99.5039C649.953 102.894 651.381 105.83 653.517 108.312C655.652 110.768 658.628 111.996 662.445 111.996C664.874 111.996 667.036 111.302 668.932 109.914C670.854 108.526 672.335 106.724 673.376 104.509C674.444 102.293 674.978 100.024 674.978 97.7021C674.978 95.2998 674.47 93.0576 673.456 90.9756C672.468 88.8669 671.027 87.1852 669.132 85.9307C667.237 84.6494 665.008 84.0088 662.445 84.0088C660.176 84.0088 658.014 84.5693 655.959 85.6904C653.904 86.8115 652.262 88.3597 651.034 90.335L646.109 87.7725L650.954 59.4248H678.421V64.4297H655.398L652.195 83.7686C654.01 82.2204 655.906 81.0859 657.881 80.3652C659.883 79.6178 661.898 79.2441 663.927 79.2441C666.943 79.2441 669.759 80.085 672.375 81.7666C674.991 83.4215 677.073 85.6771 678.621 88.5332C680.196 91.3626 680.983 94.4456 680.983 97.7822C680.983 101.092 680.143 104.215 678.461 107.151C676.779 110.061 674.51 112.396 671.654 114.158C668.798 115.92 665.729 116.801 662.445 116.801ZM708.65 116.801C705.207 116.801 702.057 116.187 699.201 114.959C696.372 113.731 694.116 111.889 692.435 109.434C690.78 106.978 689.952 104.002 689.952 100.505C689.952 97.0081 690.82 93.9785 692.555 91.416C694.316 88.8268 696.839 86.8516 700.122 85.4902C697.826 84.2357 696.038 82.514 694.757 80.3252C693.476 78.1364 692.835 75.7074 692.835 73.0381C692.835 70.0752 693.542 67.4993 694.957 65.3105C696.398 63.1217 698.32 61.4535 700.723 60.3057C703.152 59.1579 705.821 58.584 708.73 58.584C711.64 58.584 714.296 59.1579 716.698 60.3057C719.101 61.4535 721.009 63.1217 722.424 65.3105C723.839 67.4993 724.546 70.0752 724.546 73.0381C724.546 75.734 723.919 78.1764 722.664 80.3652C721.436 82.5273 719.661 84.2357 717.339 85.4902C720.542 86.8249 723.024 88.8001 724.786 91.416C726.548 94.0052 727.429 97.0348 727.429 100.505C727.429 104.028 726.588 107.018 724.906 109.474C723.225 111.929 720.969 113.771 718.14 114.999C715.31 116.2 712.147 116.801 708.65 116.801ZM708.891 83.7686C710.759 83.7686 712.481 83.3682 714.056 82.5674C715.631 81.7399 716.885 80.5788 717.819 79.084C718.754 77.5625 719.221 75.7874 719.221 73.7588C719.221 71.6501 718.74 69.8216 717.779 68.2734C716.845 66.7253 715.59 65.5508 714.016 64.75C712.441 63.9225 710.706 63.5088 708.811 63.5088C707.076 63.5088 705.407 63.8958 703.806 64.6699C702.231 65.444 700.95 66.5651 699.962 68.0332C698.974 69.4746 698.48 71.1963 698.48 73.1982C698.48 75.307 698.921 77.1621 699.802 78.7637C700.683 80.3652 701.91 81.6064 703.485 82.4873C705.06 83.3415 706.862 83.7686 708.891 83.7686ZM708.65 112.076C710.973 112.076 713.121 111.622 715.097 110.715C717.099 109.781 718.7 108.406 719.901 106.591C721.103 104.776 721.703 102.587 721.703 100.024C721.703 97.5153 721.116 95.3665 719.941 93.5781C718.767 91.763 717.179 90.3883 715.177 89.4541C713.201 88.5199 711.026 88.0527 708.65 88.0527C706.248 88.0527 704.046 88.5199 702.044 89.4541C700.069 90.3883 698.48 91.763 697.279 93.5781C696.105 95.3665 695.518 97.5153 695.518 100.024C695.518 102.587 696.132 104.776 697.359 106.591C698.587 108.406 700.202 109.781 702.204 110.715C704.206 111.622 706.355 112.076 708.65 112.076ZM763.384 102.066C763.998 100.331 764.839 98.8232 765.906 97.542C766.974 96.234 768.148 95.5801 769.43 95.5801C766.307 95.0462 763.931 94.0186 762.303 92.4971C760.674 90.9756 759.86 88.6667 759.86 85.5703C759.86 83.8887 760.274 82.3271 761.102 80.8857C761.929 79.4443 763.277 78.2699 765.146 77.3623C767.014 76.4548 769.403 76.001 772.312 76.001H786.807V116H781.321V97.3818H775.436C773.754 97.3818 772.406 97.849 771.392 98.7832C770.377 99.6908 769.51 101.199 768.789 103.308L764.265 116H757.979L763.384 102.066ZM781.321 92.5371V80.2451H772.312C770.311 80.2451 768.762 80.7523 767.668 81.7666C766.6 82.7809 766.066 84.1289 766.066 85.8105C766.066 87.9993 766.734 89.6676 768.068 90.8154C769.403 91.9632 771.632 92.5371 774.755 92.5371H781.321ZM811.23 134.378C808.801 134.378 806.706 134.098 804.944 133.537C803.183 132.977 801.621 132.202 800.26 131.215C798.925 130.227 797.444 128.906 795.815 127.251L799.739 124.048C801.047 125.89 802.582 127.278 804.344 128.212C806.132 129.146 808.241 129.613 810.67 129.613C814.62 129.613 817.557 128.279 819.479 125.609C821.427 122.967 822.401 119.43 822.401 114.999C822.401 112.25 821.894 109.967 820.88 108.152C819.892 106.311 818.571 104.963 816.916 104.108C815.288 103.228 813.499 102.787 811.551 102.787H803.343V98.0225H813.513C814.821 97.7021 815.995 97.0882 817.036 96.1807C818.077 95.2464 818.878 94.1654 819.438 92.9375C820.026 91.6829 820.319 90.4551 820.319 89.2539C820.319 85.8906 819.505 83.4883 817.877 82.0469C816.249 80.5788 813.726 79.8447 810.31 79.8447C808.094 79.8447 806.146 80.4053 804.464 81.5264C802.782 82.6475 801.461 84.1289 800.5 85.9707L796.376 83.6885C797.737 81.126 799.606 79.124 801.981 77.6826C804.357 76.2145 807.133 75.4805 810.31 75.4805C815.194 75.4805 818.998 76.6149 821.721 78.8838C824.47 81.1527 825.845 84.6094 825.845 89.2539C825.845 90.4551 825.578 91.8031 825.044 93.2979C824.51 94.766 823.656 96.1406 822.481 97.4219C821.307 98.7031 819.826 99.624 818.037 100.185C820.173 100.345 822.001 101.159 823.522 102.627C825.044 104.068 826.192 105.883 826.966 108.072C827.74 110.261 828.127 112.543 828.127 114.919C828.127 118.789 827.433 122.193 826.045 125.129C824.657 128.065 822.682 130.334 820.119 131.936C817.583 133.564 814.62 134.378 811.23 134.378ZM854.873 116.801C851.964 116.801 849.268 116.24 846.785 115.119C844.303 113.971 842.301 112.236 840.779 109.914C839.285 107.592 838.537 104.722 838.537 101.306V76.001H844.022V89.6143C845.01 87.9593 846.425 86.5579 848.267 85.4102C850.108 84.2624 852.311 83.6885 854.873 83.6885C857.863 83.6885 860.652 84.3024 863.241 85.5303C865.857 86.7314 867.952 88.5866 869.527 91.0957C871.129 93.5781 871.93 96.6344 871.93 100.265C871.93 103.895 871.129 106.951 869.527 109.434C867.952 111.916 865.857 113.771 863.241 114.999C860.652 116.2 857.863 116.801 854.873 116.801ZM878.136 76.001H883.661V116H878.136V76.001ZM854.873 111.996C857.035 111.996 858.944 111.489 860.599 110.475C862.254 109.434 863.521 108.032 864.402 106.271C865.31 104.482 865.764 102.48 865.764 100.265C865.764 98.0492 865.31 96.0605 864.402 94.2988C863.521 92.5104 862.254 91.109 860.599 90.0947C858.944 89.0537 857.035 88.5332 854.873 88.5332C852.871 88.5332 851.083 88.9736 849.508 89.8545C847.933 90.7354 846.678 91.9499 845.744 93.498C844.81 95.0462 844.236 96.8079 844.022 98.7832V101.746C844.236 103.721 844.81 105.483 845.744 107.031C846.678 108.579 847.933 109.794 849.508 110.675C851.083 111.556 852.871 111.996 854.873 111.996ZM895.553 59.4248H901.078V90.8955H906.563L915.332 76.001H922.139L912.129 92.2168C913.437 92.2168 914.611 92.8574 915.652 94.1387C916.693 95.4199 917.548 96.9414 918.215 98.7031L924.661 116H918.375L913.45 101.586C912.729 99.4772 911.862 97.9691 910.848 97.0615C909.833 96.1273 908.485 95.6602 906.804 95.6602H901.078V116H895.553V59.4248ZM951.047 116.801C947.417 116.801 944.174 115.88 941.317 114.038C938.488 112.196 936.286 109.701 934.711 106.551C933.136 103.401 932.349 99.931 932.349 96.1406C932.349 92.3503 933.136 88.8802 934.711 85.7305C936.286 82.5807 938.488 80.085 941.317 78.2432C944.174 76.4014 947.417 75.4805 951.047 75.4805C954.65 75.4805 957.88 76.4014 960.736 78.2432C963.592 80.085 965.821 82.5941 967.423 85.7705C969.024 88.9202 969.825 92.377 969.825 96.1406C969.825 99.931 969.024 103.401 967.423 106.551C965.821 109.701 963.592 112.196 960.736 114.038C957.88 115.88 954.65 116.801 951.047 116.801ZM951.047 111.996C953.956 111.996 956.345 111.275 958.214 109.834C960.082 108.393 961.444 106.484 962.298 104.108C963.152 101.706 963.579 99.0501 963.579 96.1406C963.579 93.2578 963.152 90.6286 962.298 88.2529C961.444 85.8506 960.082 83.9287 958.214 82.4873C956.345 81.0459 953.956 80.3252 951.047 80.3252C948.164 80.3252 945.788 81.0459 943.92 82.4873C942.051 83.9287 940.69 85.8506 939.836 88.2529C938.982 90.6286 938.555 93.2578 938.555 96.1406C938.555 99.0501 938.982 101.693 939.836 104.068C940.69 106.444 942.051 108.366 943.92 109.834C945.788 111.275 948.164 111.996 951.047 111.996ZM999.294 116.801C995.183 116.801 991.833 116.147 989.244 114.839C986.655 113.504 984.72 111.369 983.438 108.433C982.184 105.47 981.557 101.519 981.557 96.5811V76.7217C981.557 71.0628 982.918 66.6318 985.641 63.4287C988.363 60.1989 992.607 58.584 998.373 58.584C1003.31 58.584 1007.21 59.7318 1010.06 62.0273C1012.92 64.2962 1014.35 67.7396 1014.35 72.3574C1014.35 73.5052 1014.04 74.8265 1013.43 76.3213C1012.84 77.8161 1011.92 79.2174 1010.67 80.5254C1009.41 81.8066 1007.89 82.7275 1006.1 83.2881C1008.24 83.4482 1010.09 84.2624 1011.67 85.7305C1013.24 87.1719 1014.44 89.0003 1015.27 91.2158C1016.1 93.4313 1016.51 95.7002 1016.51 98.0225C1016.51 101.866 1015.79 105.203 1014.35 108.032C1012.93 110.862 1010.93 113.037 1008.34 114.559C1005.75 116.053 1002.74 116.801 999.294 116.801ZM998.693 112.076C1003.02 112.076 1006.06 110.875 1007.82 108.473C1009.61 106.07 1010.5 102.627 1010.5 98.1426C1010.5 95.3932 1010 93.0977 1008.98 91.2559C1008 89.4141 1006.67 88.0661 1005.02 87.2119C1003.36 86.3311 1001.56 85.8906 999.614 85.8906C998.013 85.8906 996.531 86.0508 995.17 86.3711C993.809 86.6914 992.554 87.332 991.406 88.293V83.5283C993.542 82.2471 996.932 81.513 1001.58 81.3262C1003.1 81.2728 1004.37 80.779 1005.38 79.8447C1006.42 78.8838 1007.18 77.7227 1007.66 76.3613C1008.14 75 1008.38 73.6654 1008.38 72.3574C1008.38 69.3678 1007.54 67.1523 1005.86 65.7109C1004.21 64.2428 1001.71 63.5088 998.373 63.5088C995.437 63.5088 993.141 64.0026 991.486 64.9902C989.831 65.9512 988.67 67.3392 988.003 69.1543C987.362 70.9694 987.042 73.2516 987.042 76.001V96.5811C987.042 100.718 987.429 103.895 988.203 106.11C989.004 108.326 990.232 109.874 991.887 110.755C993.542 111.636 995.811 112.076 998.693 112.076Z" fill="#FF0000"/>
</svg>
