<svg width="1280" height="286" viewBox="0 0 1280 286" fill="none" xmlns="http://www.w3.org/2000/svg">
<rect width="1280" height="286" fill="white"/>
<path d="M65.0225 133.537C61.5524 133.537 58.5628 132.896 56.0537 131.615C53.5713 130.361 51.3424 128.412 49.3672 125.77L53.6514 122.566C54.3454 123.607 55.2663 124.608 56.4141 125.569C57.5885 126.557 58.8965 127.358 60.3379 127.972C61.7793 128.586 63.234 128.893 64.7021 128.893C67.0778 128.893 69.0798 128.345 70.708 127.251C72.363 126.183 73.6042 124.702 74.4316 122.807C75.2858 120.911 75.7396 118.749 75.793 116.32V110.274C72.8835 114.625 68.666 116.801 63.1406 116.801C59.804 116.801 56.8945 115.893 54.4121 114.078C51.9564 112.236 50.0612 109.741 48.7266 106.591C47.4186 103.414 46.7646 99.8776 46.7646 95.9805C46.7646 92.0833 47.4186 88.5599 48.7266 85.4102C50.0612 82.2337 51.9564 79.738 54.4121 77.9229C56.8945 76.0811 59.804 75.1602 63.1406 75.1602C68.6393 75.1602 72.8568 77.349 75.793 81.7266V76.001H81.2783V116.32C81.2783 119.817 80.6243 122.86 79.3164 125.449C78.0352 128.038 76.1667 130.027 73.7109 131.415C71.2819 132.83 68.3857 133.537 65.0225 133.537ZM64.542 112.076C67.1846 112.076 69.3734 111.355 71.1084 109.914C72.8701 108.446 74.1514 106.511 74.9521 104.108C75.7796 101.679 76.1934 98.9967 76.1934 96.0605C76.1934 93.0977 75.7796 90.4017 74.9521 87.9727C74.1514 85.5436 72.8701 83.5951 71.1084 82.127C69.3734 80.6589 67.1846 79.9248 64.542 79.9248C61.8994 79.9248 59.6839 80.6589 57.8955 82.127C56.1338 83.5951 54.8258 85.557 53.9717 88.0127C53.1442 90.4417 52.7305 93.1243 52.7305 96.0605C52.7305 98.9701 53.1442 101.639 53.9717 104.068C54.8258 106.497 56.1338 108.446 57.8955 109.914C59.6839 111.355 61.8994 112.076 64.542 112.076ZM105.262 76.001H110.227L124.921 116H118.955L107.704 83.1279L96.4531 116H90.5674L105.262 76.001ZM134.69 102.066C135.304 100.331 136.145 98.8232 137.213 97.542C138.281 96.234 139.455 95.5801 140.736 95.5801C137.613 95.0462 135.238 94.0186 133.609 92.4971C131.981 90.9756 131.167 88.6667 131.167 85.5703C131.167 83.8887 131.581 82.3271 132.408 80.8857C133.236 79.4443 134.584 78.2699 136.452 77.3623C138.321 76.4548 140.71 76.001 143.619 76.001H158.113V116H152.628V97.3818H146.742C145.061 97.3818 143.713 97.849 142.698 98.7832C141.684 99.6908 140.816 101.199 140.096 103.308L135.571 116H129.285L134.69 102.066ZM152.628 92.5371V80.2451H143.619C141.617 80.2451 140.069 80.7523 138.975 81.7666C137.907 82.7809 137.373 84.1289 137.373 85.8105C137.373 87.9993 138.04 89.6676 139.375 90.8154C140.71 91.9632 142.938 92.5371 146.062 92.5371H152.628ZM195.59 76.001H201.115V91.8164H221.855V76.001H227.341V116H221.855V96.2207H201.115V116H195.59V76.001ZM251.404 116.801C249.162 116.801 247.093 116.32 245.198 115.359C243.33 114.372 241.848 112.997 240.754 111.235C239.66 109.474 239.112 107.458 239.112 105.189C239.112 101.132 240.367 98.1426 242.876 96.2207C245.412 94.2721 248.882 93.2979 253.286 93.2979H265.979C265.979 88.9469 265.178 85.6637 263.576 83.4482C261.975 81.2061 259.252 80.085 255.408 80.085C253.139 80.085 251.044 80.6589 249.122 81.8066C247.227 82.9277 245.719 84.3158 244.598 85.9707L240.674 82.8877C242.462 80.3786 244.584 78.4967 247.04 77.2422C249.496 75.9609 252.392 75.3203 255.729 75.3203C258.932 75.3203 261.668 75.9876 263.937 77.3223C266.232 78.6302 267.967 80.4987 269.142 82.9277C270.316 85.3301 270.903 88.1595 270.903 91.416V116H266.339L266.139 108.793C264.35 111.516 262.268 113.531 259.893 114.839C257.544 116.147 254.714 116.801 251.404 116.801ZM252.966 111.836C255.448 111.836 257.677 111.155 259.652 109.794C261.654 108.433 263.202 106.671 264.297 104.509C265.418 102.347 265.979 100.131 265.979 97.8623H253.847C251.231 97.8623 249.055 98.5029 247.32 99.7842C245.612 101.039 244.758 102.84 244.758 105.189C244.758 107.538 245.532 109.233 247.08 110.274C248.655 111.315 250.617 111.836 252.966 111.836ZM284.717 76.001H290.122V82.6074C291.377 80.4453 293.152 78.6969 295.447 77.3623C297.743 76.001 300.185 75.3203 302.774 75.3203C305.978 75.3203 308.593 76.0544 310.622 77.5225C312.677 78.9639 314.159 80.8991 315.066 83.3281C316.001 85.7572 316.468 88.5065 316.468 91.5762V116H311.062V92.2168C311.062 88.9069 310.395 86.1442 309.061 83.9287C307.753 81.6865 305.524 80.5654 302.374 80.5654C300.185 80.5654 298.143 81.1527 296.248 82.3271C294.38 83.4749 292.885 85.0231 291.764 86.9717C290.669 88.8936 290.122 90.9756 290.122 93.2178V116H284.717V76.001ZM340.812 116.921C337.635 116.921 335.033 116.16 333.004 114.639C330.975 113.117 329.494 111.075 328.56 108.513C327.652 105.95 327.198 103.067 327.198 99.8643V76.001H332.604V100.024C332.604 103.441 333.244 106.351 334.525 108.753C335.833 111.129 338.062 112.316 341.212 112.316C343.401 112.316 345.429 111.689 347.298 110.435C349.193 109.18 350.701 107.525 351.822 105.47C352.943 103.414 353.504 101.266 353.504 99.0234V76.001H358.909V116H353.504V109.033C352.97 110.208 352.089 111.409 350.861 112.637C349.66 113.838 348.192 114.852 346.457 115.68C344.722 116.507 342.84 116.921 340.812 116.921ZM388.938 116.801C385.308 116.801 382.199 115.853 379.609 113.958C377.02 112.063 375.072 109.54 373.764 106.391C372.456 103.241 371.802 99.7975 371.802 96.0605C371.802 92.3503 372.456 88.9202 373.764 85.7705C375.072 82.6208 377.007 80.0983 379.569 78.2031C382.132 76.2812 385.228 75.3203 388.858 75.3203C392.355 75.3203 395.425 76.2412 398.067 78.083C400.71 79.9248 402.752 82.4473 404.193 85.6504L399.028 87.8926C398.414 85.4368 397.187 83.5016 395.345 82.0869C393.503 80.6455 391.341 79.9248 388.858 79.9248C386.189 79.9248 383.987 80.7256 382.252 82.3271C380.544 83.902 379.302 85.9173 378.528 88.373C377.754 90.8021 377.367 93.3646 377.367 96.0605C377.367 98.7832 377.741 101.372 378.488 103.828C379.262 106.284 380.504 108.299 382.212 109.874C383.947 111.449 386.162 112.236 388.858 112.236C391.314 112.236 393.463 111.516 395.305 110.074C397.173 108.633 398.414 106.698 399.028 104.269L403.713 106.311C402.538 109.62 400.67 112.196 398.107 114.038C395.545 115.88 392.489 116.801 388.938 116.801ZM425.014 116.801C422.771 116.801 420.703 116.32 418.808 115.359C416.939 114.372 415.458 112.997 414.363 111.235C413.269 109.474 412.722 107.458 412.722 105.189C412.722 101.132 413.976 98.1426 416.485 96.2207C419.021 94.2721 422.491 93.2979 426.896 93.2979H439.588C439.588 88.9469 438.787 85.6637 437.186 83.4482C435.584 81.2061 432.861 80.085 429.018 80.085C426.749 80.085 424.653 80.6589 422.731 81.8066C420.836 82.9277 419.328 84.3158 418.207 85.9707L414.283 82.8877C416.072 80.3786 418.194 78.4967 420.649 77.2422C423.105 75.9609 426.001 75.3203 429.338 75.3203C432.541 75.3203 435.277 75.9876 437.546 77.3223C439.841 78.6302 441.576 80.4987 442.751 82.9277C443.925 85.3301 444.513 88.1595 444.513 91.416V116H439.948L439.748 108.793C437.96 111.516 435.878 113.531 433.502 114.839C431.153 116.147 428.324 116.801 425.014 116.801ZM426.575 111.836C429.058 111.836 431.286 111.155 433.262 109.794C435.264 108.433 436.812 106.671 437.906 104.509C439.027 102.347 439.588 100.131 439.588 97.8623H427.456C424.84 97.8623 422.665 98.5029 420.93 99.7842C419.221 101.039 418.367 102.84 418.367 105.189C418.367 107.538 419.141 109.233 420.689 110.274C422.264 111.315 424.226 111.836 426.575 111.836ZM458.326 76.001H463.852V91.8164H484.592V76.001H490.077V116H484.592V96.2207H463.852V116H458.326V76.001ZM515.942 116.921C512.766 116.921 510.163 116.16 508.135 114.639C506.106 113.117 504.625 111.075 503.69 108.513C502.783 105.95 502.329 103.067 502.329 99.8643V76.001H507.734V100.024C507.734 103.441 508.375 106.351 509.656 108.753C510.964 111.129 513.193 112.316 516.343 112.316C518.532 112.316 520.56 111.689 522.429 110.435C524.324 109.18 525.832 107.525 526.953 105.47C528.074 103.414 528.635 101.266 528.635 99.0234V76.001H534.04V116H528.635V109.033C528.101 110.208 527.22 111.409 525.992 112.637C524.791 113.838 523.323 114.852 521.588 115.68C519.853 116.507 517.971 116.921 515.942 116.921ZM549.815 102.066C550.429 100.331 551.27 98.8232 552.338 97.542C553.406 96.234 554.58 95.5801 555.861 95.5801C552.738 95.0462 550.363 94.0186 548.734 92.4971C547.106 90.9756 546.292 88.6667 546.292 85.5703C546.292 83.8887 546.706 82.3271 547.533 80.8857C548.361 79.4443 549.709 78.2699 551.577 77.3623C553.446 76.4548 555.835 76.001 558.744 76.001H573.238V116H567.753V97.3818H561.867C560.186 97.3818 558.838 97.849 557.823 98.7832C556.809 99.6908 555.941 101.199 555.221 103.308L550.696 116H544.41L549.815 102.066ZM567.753 92.5371V80.2451H558.744C556.742 80.2451 555.194 80.7523 554.1 81.7666C553.032 82.7809 552.498 84.1289 552.498 85.8105C552.498 87.9993 553.165 89.6676 554.5 90.8154C555.835 91.9632 558.063 92.5371 561.187 92.5371H567.753ZM620.404 134.378C617.975 134.378 615.88 134.098 614.118 133.537C612.356 132.977 610.795 132.202 609.434 131.215C608.099 130.227 606.618 128.906 604.989 127.251L608.913 124.048C610.221 125.89 611.756 127.278 613.518 128.212C615.306 129.146 617.415 129.613 619.844 129.613C623.794 129.613 626.73 128.279 628.652 125.609C630.601 122.967 631.575 119.43 631.575 114.999C631.575 112.25 631.068 109.967 630.054 108.152C629.066 106.311 627.745 104.963 626.09 104.108C624.462 103.228 622.673 102.787 620.725 102.787H612.517V98.0225H622.687C623.994 97.7021 625.169 97.0882 626.21 96.1807C627.251 95.2464 628.052 94.1654 628.612 92.9375C629.2 91.6829 629.493 90.4551 629.493 89.2539C629.493 85.8906 628.679 83.4883 627.051 82.0469C625.423 80.5788 622.9 79.8447 619.483 79.8447C617.268 79.8447 615.319 80.4053 613.638 81.5264C611.956 82.6475 610.635 84.1289 609.674 85.9707L605.55 83.6885C606.911 81.126 608.78 79.124 611.155 77.6826C613.531 76.2145 616.307 75.4805 619.483 75.4805C624.368 75.4805 628.172 76.6149 630.895 78.8838C633.644 81.1527 635.019 84.6094 635.019 89.2539C635.019 90.4551 634.752 91.8031 634.218 93.2979C633.684 94.766 632.83 96.1406 631.655 97.4219C630.481 98.7031 628.999 99.624 627.211 100.185C629.346 100.345 631.175 101.159 632.696 102.627C634.218 104.068 635.366 105.883 636.14 108.072C636.914 110.261 637.301 112.543 637.301 114.919C637.301 118.789 636.607 122.193 635.219 125.129C633.831 128.065 631.855 130.334 629.293 131.936C626.757 133.564 623.794 134.378 620.404 134.378ZM657.24 116.801C654.998 116.801 652.929 116.32 651.034 115.359C649.166 114.372 647.684 112.997 646.59 111.235C645.495 109.474 644.948 107.458 644.948 105.189C644.948 101.132 646.203 98.1426 648.712 96.2207C651.248 94.2721 654.718 93.2979 659.122 93.2979H671.814C671.814 88.9469 671.014 85.6637 669.412 83.4482C667.811 81.2061 665.088 80.085 661.244 80.085C658.975 80.085 656.88 80.6589 654.958 81.8066C653.063 82.9277 651.555 84.3158 650.434 85.9707L646.51 82.8877C648.298 80.3786 650.42 78.4967 652.876 77.2422C655.332 75.9609 658.228 75.3203 661.564 75.3203C664.768 75.3203 667.504 75.9876 669.772 77.3223C672.068 78.6302 673.803 80.4987 674.978 82.9277C676.152 85.3301 676.739 88.1595 676.739 91.416V116H672.175L671.975 108.793C670.186 111.516 668.104 113.531 665.729 114.839C663.38 116.147 660.55 116.801 657.24 116.801ZM658.802 111.836C661.284 111.836 663.513 111.155 665.488 109.794C667.49 108.433 669.038 106.671 670.133 104.509C671.254 102.347 671.814 100.131 671.814 97.8623H659.683C657.067 97.8623 654.891 98.5029 653.156 99.7842C651.448 101.039 650.594 102.84 650.594 105.189C650.594 107.538 651.368 109.233 652.916 110.274C654.491 111.315 656.453 111.836 658.802 111.836ZM700.723 116.801C698.214 116.801 695.931 116.414 693.876 115.64C691.821 114.866 690.179 113.691 688.951 112.116C687.723 110.515 687.109 108.526 687.109 106.15C687.109 103.535 687.697 101.412 688.871 99.7842C690.046 98.1559 691.46 96.9147 693.115 96.0605C694.797 95.1797 696.972 94.2855 699.642 93.3779C701.75 92.6305 703.392 91.9899 704.566 91.4561C705.741 90.8955 706.715 90.1615 707.489 89.2539C708.29 88.3464 708.69 87.1986 708.69 85.8105C708.69 83.862 708.09 82.4873 706.889 81.6865C705.714 80.8857 704.073 80.4854 701.964 80.4854C699.855 80.4854 698.107 80.9258 696.719 81.8066C695.331 82.6875 694.183 83.9688 693.275 85.6504L688.911 83.1279C690.192 80.8324 691.927 78.9772 694.116 77.5625C696.305 76.1211 698.921 75.4004 701.964 75.4004C704.153 75.4004 706.181 75.8141 708.05 76.6416C709.918 77.4691 711.4 78.6702 712.494 80.2451C713.615 81.82 714.176 83.6484 714.176 85.7305C714.176 88.2663 713.602 90.3216 712.454 91.8965C711.333 93.4714 709.972 94.6725 708.37 95.5C706.795 96.3008 704.687 97.1549 702.044 98.0625C699.909 98.7832 698.214 99.4372 696.959 100.024C695.731 100.585 694.703 101.359 693.876 102.347C693.049 103.334 692.635 104.602 692.635 106.15C692.635 108.393 693.355 109.914 694.797 110.715C696.265 111.516 698.187 111.916 700.562 111.916C702.057 111.916 703.499 111.596 704.887 110.955C706.275 110.314 707.476 109.434 708.49 108.312C709.505 107.165 710.225 105.897 710.652 104.509L715.257 107.151C714.696 108.913 713.722 110.528 712.334 111.996C710.973 113.464 709.278 114.639 707.249 115.52C705.247 116.374 703.072 116.801 700.723 116.801ZM742.043 116.801C738.413 116.801 735.17 115.88 732.313 114.038C729.484 112.196 727.282 109.701 725.707 106.551C724.132 103.401 723.345 99.931 723.345 96.1406C723.345 92.3503 724.132 88.8802 725.707 85.7305C727.282 82.5807 729.484 80.085 732.313 78.2432C735.17 76.4014 738.413 75.4805 742.043 75.4805C745.646 75.4805 748.876 76.4014 751.732 78.2432C754.589 80.085 756.817 82.5941 758.419 85.7705C760.021 88.9202 760.821 92.377 760.821 96.1406C760.821 99.931 760.021 103.401 758.419 106.551C756.817 109.701 754.589 112.196 751.732 114.038C748.876 115.88 745.646 116.801 742.043 116.801ZM742.043 111.996C744.952 111.996 747.341 111.275 749.21 109.834C751.078 108.393 752.44 106.484 753.294 104.108C754.148 101.706 754.575 99.0501 754.575 96.1406C754.575 93.2578 754.148 90.6286 753.294 88.2529C752.44 85.8506 751.078 83.9287 749.21 82.4873C747.341 81.0459 744.952 80.3252 742.043 80.3252C739.16 80.3252 736.785 81.0459 734.916 82.4873C733.048 83.9287 731.686 85.8506 730.832 88.2529C729.978 90.6286 729.551 93.2578 729.551 96.1406C729.551 99.0501 729.978 101.693 730.832 104.068C731.686 106.444 733.048 108.366 734.916 109.834C736.785 111.275 739.16 111.996 742.043 111.996ZM781.682 76.001H786.646L801.341 116H795.375L784.124 83.1279L772.873 116H766.987L781.682 76.001ZM826.445 116.801C822.815 116.801 819.572 115.88 816.716 114.038C813.886 112.196 811.684 109.701 810.109 106.551C808.535 103.401 807.747 99.931 807.747 96.1406C807.747 92.3503 808.535 88.8802 810.109 85.7305C811.684 82.5807 813.886 80.085 816.716 78.2432C819.572 76.4014 822.815 75.4805 826.445 75.4805C830.049 75.4805 833.279 76.4014 836.135 78.2432C838.991 80.085 841.22 82.5941 842.821 85.7705C844.423 88.9202 845.224 92.377 845.224 96.1406C845.224 99.931 844.423 103.401 842.821 106.551C841.22 109.701 838.991 112.196 836.135 114.038C833.279 115.88 830.049 116.801 826.445 116.801ZM826.445 111.996C829.355 111.996 831.744 111.275 833.612 109.834C835.481 108.393 836.842 106.484 837.696 104.108C838.55 101.706 838.978 99.0501 838.978 96.1406C838.978 93.2578 838.55 90.6286 837.696 88.2529C836.842 85.8506 835.481 83.9287 833.612 82.4873C831.744 81.0459 829.355 80.3252 826.445 80.3252C823.562 80.3252 821.187 81.0459 819.318 82.4873C817.45 83.9287 816.089 85.8506 815.234 88.2529C814.38 90.6286 813.953 93.2578 813.953 96.1406C813.953 99.0501 814.38 101.693 815.234 104.068C816.089 106.444 817.45 108.366 819.318 109.834C821.187 111.275 823.562 111.996 826.445 111.996ZM874.692 116.801C870.582 116.801 867.232 116.147 864.643 114.839C862.053 113.504 860.118 111.369 858.837 108.433C857.582 105.47 856.955 101.519 856.955 96.5811V76.7217C856.955 71.0628 858.316 66.6318 861.039 63.4287C863.762 60.1989 868.006 58.584 873.771 58.584C878.71 58.584 882.607 59.7318 885.463 62.0273C888.319 64.2962 889.747 67.7396 889.747 72.3574C889.747 73.5052 889.44 74.8265 888.826 76.3213C888.239 77.8161 887.318 79.2174 886.063 80.5254C884.809 81.8066 883.287 82.7275 881.499 83.2881C883.634 83.4482 885.49 84.2624 887.064 85.7305C888.639 87.1719 889.84 89.0003 890.668 91.2158C891.495 93.4313 891.909 95.7002 891.909 98.0225C891.909 101.866 891.188 105.203 889.747 108.032C888.332 110.862 886.33 113.037 883.741 114.559C881.152 116.053 878.136 116.801 874.692 116.801ZM874.092 112.076C878.416 112.076 881.459 110.875 883.221 108.473C885.009 106.07 885.903 102.627 885.903 98.1426C885.903 95.3932 885.396 93.0977 884.382 91.2559C883.394 89.4141 882.073 88.0661 880.418 87.2119C878.763 86.3311 876.961 85.8906 875.013 85.8906C873.411 85.8906 871.93 86.0508 870.568 86.3711C869.207 86.6914 867.952 87.332 866.805 88.293V83.5283C868.94 82.2471 872.33 81.513 876.975 81.3262C878.496 81.2728 879.764 80.779 880.778 79.8447C881.819 78.8838 882.58 77.7227 883.061 76.3613C883.541 75 883.781 73.6654 883.781 72.3574C883.781 69.3678 882.94 67.1523 881.259 65.7109C879.604 64.2428 877.108 63.5088 873.771 63.5088C870.835 63.5088 868.54 64.0026 866.885 64.9902C865.23 65.9512 864.069 67.3392 863.401 69.1543C862.761 70.9694 862.44 73.2516 862.44 76.001V96.5811C862.44 100.718 862.827 103.895 863.602 106.11C864.402 108.326 865.63 109.874 867.285 110.755C868.94 111.636 871.209 112.076 874.092 112.076ZM903.641 59.4248H909.166V90.8955H914.651L923.42 76.001H930.227L920.217 92.2168C921.525 92.2168 922.699 92.8574 923.74 94.1387C924.781 95.4199 925.635 96.9414 926.303 98.7031L932.749 116H926.463L921.538 101.586C920.817 99.4772 919.95 97.9691 918.936 97.0615C917.921 96.1273 916.573 95.6602 914.892 95.6602H909.166V116H903.641V59.4248ZM959.135 116.801C955.505 116.801 952.261 115.88 949.405 114.038C946.576 112.196 944.374 109.701 942.799 106.551C941.224 103.401 940.437 99.931 940.437 96.1406C940.437 92.3503 941.224 88.8802 942.799 85.7305C944.374 82.5807 946.576 80.085 949.405 78.2432C952.261 76.4014 955.505 75.4805 959.135 75.4805C962.738 75.4805 965.968 76.4014 968.824 78.2432C971.68 80.085 973.909 82.5941 975.511 85.7705C977.112 88.9202 977.913 92.377 977.913 96.1406C977.913 99.931 977.112 103.401 975.511 106.551C973.909 109.701 971.68 112.196 968.824 114.038C965.968 115.88 962.738 116.801 959.135 116.801ZM959.135 111.996C962.044 111.996 964.433 111.275 966.302 109.834C968.17 108.393 969.532 106.484 970.386 104.108C971.24 101.706 971.667 99.0501 971.667 96.1406C971.667 93.2578 971.24 90.6286 970.386 88.2529C969.532 85.8506 968.17 83.9287 966.302 82.4873C964.433 81.0459 962.044 80.3252 959.135 80.3252C956.252 80.3252 953.876 81.0459 952.008 82.4873C950.139 83.9287 948.778 85.8506 947.924 88.2529C947.07 90.6286 946.643 93.2578 946.643 96.1406C946.643 99.0501 947.07 101.693 947.924 104.068C948.778 106.444 950.139 108.366 952.008 109.834C953.876 111.275 956.252 111.996 959.135 111.996ZM1007.38 116.801C1003.27 116.801 999.921 116.147 997.332 114.839C994.743 113.504 992.808 111.369 991.526 108.433C990.272 105.47 989.645 101.519 989.645 96.5811V76.7217C989.645 71.0628 991.006 66.6318 993.729 63.4287C996.451 60.1989 1000.7 58.584 1006.46 58.584C1011.4 58.584 1015.3 59.7318 1018.15 62.0273C1021.01 64.2962 1022.44 67.7396 1022.44 72.3574C1022.44 73.5052 1022.13 74.8265 1021.52 76.3213C1020.93 77.8161 1020.01 79.2174 1018.75 80.5254C1017.5 81.8066 1015.98 82.7275 1014.19 83.2881C1016.32 83.4482 1018.18 84.2624 1019.75 85.7305C1021.33 87.1719 1022.53 89.0003 1023.36 91.2158C1024.18 93.4313 1024.6 95.7002 1024.6 98.0225C1024.6 101.866 1023.88 105.203 1022.44 108.032C1021.02 110.862 1019.02 113.037 1016.43 114.559C1013.84 116.053 1010.83 116.801 1007.38 116.801ZM1006.78 112.076C1011.11 112.076 1014.15 110.875 1015.91 108.473C1017.7 106.07 1018.59 102.627 1018.59 98.1426C1018.59 95.3932 1018.09 93.0977 1017.07 91.2559C1016.08 89.4141 1014.76 88.0661 1013.11 87.2119C1011.45 86.3311 1009.65 85.8906 1007.7 85.8906C1006.1 85.8906 1004.62 86.0508 1003.26 86.3711C1001.9 86.6914 1000.64 87.332 999.494 88.293V83.5283C1001.63 82.2471 1005.02 81.513 1009.66 81.3262C1011.19 81.2728 1012.45 80.779 1013.47 79.8447C1014.51 78.8838 1015.27 77.7227 1015.75 76.3613C1016.23 75 1016.47 73.6654 1016.47 72.3574C1016.47 69.3678 1015.63 67.1523 1013.95 65.7109C1012.29 64.2428 1009.8 63.5088 1006.46 63.5088C1003.52 63.5088 1001.23 64.0026 999.574 64.9902C997.919 65.9512 996.758 67.3392 996.091 69.1543C995.45 70.9694 995.13 73.2516 995.13 76.001V96.5811C995.13 100.718 995.517 103.895 996.291 106.11C997.092 108.326 998.32 109.874 999.975 110.755C1001.63 111.636 1003.9 112.076 1006.78 112.076ZM60.5381 214.921C57.3617 214.921 54.7591 214.16 52.7305 212.639C50.7018 211.117 49.2204 209.075 48.2861 206.513C47.3786 203.95 46.9248 201.067 46.9248 197.864V174.001H52.3301V198.024C52.3301 201.441 52.9707 204.351 54.252 206.753C55.5599 209.129 57.7887 210.316 60.9385 210.316C63.1273 210.316 65.1559 209.689 67.0244 208.435C68.9196 207.18 70.4277 205.525 71.5488 203.47C72.6699 201.414 73.2305 199.266 73.2305 197.023V174.001H78.6357V214H73.2305V207.033C72.6966 208.208 71.8158 209.409 70.5879 210.637C69.3867 211.838 67.9186 212.852 66.1836 213.68C64.4486 214.507 62.5667 214.921 60.5381 214.921ZM135.011 175.643C138.454 175.643 141.457 176.523 144.02 178.285C146.582 180.02 148.531 182.382 149.865 185.372C151.227 188.335 151.907 191.618 151.907 195.222C151.907 198.799 151.133 202.082 149.585 205.071C148.037 208.061 145.888 210.437 143.139 212.198C140.389 213.933 137.266 214.801 133.77 214.801C130.299 214.801 127.23 213.933 124.561 212.198C121.918 210.463 119.863 208.101 118.395 205.111C116.953 202.122 116.232 198.825 116.232 195.222V180.888C116.232 176.403 117.06 172.826 118.715 170.157C120.396 167.488 122.492 165.459 125.001 164.071C129.779 161.455 135.745 158.96 142.898 156.584V161.829L139.495 163.15C136.185 164.432 133.636 165.459 131.848 166.233C130.086 167.007 128.551 167.808 127.243 168.636C125.081 170.05 123.533 171.732 122.599 173.681C121.691 175.629 121.237 178.272 121.237 181.608V182.77C122.625 180.768 124.521 179.086 126.923 177.725C129.352 176.337 132.048 175.643 135.011 175.643ZM133.77 210.316C136.572 210.316 138.881 209.636 140.696 208.274C142.511 206.886 143.833 205.058 144.66 202.789C145.514 200.52 145.941 197.998 145.941 195.222C145.941 192.472 145.514 189.977 144.66 187.734C143.833 185.465 142.511 183.65 140.696 182.289C138.881 180.901 136.572 180.207 133.77 180.207C130.993 180.207 128.698 180.901 126.883 182.289C125.094 183.65 123.786 185.465 122.959 187.734C122.132 189.977 121.718 192.472 121.718 195.222C121.718 197.998 122.132 200.52 122.959 202.789C123.786 205.058 125.094 206.886 126.883 208.274C128.698 209.636 130.993 210.316 133.77 210.316ZM179.895 214.801C176.264 214.801 173.021 213.88 170.165 212.038C167.336 210.196 165.133 207.701 163.559 204.551C161.984 201.401 161.196 197.931 161.196 194.141C161.196 190.35 161.984 186.88 163.559 183.73C165.133 180.581 167.336 178.085 170.165 176.243C173.021 174.401 176.264 173.48 179.895 173.48C183.498 173.48 186.728 174.401 189.584 176.243C192.44 178.085 194.669 180.594 196.271 183.771C197.872 186.92 198.673 190.377 198.673 194.141C198.673 197.931 197.872 201.401 196.271 204.551C194.669 207.701 192.44 210.196 189.584 212.038C186.728 213.88 183.498 214.801 179.895 214.801ZM179.895 209.996C182.804 209.996 185.193 209.275 187.062 207.834C188.93 206.393 190.291 204.484 191.146 202.108C192 199.706 192.427 197.05 192.427 194.141C192.427 191.258 192 188.629 191.146 186.253C190.291 183.851 188.93 181.929 187.062 180.487C185.193 179.046 182.804 178.325 179.895 178.325C177.012 178.325 174.636 179.046 172.768 180.487C170.899 181.929 169.538 183.851 168.684 186.253C167.829 188.629 167.402 191.258 167.402 194.141C167.402 197.05 167.829 199.693 168.684 202.068C169.538 204.444 170.899 206.366 172.768 207.834C174.636 209.275 177.012 209.996 179.895 209.996ZM219.533 174.001H224.498L239.192 214H233.227L221.976 181.128L210.725 214H204.839L219.533 174.001ZM262.976 214.48C259.132 214.48 255.875 213.573 253.206 211.758C250.563 209.943 248.575 207.514 247.24 204.471C245.932 201.401 245.278 197.984 245.278 194.221C245.278 190.51 245.932 187.08 247.24 183.931C248.548 180.781 250.483 178.258 253.046 176.363C255.608 174.441 258.705 173.48 262.335 173.48C268.287 173.48 272.558 175.442 275.147 179.366C277.737 183.29 279.031 188.362 279.031 194.581C279.031 194.795 279.005 195.035 278.951 195.302C278.924 195.569 278.898 195.756 278.871 195.862H251.004C250.951 198.398 251.364 200.72 252.245 202.829C253.153 204.938 254.501 206.619 256.289 207.874C258.104 209.129 260.306 209.756 262.896 209.756C265.431 209.756 267.593 209.449 269.382 208.835C271.197 208.194 272.865 207.073 274.387 205.472L278.15 208.435C275.935 210.597 273.639 212.145 271.264 213.079C268.915 214.013 266.152 214.48 262.976 214.48ZM273.866 191.298C273.92 188.735 273.519 186.493 272.665 184.571C271.811 182.623 270.516 181.115 268.781 180.047C267.046 178.952 264.897 178.405 262.335 178.405C259.906 178.405 257.851 178.979 256.169 180.127C254.487 181.248 253.219 182.783 252.365 184.731C251.511 186.68 251.057 188.869 251.004 191.298H273.866ZM304.776 214.48C300.933 214.48 297.676 213.573 295.007 211.758C292.364 209.943 290.376 207.514 289.041 204.471C287.733 201.401 287.079 197.984 287.079 194.221C287.079 190.51 287.733 187.08 289.041 183.931C290.349 180.781 292.284 178.258 294.847 176.363C297.409 174.441 300.506 173.48 304.136 173.48C310.088 173.48 314.359 175.442 316.948 179.366C319.537 183.29 320.832 188.362 320.832 194.581C320.832 194.795 320.805 195.035 320.752 195.302C320.725 195.569 320.699 195.756 320.672 195.862H292.805C292.751 198.398 293.165 200.72 294.046 202.829C294.953 204.938 296.301 206.619 298.09 207.874C299.905 209.129 302.107 209.756 304.696 209.756C307.232 209.756 309.394 209.449 311.183 208.835C312.998 208.194 314.666 207.073 316.188 205.472L319.951 208.435C317.736 210.597 315.44 212.145 313.064 213.079C310.715 214.013 307.953 214.48 304.776 214.48ZM315.667 191.298C315.72 188.735 315.32 186.493 314.466 184.571C313.612 182.623 312.317 181.115 310.582 180.047C308.847 178.952 306.698 178.405 304.136 178.405C301.707 178.405 299.651 178.979 297.97 180.127C296.288 181.248 295.02 182.783 294.166 184.731C293.312 186.68 292.858 188.869 292.805 191.298H315.667ZM354.545 174.001H362.353L375.405 207.193L388.338 174.081H396.226V214H390.7V180.968L377.527 214H373.243L360.07 181.048V214H354.545V174.001ZM425.694 214.48C421.851 214.48 418.594 213.573 415.925 211.758C413.282 209.943 411.294 207.514 409.959 204.471C408.651 201.401 407.997 197.984 407.997 194.221C407.997 190.51 408.651 187.08 409.959 183.931C411.267 180.781 413.202 178.258 415.765 176.363C418.327 174.441 421.424 173.48 425.054 173.48C431.006 173.48 435.277 175.442 437.866 179.366C440.455 183.29 441.75 188.362 441.75 194.581C441.75 194.795 441.723 195.035 441.67 195.302C441.643 195.569 441.617 195.756 441.59 195.862H413.723C413.669 198.398 414.083 200.72 414.964 202.829C415.871 204.938 417.219 206.619 419.008 207.874C420.823 209.129 423.025 209.756 425.614 209.756C428.15 209.756 430.312 209.449 432.101 208.835C433.916 208.194 435.584 207.073 437.105 205.472L440.869 208.435C438.654 210.597 436.358 212.145 433.982 213.079C431.633 214.013 428.871 214.48 425.694 214.48ZM436.585 191.298C436.638 188.735 436.238 186.493 435.384 184.571C434.53 182.623 433.235 181.115 431.5 180.047C429.765 178.952 427.616 178.405 425.054 178.405C422.625 178.405 420.569 178.979 418.888 180.127C417.206 181.248 415.938 182.783 415.084 184.731C414.23 186.68 413.776 188.869 413.723 191.298H436.585ZM461.689 174.001H466.654L481.349 214H475.383L464.132 181.128L452.881 214H446.995L461.689 174.001ZM490.357 157.425H495.883V188.896H501.368L510.137 174.001H516.943L506.934 190.217C508.242 190.217 509.416 190.857 510.457 192.139C511.498 193.42 512.352 194.941 513.02 196.703L519.466 214H513.18L508.255 199.586C507.534 197.477 506.667 195.969 505.652 195.062C504.638 194.127 503.29 193.66 501.608 193.66H495.883V214H490.357V157.425ZM540.927 214.921C537.75 214.921 535.148 214.16 533.119 212.639C531.09 211.117 529.609 209.075 528.675 206.513C527.767 203.95 527.313 201.067 527.313 197.864V174.001H532.719V198.024C532.719 201.441 533.359 204.351 534.641 206.753C535.949 209.129 538.177 210.316 541.327 210.316C543.516 210.316 545.545 209.689 547.413 208.435C549.308 207.18 550.816 205.525 551.938 203.47C553.059 201.414 553.619 199.266 553.619 197.023V174.001H559.024V214H553.619V207.033C553.085 208.208 552.204 209.409 550.977 210.637C549.775 211.838 548.307 212.852 546.572 213.68C544.837 214.507 542.955 214.921 540.927 214.921ZM581.687 193.82L568.313 174.001H574.96L584.449 189.136L593.979 174.001H600.545L587.252 193.82L600.545 214H593.979L584.449 198.585L574.96 214H568.313L581.687 193.82ZM632.336 174.001H637.861V189.816H658.602V174.001H664.087V214H658.602V194.221H637.861V214H632.336V174.001ZM688.15 214.801C685.908 214.801 683.84 214.32 681.944 213.359C680.076 212.372 678.594 210.997 677.5 209.235C676.406 207.474 675.858 205.458 675.858 203.189C675.858 199.132 677.113 196.143 679.622 194.221C682.158 192.272 685.628 191.298 690.032 191.298H702.725C702.725 186.947 701.924 183.664 700.322 181.448C698.721 179.206 695.998 178.085 692.154 178.085C689.885 178.085 687.79 178.659 685.868 179.807C683.973 180.928 682.465 182.316 681.344 183.971L677.42 180.888C679.208 178.379 681.33 176.497 683.786 175.242C686.242 173.961 689.138 173.32 692.475 173.32C695.678 173.32 698.414 173.988 700.683 175.322C702.978 176.63 704.713 178.499 705.888 180.928C707.062 183.33 707.649 186.16 707.649 189.416V214H703.085L702.885 206.793C701.096 209.516 699.014 211.531 696.639 212.839C694.29 214.147 691.46 214.801 688.15 214.801ZM689.712 209.836C692.194 209.836 694.423 209.155 696.398 207.794C698.4 206.433 699.949 204.671 701.043 202.509C702.164 200.347 702.725 198.131 702.725 195.862H690.593C687.977 195.862 685.801 196.503 684.066 197.784C682.358 199.039 681.504 200.84 681.504 203.189C681.504 205.538 682.278 207.233 683.826 208.274C685.401 209.315 687.363 209.836 689.712 209.836ZM736.478 214.801C732.847 214.801 729.738 213.853 727.148 211.958C724.559 210.063 722.611 207.54 721.303 204.391C719.995 201.241 719.341 197.798 719.341 194.061C719.341 190.35 719.995 186.92 721.303 183.771C722.611 180.621 724.546 178.098 727.108 176.203C729.671 174.281 732.767 173.32 736.397 173.32C739.894 173.32 742.964 174.241 745.606 176.083C748.249 177.925 750.291 180.447 751.732 183.65L746.567 185.893C745.953 183.437 744.726 181.502 742.884 180.087C741.042 178.646 738.88 177.925 736.397 177.925C733.728 177.925 731.526 178.726 729.791 180.327C728.083 181.902 726.841 183.917 726.067 186.373C725.293 188.802 724.906 191.365 724.906 194.061C724.906 196.783 725.28 199.372 726.027 201.828C726.801 204.284 728.043 206.299 729.751 207.874C731.486 209.449 733.701 210.236 736.397 210.236C738.853 210.236 741.002 209.516 742.844 208.074C744.712 206.633 745.953 204.698 746.567 202.269L751.252 204.311C750.077 207.62 748.209 210.196 745.646 212.038C743.084 213.88 740.028 214.801 736.478 214.801ZM774.354 214.921C771.178 214.921 768.576 214.16 766.547 212.639C764.518 211.117 763.037 209.075 762.103 206.513C761.195 203.95 760.741 201.067 760.741 197.864V174.001H766.146V198.024C766.146 201.441 766.787 204.351 768.068 206.753C769.376 209.129 771.605 210.316 774.755 210.316C776.944 210.316 778.972 209.689 780.841 208.435C782.736 207.18 784.244 205.525 785.365 203.47C786.486 201.414 787.047 199.266 787.047 197.023V174.001H792.452V214H787.047V207.033C786.513 208.208 785.632 209.409 784.404 210.637C783.203 211.838 781.735 212.852 780 213.68C778.265 214.507 776.383 214.921 774.354 214.921ZM807.467 174.001H812.992V181.208C813.82 178.859 815.221 176.951 817.196 175.482C819.172 173.988 821.427 173.24 823.963 173.24C826.899 173.24 829.462 173.961 831.65 175.402C833.839 176.817 835.427 178.886 836.415 181.608C837.616 178.886 839.244 176.83 841.3 175.442C843.382 174.028 845.824 173.32 848.627 173.32C851.83 173.32 854.459 174.054 856.515 175.522C858.57 176.964 860.065 178.912 860.999 181.368C861.933 183.797 862.4 186.533 862.4 189.576V214H856.915V190.217C856.915 186.827 856.248 183.917 854.913 181.488C853.578 179.059 851.323 177.845 848.146 177.845C845.984 177.845 844.103 178.472 842.501 179.727C840.926 180.981 839.725 182.623 838.897 184.651C838.07 186.68 837.656 188.842 837.656 191.138V214H832.171V190.057C832.171 186.64 831.517 183.757 830.209 181.408C828.901 179.033 826.659 177.845 823.482 177.845C821.32 177.845 819.438 178.472 817.837 179.727C816.262 180.981 815.061 182.623 814.233 184.651C813.406 186.68 812.992 188.842 812.992 191.138V214H807.467V174.001ZM890.388 214.48C886.544 214.48 883.287 213.573 880.618 211.758C877.976 209.943 875.987 207.514 874.652 204.471C873.344 201.401 872.69 197.984 872.69 194.221C872.69 190.51 873.344 187.08 874.652 183.931C875.96 180.781 877.896 178.258 880.458 176.363C883.021 174.441 886.117 173.48 889.747 173.48C895.7 173.48 899.97 175.442 902.56 179.366C905.149 183.29 906.443 188.362 906.443 194.581C906.443 194.795 906.417 195.035 906.363 195.302C906.337 195.569 906.31 195.756 906.283 195.862H878.416C878.363 198.398 878.776 200.72 879.657 202.829C880.565 204.938 881.913 206.619 883.701 207.874C885.516 209.129 887.718 209.756 890.308 209.756C892.843 209.756 895.006 209.449 896.794 208.835C898.609 208.194 900.277 207.073 901.799 205.472L905.562 208.435C903.347 210.597 901.051 212.145 898.676 213.079C896.327 214.013 893.564 214.48 890.388 214.48ZM901.278 191.298C901.332 188.735 900.931 186.493 900.077 184.571C899.223 182.623 897.928 181.115 896.193 180.047C894.458 178.952 892.31 178.405 889.747 178.405C887.318 178.405 885.263 178.979 883.581 180.127C881.899 181.248 880.632 182.783 879.777 184.731C878.923 186.68 878.469 188.869 878.416 191.298H901.278ZM926.383 174.001H931.348L946.042 214H940.076L928.825 181.128L917.574 214H911.688L926.383 174.001ZM969.825 214.48C965.981 214.48 962.725 213.573 960.056 211.758C957.413 209.943 955.424 207.514 954.09 204.471C952.782 201.401 952.128 197.984 952.128 194.221C952.128 190.51 952.782 187.08 954.09 183.931C955.398 180.781 957.333 178.258 959.896 176.363C962.458 174.441 965.554 173.48 969.185 173.48C975.137 173.48 979.408 175.442 981.997 179.366C984.586 183.29 985.881 188.362 985.881 194.581C985.881 194.795 985.854 195.035 985.801 195.302C985.774 195.569 985.747 195.756 985.721 195.862H957.854C957.8 198.398 958.214 200.72 959.095 202.829C960.002 204.938 961.35 206.619 963.139 207.874C964.954 209.129 967.156 209.756 969.745 209.756C972.281 209.756 974.443 209.449 976.231 208.835C978.047 208.194 979.715 207.073 981.236 205.472L985 208.435C982.785 210.597 980.489 212.145 978.113 213.079C975.764 214.013 973.002 214.48 969.825 214.48ZM980.716 191.298C980.769 188.735 980.369 186.493 979.515 184.571C978.66 182.623 977.366 181.115 975.631 180.047C973.896 178.952 971.747 178.405 969.185 178.405C966.756 178.405 964.7 178.979 963.019 180.127C961.337 181.248 960.069 182.783 959.215 184.731C958.361 186.68 957.907 188.869 957.854 191.298H980.716ZM1012.11 168.235C1009.94 168.235 1007.94 167.822 1006.1 166.994C1004.26 166.14 1002.79 164.899 1001.7 163.271C1000.6 161.642 1000.05 159.694 1000.05 157.425H1004.74C1004.74 158.706 1005.07 159.867 1005.74 160.908C1006.41 161.949 1007.3 162.763 1008.42 163.351C1009.54 163.938 1010.77 164.231 1012.11 164.231C1013.41 164.231 1014.63 163.938 1015.75 163.351C1016.9 162.763 1017.81 161.949 1018.47 160.908C1019.17 159.867 1019.51 158.706 1019.51 157.425H1024.16C1024.16 159.64 1023.61 161.576 1022.52 163.23C1021.45 164.859 1019.99 166.1 1018.15 166.954C1016.34 167.808 1014.32 168.235 1012.11 168.235ZM1010.46 214.921C1007.29 214.921 1004.69 214.16 1002.66 212.639C1000.63 211.117 999.147 209.075 998.213 206.513C997.305 203.95 996.852 201.067 996.852 197.864V174.001H1002.26V198.024C1002.26 201.441 1002.9 204.351 1004.18 206.753C1005.49 209.129 1007.73 210.316 1010.91 210.316C1013.07 210.316 1015.1 209.689 1016.99 208.435C1018.89 207.18 1020.39 205.525 1021.52 203.47C1022.64 201.414 1023.2 199.266 1023.2 197.023V174.001H1028.6V214H1023.2V207.033C1022.66 208.208 1021.78 209.409 1020.55 210.637C1019.35 211.838 1017.87 212.852 1016.11 213.68C1014.38 214.507 1012.49 214.921 1010.46 214.921Z" fill="#FF0000"/>
</svg>
