<svg width="1280" height="164" viewBox="0 0 1280 164" fill="none" xmlns="http://www.w3.org/2000/svg">
<rect width="1280" height="164" fill="white"/>
<path d="M49.3672 76.001H54.8926V91.8164H75.6328V76.001H81.1182V116H75.6328V96.2207H54.8926V116H49.3672V76.001ZM110.587 116.48C106.743 116.48 103.487 115.573 100.817 113.758C98.1748 111.943 96.1862 109.514 94.8516 106.471C93.5436 103.401 92.8896 99.9844 92.8896 96.2207C92.8896 92.5104 93.5436 89.0804 94.8516 85.9307C96.1595 82.7809 98.0947 80.2585 100.657 78.3633C103.22 76.4414 106.316 75.4805 109.946 75.4805C115.899 75.4805 120.17 77.4424 122.759 81.3662C125.348 85.29 126.643 90.3617 126.643 96.5811C126.643 96.7946 126.616 97.0348 126.562 97.3018C126.536 97.5687 126.509 97.7555 126.482 97.8623H98.6152C98.5618 100.398 98.9756 102.72 99.8564 104.829C100.764 106.938 102.112 108.619 103.9 109.874C105.715 111.129 107.918 111.756 110.507 111.756C113.043 111.756 115.205 111.449 116.993 110.835C118.808 110.194 120.477 109.073 121.998 107.472L125.762 110.435C123.546 112.597 121.251 114.145 118.875 115.079C116.526 116.013 113.763 116.48 110.587 116.48ZM121.478 93.2979C121.531 90.7354 121.131 88.4932 120.276 86.5713C119.422 84.6227 118.128 83.1146 116.393 82.0469C114.658 80.9525 112.509 80.4053 109.946 80.4053C107.517 80.4053 105.462 80.9792 103.78 82.127C102.099 83.248 100.831 84.7829 99.9766 86.7314C99.1224 88.68 98.6686 90.8688 98.6152 93.2979H121.478ZM153.709 116.801C150.079 116.801 146.836 115.88 143.979 114.038C141.15 112.196 138.948 109.701 137.373 106.551C135.798 103.401 135.011 99.931 135.011 96.1406C135.011 92.3503 135.798 88.8802 137.373 85.7305C138.948 82.5807 141.15 80.085 143.979 78.2432C146.836 76.4014 150.079 75.4805 153.709 75.4805C157.312 75.4805 160.542 76.4014 163.398 78.2432C166.255 80.085 168.483 82.5941 170.085 85.7705C171.687 88.9202 172.487 92.377 172.487 96.1406C172.487 99.931 171.687 103.401 170.085 106.551C168.483 109.701 166.255 112.196 163.398 114.038C160.542 115.88 157.312 116.801 153.709 116.801ZM153.709 111.996C156.618 111.996 159.007 111.275 160.876 109.834C162.744 108.393 164.106 106.484 164.96 104.108C165.814 101.706 166.241 99.0501 166.241 96.1406C166.241 93.2578 165.814 90.6286 164.96 88.2529C164.106 85.8506 162.744 83.9287 160.876 82.4873C159.007 81.0459 156.618 80.3252 153.709 80.3252C150.826 80.3252 148.451 81.0459 146.582 82.4873C144.714 83.9287 143.352 85.8506 142.498 88.2529C141.644 90.6286 141.217 93.2578 141.217 96.1406C141.217 99.0501 141.644 101.693 142.498 104.068C143.352 106.444 144.714 108.366 146.582 109.834C148.451 111.275 150.826 111.996 153.709 111.996ZM202.997 77.6426C206.44 77.6426 209.443 78.5234 212.006 80.2852C214.568 82.0202 216.517 84.3825 217.852 87.3721C219.213 90.335 219.894 93.6182 219.894 97.2217C219.894 100.799 219.119 104.082 217.571 107.071C216.023 110.061 213.874 112.437 211.125 114.198C208.376 115.933 205.253 116.801 201.756 116.801C198.286 116.801 195.216 115.933 192.547 114.198C189.904 112.463 187.849 110.101 186.381 107.111C184.939 104.122 184.219 100.825 184.219 97.2217V82.8877C184.219 78.4033 185.046 74.8265 186.701 72.1572C188.383 69.488 190.478 67.4593 192.987 66.0713C197.765 63.4554 203.731 60.9596 210.885 58.584V63.8291L207.481 65.1504C204.172 66.4316 201.622 67.4593 199.834 68.2334C198.072 69.0075 196.537 69.8083 195.229 70.6357C193.067 72.0505 191.519 73.7321 190.585 75.6807C189.677 77.6292 189.224 80.2718 189.224 83.6084V84.7695C190.612 82.7676 192.507 81.0859 194.909 79.7246C197.338 78.3366 200.034 77.6426 202.997 77.6426ZM201.756 112.316C204.559 112.316 206.868 111.636 208.683 110.274C210.498 108.886 211.819 107.058 212.646 104.789C213.501 102.52 213.928 99.9977 213.928 97.2217C213.928 94.4723 213.501 91.9766 212.646 89.7344C211.819 87.4655 210.498 85.6504 208.683 84.2891C206.868 82.901 204.559 82.207 201.756 82.207C198.98 82.207 196.684 82.901 194.869 84.2891C193.081 85.6504 191.773 87.4655 190.945 89.7344C190.118 91.9766 189.704 94.4723 189.704 97.2217C189.704 99.9977 190.118 102.52 190.945 104.789C191.773 107.058 193.081 108.886 194.869 110.274C196.684 111.636 198.98 112.316 201.756 112.316ZM247.961 116.801C245.051 116.801 242.355 116.24 239.873 115.119C237.391 113.971 235.389 112.236 233.867 109.914C232.372 107.592 231.625 104.722 231.625 101.306V76.001H237.11V89.6143C238.098 87.9593 239.513 86.5579 241.354 85.4102C243.196 84.2624 245.398 83.6885 247.961 83.6885C250.951 83.6885 253.74 84.3024 256.329 85.5303C258.945 86.7314 261.04 88.5866 262.615 91.0957C264.217 93.5781 265.018 96.6344 265.018 100.265C265.018 103.895 264.217 106.951 262.615 109.434C261.04 111.916 258.945 113.771 256.329 114.999C253.74 116.2 250.951 116.801 247.961 116.801ZM271.224 76.001H276.749V116H271.224V76.001ZM247.961 111.996C250.123 111.996 252.032 111.489 253.687 110.475C255.341 109.434 256.609 108.032 257.49 106.271C258.398 104.482 258.852 102.48 258.852 100.265C258.852 98.0492 258.398 96.0605 257.49 94.2988C256.609 92.5104 255.341 91.109 253.687 90.0947C252.032 89.0537 250.123 88.5332 247.961 88.5332C245.959 88.5332 244.171 88.9736 242.596 89.8545C241.021 90.7354 239.766 91.9499 238.832 93.498C237.898 95.0462 237.324 96.8079 237.11 98.7832V101.746C237.324 103.721 237.898 105.483 238.832 107.031C239.766 108.579 241.021 109.794 242.596 110.675C244.171 111.556 245.959 111.996 247.961 111.996ZM310.942 98.3828C310.409 99.5573 309.541 100.758 308.34 101.986C307.139 103.188 305.657 104.202 303.896 105.029C302.16 105.83 300.279 106.23 298.25 106.23C295.074 106.23 292.458 105.47 290.402 103.948C288.374 102.427 286.892 100.385 285.958 97.8223C285.024 95.2598 284.557 92.377 284.557 89.1738V76.001H290.042V89.334C290.042 92.7773 290.683 95.7002 291.964 98.1025C293.272 100.478 295.501 101.666 298.65 101.666C300.839 101.666 302.868 101.039 304.736 99.7842C306.632 98.5296 308.14 96.8747 309.261 94.8193C310.382 92.764 310.942 90.6152 310.942 88.373V76.001H316.468V116H310.942V98.3828ZM331.162 76.001H336.688V91.8164H357.428V76.001H362.913V116H357.428V96.2207H336.688V116H331.162V76.001ZM393.703 116.801C390.073 116.801 386.83 115.88 383.974 114.038C381.144 112.196 378.942 109.701 377.367 106.551C375.792 103.401 375.005 99.931 375.005 96.1406C375.005 92.3503 375.792 88.8802 377.367 85.7305C378.942 82.5807 381.144 80.085 383.974 78.2432C386.83 76.4014 390.073 75.4805 393.703 75.4805C397.307 75.4805 400.536 76.4014 403.393 78.2432C406.249 80.085 408.478 82.5941 410.079 85.7705C411.681 88.9202 412.481 92.377 412.481 96.1406C412.481 99.931 411.681 103.401 410.079 106.551C408.478 109.701 406.249 112.196 403.393 114.038C400.536 115.88 397.307 116.801 393.703 116.801ZM393.703 111.996C396.613 111.996 399.002 111.275 400.87 109.834C402.739 108.393 404.1 106.484 404.954 104.108C405.808 101.706 406.235 99.0501 406.235 96.1406C406.235 93.2578 405.808 90.6286 404.954 88.2529C404.1 85.8506 402.739 83.9287 400.87 82.4873C399.002 81.0459 396.613 80.3252 393.703 80.3252C390.82 80.3252 388.445 81.0459 386.576 82.4873C384.708 83.9287 383.346 85.8506 382.492 88.2529C381.638 90.6286 381.211 93.2578 381.211 96.1406C381.211 99.0501 381.638 101.693 382.492 104.068C383.346 106.444 384.708 108.366 386.576 109.834C388.445 111.275 390.82 111.996 393.703 111.996ZM439.147 116.48C435.304 116.48 432.047 115.573 429.378 113.758C426.735 111.943 424.747 109.514 423.412 106.471C422.104 103.401 421.45 99.9844 421.45 96.2207C421.45 92.5104 422.104 89.0804 423.412 85.9307C424.72 82.7809 426.655 80.2585 429.218 78.3633C431.78 76.4414 434.877 75.4805 438.507 75.4805C444.459 75.4805 448.73 77.4424 451.319 81.3662C453.909 85.29 455.203 90.3617 455.203 96.5811C455.203 96.7946 455.176 97.0348 455.123 97.3018C455.096 97.5687 455.07 97.7555 455.043 97.8623H427.176C427.122 100.398 427.536 102.72 428.417 104.829C429.325 106.938 430.673 108.619 432.461 109.874C434.276 111.129 436.478 111.756 439.067 111.756C441.603 111.756 443.765 111.449 445.554 110.835C447.369 110.194 449.037 109.073 450.559 107.472L454.322 110.435C452.107 112.597 449.811 114.145 447.436 115.079C445.087 116.013 442.324 116.48 439.147 116.48ZM450.038 93.2979C450.091 90.7354 449.691 88.4932 448.837 86.5713C447.983 84.6227 446.688 83.1146 444.953 82.0469C443.218 80.9525 441.069 80.4053 438.507 80.4053C436.078 80.4053 434.022 80.9792 432.341 82.127C430.659 83.248 429.391 84.7829 428.537 86.7314C427.683 88.68 427.229 90.8688 427.176 93.2979H450.038ZM488.916 76.001H494.441V91.8164H515.182V76.001H520.667V116H515.182V96.2207H494.441V116H488.916V76.001ZM544.73 116.801C542.488 116.801 540.42 116.32 538.524 115.359C536.656 114.372 535.174 112.997 534.08 111.235C532.986 109.474 532.438 107.458 532.438 105.189C532.438 101.132 533.693 98.1426 536.202 96.2207C538.738 94.2721 542.208 93.2979 546.612 93.2979H559.305C559.305 88.9469 558.504 85.6637 556.902 83.4482C555.301 81.2061 552.578 80.085 548.734 80.085C546.465 80.085 544.37 80.6589 542.448 81.8066C540.553 82.9277 539.045 84.3158 537.924 85.9707L534 82.8877C535.788 80.3786 537.91 78.4967 540.366 77.2422C542.822 75.9609 545.718 75.3203 549.055 75.3203C552.258 75.3203 554.994 75.9876 557.263 77.3223C559.558 78.6302 561.293 80.4987 562.468 82.9277C563.642 85.3301 564.229 88.1595 564.229 91.416V116H559.665L559.465 108.793C557.676 111.516 555.594 113.531 553.219 114.839C550.87 116.147 548.04 116.801 544.73 116.801ZM546.292 111.836C548.774 111.836 551.003 111.155 552.979 109.794C554.98 108.433 556.529 106.671 557.623 104.509C558.744 102.347 559.305 100.131 559.305 97.8623H547.173C544.557 97.8623 542.382 98.5029 540.646 99.7842C538.938 101.039 538.084 102.84 538.084 105.189C538.084 107.538 538.858 109.233 540.406 110.274C541.981 111.315 543.943 111.836 546.292 111.836ZM600.345 98.3828C599.811 99.5573 598.943 100.758 597.742 101.986C596.541 103.188 595.06 104.202 593.298 105.029C591.563 105.83 589.681 106.23 587.652 106.23C584.476 106.23 581.86 105.47 579.805 103.948C577.776 102.427 576.295 100.385 575.36 97.8223C574.426 95.2598 573.959 92.377 573.959 89.1738V76.001H579.444V89.334C579.444 92.7773 580.085 95.7002 581.366 98.1025C582.674 100.478 584.903 101.666 588.053 101.666C590.242 101.666 592.27 101.039 594.139 99.7842C596.034 98.5296 597.542 96.8747 598.663 94.8193C599.784 92.764 600.345 90.6152 600.345 88.373V76.001H605.87V116H600.345V98.3828ZM635.339 116.48C631.495 116.48 628.239 115.573 625.569 113.758C622.927 111.943 620.938 109.514 619.604 106.471C618.296 103.401 617.642 99.9844 617.642 96.2207C617.642 92.5104 618.296 89.0804 619.604 85.9307C620.911 82.7809 622.847 80.2585 625.409 78.3633C627.972 76.4414 631.068 75.4805 634.698 75.4805C640.651 75.4805 644.922 77.4424 647.511 81.3662C650.1 85.29 651.395 90.3617 651.395 96.5811C651.395 96.7946 651.368 97.0348 651.314 97.3018C651.288 97.5687 651.261 97.7555 651.234 97.8623H623.367C623.314 100.398 623.728 102.72 624.608 104.829C625.516 106.938 626.864 108.619 628.652 109.874C630.467 111.129 632.67 111.756 635.259 111.756C637.795 111.756 639.957 111.449 641.745 110.835C643.56 110.194 645.229 109.073 646.75 107.472L650.514 110.435C648.298 112.597 646.003 114.145 643.627 115.079C641.278 116.013 638.515 116.48 635.339 116.48ZM646.229 93.2979C646.283 90.7354 645.882 88.4932 645.028 86.5713C644.174 84.6227 642.88 83.1146 641.145 82.0469C639.41 80.9525 637.261 80.4053 634.698 80.4053C632.269 80.4053 630.214 80.9792 628.532 82.127C626.851 83.248 625.583 84.7829 624.729 86.7314C623.874 88.68 623.421 90.8688 623.367 93.2979H646.229ZM662.365 76.001H667.771V81.7266C670.68 77.349 674.897 75.1602 680.423 75.1602C683.733 75.1602 686.589 76.0677 688.991 77.8828C691.42 79.6979 693.262 82.1937 694.517 85.3701C695.771 88.5199 696.398 92.0566 696.398 95.9805C696.398 99.9043 695.771 103.454 694.517 106.631C693.262 109.781 691.42 112.263 688.991 114.078C686.589 115.893 683.733 116.801 680.423 116.801C674.924 116.801 670.707 114.625 667.771 110.274V133.537H662.365V76.001ZM679.021 112.076C681.664 112.076 683.866 111.355 685.628 109.914C687.416 108.446 688.724 106.497 689.552 104.068C690.406 101.639 690.833 98.9701 690.833 96.0605C690.833 93.1243 690.406 90.4417 689.552 88.0127C688.724 85.5837 687.416 83.6484 685.628 82.207C683.866 80.7389 681.664 80.0049 679.021 80.0049C676.379 80.0049 674.177 80.7389 672.415 82.207C670.68 83.6484 669.399 85.5837 668.571 88.0127C667.771 90.415 667.37 93.0977 667.37 96.0605C667.37 98.9967 667.771 101.679 668.571 104.108C669.399 106.511 670.68 108.446 672.415 109.914C674.177 111.355 676.379 112.076 679.021 112.076ZM708.33 76.001H713.855V83.208C714.683 80.859 716.084 78.9505 718.06 77.4824C720.035 75.9876 722.29 75.2402 724.826 75.2402C727.762 75.2402 730.325 75.9609 732.514 77.4023C734.702 78.8171 736.291 80.8857 737.278 83.6084C738.479 80.8857 740.108 78.8304 742.163 77.4424C744.245 76.0277 746.688 75.3203 749.49 75.3203C752.693 75.3203 755.323 76.0544 757.378 77.5225C759.433 78.9639 760.928 80.9124 761.862 83.3682C762.797 85.7972 763.264 88.5332 763.264 91.5762V116H757.778V92.2168C757.778 88.8268 757.111 85.9173 755.776 83.4883C754.442 81.0592 752.186 79.8447 749.01 79.8447C746.848 79.8447 744.966 80.472 743.364 81.7266C741.789 82.9811 740.588 84.6227 739.761 86.6514C738.933 88.68 738.52 90.8421 738.52 93.1377V116H733.034V92.0566C733.034 88.64 732.38 85.7572 731.072 83.4082C729.764 81.0326 727.522 79.8447 724.346 79.8447C722.184 79.8447 720.302 80.472 718.7 81.7266C717.125 82.9811 715.924 84.6227 715.097 86.6514C714.269 88.68 713.855 90.8421 713.855 93.1377V116H708.33V76.001ZM785.846 116.801C783.604 116.801 781.535 116.32 779.64 115.359C777.771 114.372 776.29 112.997 775.195 111.235C774.101 109.474 773.554 107.458 773.554 105.189C773.554 101.132 774.808 98.1426 777.317 96.2207C779.853 94.2721 783.323 93.2979 787.728 93.2979H800.42C800.42 88.9469 799.619 85.6637 798.018 83.4482C796.416 81.2061 793.693 80.085 789.85 80.085C787.581 80.085 785.485 80.6589 783.563 81.8066C781.668 82.9277 780.16 84.3158 779.039 85.9707L775.115 82.8877C776.904 80.3786 779.026 78.4967 781.481 77.2422C783.937 75.9609 786.833 75.3203 790.17 75.3203C793.373 75.3203 796.109 75.9876 798.378 77.3223C800.674 78.6302 802.409 80.4987 803.583 82.9277C804.757 85.3301 805.345 88.1595 805.345 91.416V116H800.78L800.58 108.793C798.792 111.516 796.71 113.531 794.334 114.839C791.985 116.147 789.156 116.801 785.846 116.801ZM787.407 111.836C789.89 111.836 792.118 111.155 794.094 109.794C796.096 108.433 797.644 106.671 798.738 104.509C799.859 102.347 800.42 100.131 800.42 97.8623H788.288C785.672 97.8623 783.497 98.5029 781.762 99.7842C780.053 101.039 779.199 102.84 779.199 105.189C779.199 107.538 779.973 109.233 781.521 110.274C783.096 111.315 785.058 111.836 787.407 111.836ZM819.158 76.001H824.684V91.8164H845.424V76.001H850.909V116H845.424V96.2207H824.684V116H819.158V76.001ZM876.774 116.921C873.598 116.921 870.995 116.16 868.967 114.639C866.938 113.117 865.457 111.075 864.522 108.513C863.615 105.95 863.161 103.067 863.161 99.8643V76.001H868.566V100.024C868.566 103.441 869.207 106.351 870.488 108.753C871.796 111.129 874.025 112.316 877.175 112.316C879.364 112.316 881.392 111.689 883.261 110.435C885.156 109.18 886.664 107.525 887.785 105.47C888.906 103.414 889.467 101.266 889.467 99.0234V76.001H894.872V116H889.467V109.033C888.933 110.208 888.052 111.409 886.824 112.637C885.623 113.838 884.155 114.852 882.42 115.68C880.685 116.507 878.803 116.921 876.774 116.921ZM924.661 116.48C920.817 116.48 917.561 115.573 914.892 113.758C912.249 111.943 910.26 109.514 908.926 106.471C907.618 103.401 906.964 99.9844 906.964 96.2207C906.964 92.5104 907.618 89.0804 908.926 85.9307C910.234 82.7809 912.169 80.2585 914.731 78.3633C917.294 76.4414 920.39 75.4805 924.021 75.4805C929.973 75.4805 934.244 77.4424 936.833 81.3662C939.422 85.29 940.717 90.3617 940.717 96.5811C940.717 96.7946 940.69 97.0348 940.637 97.3018C940.61 97.5687 940.583 97.7555 940.557 97.8623H912.689C912.636 100.398 913.05 102.72 913.931 104.829C914.838 106.938 916.186 108.619 917.975 109.874C919.79 111.129 921.992 111.756 924.581 111.756C927.117 111.756 929.279 111.449 931.067 110.835C932.882 110.194 934.551 109.073 936.072 107.472L939.836 110.435C937.62 112.597 935.325 114.145 932.949 115.079C930.6 116.013 927.838 116.48 924.661 116.48ZM935.552 93.2979C935.605 90.7354 935.205 88.4932 934.351 86.5713C933.496 84.6227 932.202 83.1146 930.467 82.0469C928.732 80.9525 926.583 80.4053 924.021 80.4053C921.591 80.4053 919.536 80.9792 917.854 82.127C916.173 83.248 914.905 84.7829 914.051 86.7314C913.197 88.68 912.743 90.8688 912.689 93.2979H935.552ZM1004.22 116.921C1003.23 116.921 1002.28 116.587 1001.38 115.92C1000.47 115.226 999.734 114.278 999.174 113.077C998.64 111.876 998.373 110.528 998.373 109.033C997.839 110.208 996.958 111.409 995.73 112.637C994.529 113.838 993.061 114.852 991.326 115.68C989.591 116.507 987.709 116.921 985.681 116.921C982.504 116.921 979.888 116.16 977.833 114.639C975.804 113.117 974.323 111.075 973.389 108.513C972.454 105.95 971.987 103.067 971.987 99.8643V76.001H977.473V100.024C977.473 103.441 978.113 106.351 979.395 108.753C980.702 111.129 982.931 112.316 986.081 112.316C988.27 112.316 990.299 111.689 992.167 110.435C994.062 109.18 995.57 107.525 996.691 105.47C997.812 103.414 998.373 101.266 998.373 99.0234V76.001H1003.9V107.632C1003.9 109.634 1004.45 111.155 1005.54 112.196C1006.63 113.211 1008.02 113.718 1009.7 113.718L1008.3 128.292H1004.22V116.921ZM1029.08 116.921C1025.91 116.921 1023.3 116.16 1021.28 114.639C1019.25 113.117 1017.77 111.075 1016.83 108.513C1015.92 105.95 1015.47 103.067 1015.47 99.8643V76.001H1020.88V100.024C1020.88 103.441 1021.52 106.351 1022.8 108.753C1024.1 111.129 1026.33 112.316 1029.48 112.316C1031.67 112.316 1033.7 111.689 1035.57 110.435C1037.46 109.18 1038.97 107.525 1040.09 105.47C1041.21 103.414 1041.78 101.266 1041.78 99.0234V76.001H1047.18V116H1041.78V109.033C1041.24 110.208 1040.36 111.409 1039.13 112.637C1037.93 113.838 1036.46 114.852 1034.73 115.68C1032.99 116.507 1031.11 116.921 1029.08 116.921ZM1079.41 116.561C1078.61 116.721 1077.74 116.801 1076.81 116.801C1073.21 116.801 1069.98 115.88 1067.12 114.038C1064.29 112.196 1062.08 109.701 1060.47 106.551C1058.9 103.401 1058.11 99.931 1058.11 96.1406C1058.11 92.3503 1058.9 88.8802 1060.47 85.7305C1062.08 82.5807 1064.29 80.085 1067.12 78.2432C1069.98 76.4014 1073.21 75.4805 1076.81 75.4805C1077.74 75.4805 1078.61 75.5605 1079.41 75.7207V59.4248H1084.94V75.7207C1085.74 75.5605 1086.61 75.4805 1087.54 75.4805C1091.14 75.4805 1094.36 76.4014 1097.19 78.2432C1100.05 80.085 1102.26 82.5807 1103.84 85.7305C1105.44 88.8802 1106.24 92.3503 1106.24 96.1406C1106.24 99.931 1105.44 103.401 1103.84 106.551C1102.26 109.701 1100.05 112.196 1097.19 114.038C1094.36 115.88 1091.14 116.801 1087.54 116.801C1086.61 116.801 1085.74 116.721 1084.94 116.561V133.217H1079.41V116.561ZM1076.81 111.996C1078.01 111.996 1078.88 111.943 1079.41 111.836V80.5654C1078.61 80.4053 1077.74 80.3252 1076.81 80.3252C1073.93 80.3252 1071.54 81.0459 1069.64 82.4873C1067.77 83.9287 1066.41 85.8372 1065.56 88.2129C1064.7 90.5885 1064.28 93.2311 1064.28 96.1406C1064.28 99.0501 1064.7 101.706 1065.56 104.108C1066.41 106.484 1067.77 108.393 1069.64 109.834C1071.54 111.275 1073.93 111.996 1076.81 111.996ZM1087.54 111.996C1090.42 111.996 1092.8 111.275 1094.67 109.834C1096.56 108.393 1097.94 106.484 1098.79 104.108C1099.65 101.706 1100.07 99.0501 1100.07 96.1406C1100.07 93.2311 1099.65 90.5885 1098.79 88.2129C1097.94 85.8372 1096.56 83.9287 1094.67 82.4873C1092.8 81.0459 1090.42 80.3252 1087.54 80.3252C1086.61 80.3252 1085.74 80.4053 1084.94 80.5654V111.836C1085.47 111.943 1086.34 111.996 1087.54 111.996ZM1116.89 76.001H1122.29V81.7266C1125.2 77.349 1129.42 75.1602 1134.95 75.1602C1138.26 75.1602 1141.11 76.0677 1143.51 77.8828C1145.94 79.6979 1147.79 82.1937 1149.04 85.3701C1150.29 88.5199 1150.92 92.0566 1150.92 95.9805C1150.92 99.9043 1150.29 103.454 1149.04 106.631C1147.79 109.781 1145.94 112.263 1143.51 114.078C1141.11 115.893 1138.26 116.801 1134.95 116.801C1129.45 116.801 1125.23 114.625 1122.29 110.274V133.537H1116.89V76.001ZM1133.54 112.076C1136.19 112.076 1138.39 111.355 1140.15 109.914C1141.94 108.446 1143.25 106.497 1144.08 104.068C1144.93 101.639 1145.36 98.9701 1145.36 96.0605C1145.36 93.1243 1144.93 90.4417 1144.08 88.0127C1143.25 85.5837 1141.94 83.6484 1140.15 82.207C1138.39 80.7389 1136.19 80.0049 1133.54 80.0049C1130.9 80.0049 1128.7 80.7389 1126.94 82.207C1125.2 83.6484 1123.92 85.5837 1123.09 88.0127C1122.29 90.415 1121.89 93.0977 1121.89 96.0605C1121.89 98.9967 1122.29 101.679 1123.09 104.108C1123.92 106.511 1125.2 108.446 1126.94 109.914C1128.7 111.355 1130.9 112.076 1133.54 112.076Z" fill="#FF0000"/>
</svg>
