<svg width="1280" height="745" viewBox="0 0 1280 745" fill="none" xmlns="http://www.w3.org/2000/svg">
<g clip-path="url(#clip0_14_2)">
<rect width="1280" height="745" fill="white"/>
<path d="M-16 17H1280" stroke="#FF0000" stroke-width="10"/>
<path d="M437 167L467.5 206.5" stroke="#FF0000" stroke-width="10"/>
<rect x="636" y="411.823" width="237" height="143" fill="white" stroke="#FF0000" stroke-width="10"/>
<rect x="292.955" y="545.231" width="237" height="143" transform="rotate(-12.3712 292.955 545.231)" fill="white" stroke="#FF0000" stroke-width="10"/>
<rect x="872" y="411.5" width="237" height="145" fill="white" stroke="#FF0000" stroke-width="10"/>
<rect x="636" y="552.5" width="237" height="143" fill="white" stroke="#FF0000" stroke-width="10"/>
<rect x="872" y="552.5" width="237" height="143" fill="white" stroke="#FF0000" stroke-width="10"/>
<path d="M333.132 647.151C334.608 646.827 335.979 646.923 337.243 647.437C338.505 647.94 339.563 648.77 340.417 649.926C341.279 651.069 341.88 652.413 342.219 653.958C342.555 655.492 342.532 656.973 342.149 658.4C341.767 659.828 341.069 661.049 340.055 662.063C339.04 663.065 337.782 663.731 336.282 664.06C334.794 664.386 333.396 664.303 332.089 663.81C330.792 663.315 329.689 662.495 328.778 661.351C327.878 660.205 327.259 658.859 326.92 657.313L325.572 651.167C325.15 649.244 325.169 647.632 325.627 646.332C326.097 645.029 326.805 643.962 327.751 643.13C329.554 641.559 331.877 639.928 334.721 638.236L335.215 640.486L333.88 641.372C332.581 642.233 331.584 642.914 330.89 643.414C330.207 643.911 329.625 644.399 329.141 644.877C328.347 645.687 327.842 646.554 327.624 647.477C327.418 648.398 327.472 649.574 327.786 651.005L327.895 651.503C328.302 650.514 328.957 649.614 329.859 648.805C330.77 647.981 331.861 647.43 333.132 647.151ZM335.861 662.137C337.063 661.873 337.989 661.364 338.639 660.61C339.287 659.844 339.681 658.936 339.823 657.885C339.976 656.831 339.922 655.71 339.661 654.519C339.402 653.34 338.984 652.31 338.407 651.429C337.839 650.534 337.101 649.88 336.195 649.467C335.286 649.042 334.23 648.962 333.029 649.225C331.838 649.486 330.919 650 330.271 650.766C329.632 651.518 329.242 652.419 329.101 653.47C328.957 654.509 329.014 655.619 329.273 656.798C329.534 657.988 329.948 659.031 330.517 659.926C331.085 660.821 331.818 661.482 332.715 661.909C333.622 662.322 334.67 662.398 335.861 662.137ZM346.901 658.978C348.438 657.453 349.764 655.974 350.877 654.542C351.991 653.11 352.862 651.833 353.492 650.711C354.352 649.215 355.002 647.969 355.443 646.972C355.885 645.976 356.177 644.958 356.321 643.918C356.474 642.865 356.42 641.743 356.159 640.553C355.96 639.648 355.605 638.904 355.093 638.321C354.579 637.726 353.951 637.324 353.209 637.115C352.465 636.894 351.658 636.879 350.788 637.07C349.884 637.268 349.128 637.68 348.521 638.305C347.912 638.918 347.488 639.719 347.249 640.707C347.021 641.693 347.011 642.823 347.218 644.097L344.689 644.382C344.32 642.699 344.304 641.203 344.641 639.894C344.986 638.57 345.648 637.483 346.625 636.633C347.611 635.769 348.86 635.171 350.371 634.84C351.802 634.526 353.101 634.541 354.268 634.885C355.446 635.226 356.433 635.868 357.227 636.809C358.019 637.739 358.572 638.92 358.886 640.35C359.252 642.022 359.138 643.768 358.542 645.591C357.957 647.411 356.902 649.52 355.376 651.918C354.381 653.504 353.542 654.714 352.861 655.547C352.191 656.378 351.464 657.191 350.679 657.987L350.209 658.468L363.481 655.557L363.937 657.635L347.402 661.261L346.901 658.978ZM366.578 654.662C368.115 653.137 369.44 651.658 370.554 650.226C371.667 648.794 372.539 647.518 373.169 646.396C374.028 644.899 374.679 643.653 375.12 642.656C375.561 641.66 375.854 640.642 375.998 639.602C376.151 638.549 376.097 637.427 375.836 636.237C375.637 635.333 375.282 634.589 374.77 634.005C374.256 633.41 373.628 633.008 372.886 632.799C372.142 632.578 371.335 632.563 370.465 632.754C369.56 632.952 368.805 633.364 368.198 633.989C367.589 634.602 367.165 635.403 366.925 636.392C366.698 637.377 366.688 638.507 366.895 639.781L364.366 640.066C363.997 638.384 363.981 636.887 364.318 635.578C364.663 634.254 365.325 633.168 366.302 632.317C367.288 631.453 368.537 630.855 370.048 630.524C371.478 630.21 372.777 630.225 373.945 630.569C375.123 630.91 376.11 631.552 376.904 632.493C377.696 633.423 378.249 634.604 378.563 636.035C378.929 637.706 378.814 639.453 378.218 641.275C377.634 643.095 376.579 645.204 375.053 647.602C374.057 649.188 373.219 650.398 372.538 651.231C371.868 652.062 371.141 652.875 370.356 653.671L369.885 654.152L383.158 651.241L383.613 653.319L367.079 656.945L366.578 654.662ZM396.801 658.308C395.313 658.635 393.971 658.641 392.774 658.328C391.592 658.023 390.453 657.397 389.357 656.45L390.893 654.673C391.288 655.055 391.778 655.397 392.36 655.701C392.957 656.014 393.593 656.235 394.269 656.362C394.945 656.49 395.597 656.485 396.227 656.347C397.246 656.123 398.053 655.7 398.648 655.078C399.257 654.464 399.65 653.712 399.827 652.822C400.015 651.929 400.006 650.959 399.8 649.912L399.232 647.32C398.393 649.459 396.789 650.789 394.42 651.308C392.989 651.622 391.656 651.507 390.421 650.962C389.194 650.403 388.147 649.511 387.278 648.286C386.419 647.047 385.806 645.591 385.439 643.92C385.073 642.249 385.022 640.677 385.286 639.203C385.56 637.715 386.138 636.467 387.02 635.457C387.911 634.434 389.072 633.765 390.503 633.452C392.861 632.934 394.876 633.476 396.547 635.077L396.008 632.622L398.36 632.106L402.153 649.396C402.482 650.896 402.487 652.262 402.17 653.496C401.864 654.726 401.25 655.755 400.327 656.581C399.419 657.416 398.243 657.992 396.801 658.308ZM394.576 649.15C395.71 648.902 396.581 648.387 397.189 647.606C397.806 646.81 398.174 645.86 398.291 644.754C398.418 643.635 398.343 642.446 398.067 641.187C397.788 639.916 397.357 638.799 396.774 637.835C396.202 636.869 395.469 636.154 394.575 635.69C393.693 635.223 392.686 635.114 391.552 635.363C390.419 635.612 389.538 636.135 388.909 636.933C388.292 637.728 387.916 638.692 387.78 639.826C387.654 640.945 387.729 642.134 388.005 643.393C388.279 644.641 388.707 645.747 389.29 646.711C389.885 647.672 390.629 648.385 391.523 648.848C392.425 649.298 393.443 649.399 394.576 649.15ZM414.445 654.816C413.403 655.045 412.478 655.122 411.67 655.047C410.862 654.972 410.12 654.787 409.443 654.492C408.778 654.194 408.018 653.767 407.164 653.21L408.546 651.467C409.28 652.134 410.068 652.585 410.912 652.82C411.767 653.052 412.715 653.054 413.757 652.826C415.451 652.454 416.584 651.606 417.157 650.28C417.744 648.964 417.829 647.355 417.413 645.455C417.154 644.276 416.722 643.345 416.116 642.662C415.52 641.965 414.826 641.512 414.036 641.301C413.255 641.076 412.447 641.056 411.611 641.239L408.091 642.011L407.643 639.968L412.004 639.011C412.535 638.751 412.981 638.377 413.342 637.89C413.7 637.392 413.942 636.853 414.067 636.273C414.201 635.68 414.211 635.126 414.098 634.611C413.782 633.169 413.207 632.215 412.373 631.75C411.537 631.274 410.386 631.196 408.921 631.517C407.971 631.726 407.188 632.149 406.572 632.788C405.956 633.427 405.529 634.187 405.29 635.067L403.307 634.476C403.65 633.249 404.263 632.215 405.146 631.374C406.027 630.521 407.148 629.945 408.51 629.646C410.605 629.186 412.343 629.315 413.724 630.032C415.116 630.746 416.031 632.099 416.468 634.091C416.581 634.606 416.593 635.209 416.505 635.901C416.414 636.58 416.177 637.25 415.794 637.91C415.411 638.57 414.862 639.104 414.148 639.513C415.079 639.381 415.939 639.558 416.73 640.044C417.518 640.519 418.181 641.19 418.719 642.056C419.256 642.921 419.637 643.864 419.86 644.882C420.225 646.542 420.247 648.067 419.928 649.457C419.609 650.846 418.975 652.005 418.027 652.933C417.093 653.87 415.899 654.497 414.445 654.816ZM431.988 643.068C429.904 643.525 428.056 643.277 426.443 642.323C424.828 641.357 423.514 639.99 422.502 638.22C421.49 636.451 420.763 634.559 420.322 632.544C419.877 630.518 419.738 628.491 419.905 626.463C420.07 624.423 420.662 622.638 421.682 621.106C422.711 619.561 424.238 618.566 426.264 618.122C428.153 617.707 429.89 617.944 431.477 618.832C433.075 619.717 434.422 621.047 435.519 622.822C436.616 624.597 437.406 626.583 437.888 628.781C438.363 630.944 438.475 633.043 438.225 635.078C437.976 637.112 437.326 638.856 436.278 640.31C435.238 641.75 433.808 642.669 431.988 643.068ZM431.391 640.842C432.834 640.525 433.896 639.734 434.578 638.469C435.258 637.192 435.62 635.727 435.666 634.073C435.722 632.417 435.579 630.805 435.235 629.237C434.881 627.623 434.328 626.089 433.577 624.634C432.838 623.176 431.885 622.035 430.721 621.211C429.568 620.384 428.253 620.133 426.776 620.457C425.288 620.783 424.189 621.57 423.479 622.818C422.78 624.063 422.394 625.503 422.321 627.139C422.259 628.772 422.406 630.395 422.76 632.009C423.114 633.623 423.667 635.163 424.421 636.63C425.174 638.096 426.142 639.252 427.323 640.096C428.513 640.927 429.869 641.176 431.391 640.842ZM452.248 638.624C450.772 638.948 449.363 638.981 448.023 638.723C446.694 638.463 445.554 637.885 444.602 636.99C443.661 636.093 443.026 634.894 442.697 633.395C442.368 631.895 442.455 630.515 442.958 629.253C443.47 627.977 444.366 626.892 445.646 626C444.544 625.678 443.615 625.107 442.86 624.289C442.104 623.471 441.601 622.49 441.35 621.345C441.071 620.075 441.132 618.903 441.533 617.832C441.945 616.758 442.613 615.861 443.535 615.143C444.469 614.423 445.559 613.925 446.807 613.652C448.055 613.378 449.247 613.374 450.386 613.641C451.524 613.907 452.499 614.443 453.312 615.248C454.124 616.054 454.67 617.092 454.949 618.363C455.202 619.519 455.163 620.625 454.831 621.682C454.508 622.724 453.907 623.624 453.029 624.38C454.528 624.651 455.779 625.265 456.78 626.221C457.779 627.166 458.442 628.382 458.768 629.87C459.1 631.381 459.02 632.742 458.53 633.953C458.04 635.165 457.246 636.167 456.148 636.959C455.048 637.74 453.748 638.295 452.248 638.624ZM449.244 624.437C450.046 624.261 450.746 623.927 451.346 623.436C451.944 622.933 452.373 622.317 452.633 621.588C452.89 620.848 452.924 620.042 452.733 619.172C452.534 618.268 452.156 617.529 451.599 616.956C451.052 616.38 450.404 615.994 449.653 615.799C448.9 615.592 448.117 615.578 447.304 615.756C446.56 615.919 445.881 616.242 445.267 616.725C444.665 617.205 444.221 617.806 443.935 618.529C443.647 619.24 443.598 620.024 443.786 620.883C443.984 621.787 444.348 622.541 444.876 623.145C445.404 623.749 446.048 624.166 446.806 624.396C447.562 624.614 448.374 624.627 449.244 624.437ZM451.804 636.598C452.8 636.38 453.679 635.983 454.44 635.408C455.211 634.819 455.768 634.079 456.113 633.188C456.457 632.296 456.509 631.301 456.268 630.202C456.032 629.126 455.578 628.26 454.906 627.604C454.232 626.936 453.421 626.496 452.475 626.283C451.54 626.069 450.563 626.073 449.544 626.296C448.514 626.522 447.614 626.93 446.843 627.519C446.084 628.105 445.532 628.844 445.188 629.735C444.852 630.613 444.803 631.589 445.039 632.665C445.28 633.764 445.749 634.645 446.446 635.308C447.143 635.971 447.965 636.409 448.912 636.621C449.855 636.822 450.82 636.814 451.804 636.598Z" fill="#FF0000"/>
<path d="M467.012 304.377L67.2301 216L467.012 127.623V304.377Z" fill="white" stroke="#FF0000" stroke-width="11.7553"/>
<circle cx="512.973" cy="216.474" r="101.096" transform="rotate(-90 512.973 216.474)" fill="white" stroke="#FF0000" stroke-width="11.7553"/>
<path d="M894.85 527.352C892.436 527.352 890.396 526.789 888.732 525.664C887.068 524.527 885.826 522.998 885.006 521.076C884.197 519.143 883.793 516.975 883.793 514.572C883.793 512.17 884.197 510.002 885.006 508.068C885.826 506.135 887.062 504.6 888.715 503.463C890.367 502.326 892.4 501.758 894.814 501.758C897.111 501.758 899.115 502.314 900.826 503.428C902.537 504.541 903.855 506.17 904.781 508.314L902.443 509.281C901.939 507.5 901.002 506.193 899.631 505.361C898.271 504.518 896.654 504.096 894.779 504.096C892.869 504.096 891.281 504.564 890.016 505.502C888.75 506.428 887.818 507.67 887.221 509.229C886.623 510.775 886.324 512.498 886.324 514.396C886.324 516.377 886.623 518.17 887.221 519.775C887.818 521.369 888.756 522.641 890.033 523.59C891.311 524.539 892.916 525.014 894.85 525.014C896.666 525.014 898.213 524.598 899.49 523.766C900.779 522.934 901.764 521.609 902.443 519.793L904.816 520.777C903.914 522.922 902.602 524.557 900.879 525.682C899.156 526.795 897.146 527.352 894.85 527.352ZM914.203 526.93L907.506 509.439H910.178L915.363 524.082L920.426 509.439H923.098L913.781 534.559H911.32L914.203 526.93ZM935.209 510.16C936.721 510.16 938.039 510.547 939.164 511.32C940.289 512.082 941.145 513.119 941.73 514.432C942.328 515.732 942.627 517.174 942.627 518.756C942.627 520.326 942.287 521.768 941.607 523.08C940.928 524.393 939.984 525.436 938.777 526.209C937.57 526.971 936.199 527.352 934.664 527.352C933.141 527.352 931.793 526.971 930.621 526.209C929.461 525.447 928.559 524.41 927.914 523.098C927.281 521.785 926.965 520.338 926.965 518.756V512.463C926.965 510.494 927.328 508.924 928.055 507.752C928.793 506.58 929.713 505.689 930.814 505.08C932.912 503.932 935.531 502.836 938.672 501.793V504.096L937.178 504.676C935.725 505.238 934.605 505.689 933.82 506.029C933.047 506.369 932.373 506.721 931.799 507.084C930.85 507.705 930.17 508.443 929.76 509.299C929.361 510.154 929.162 511.314 929.162 512.779V513.289C929.771 512.41 930.604 511.672 931.658 511.074C932.725 510.465 933.908 510.16 935.209 510.16ZM934.664 525.383C935.895 525.383 936.908 525.084 937.705 524.486C938.502 523.877 939.082 523.074 939.445 522.078C939.82 521.082 940.008 519.975 940.008 518.756C940.008 517.549 939.82 516.453 939.445 515.469C939.082 514.473 938.502 513.676 937.705 513.078C936.908 512.469 935.895 512.164 934.664 512.164C933.445 512.164 932.438 512.469 931.641 513.078C930.855 513.676 930.281 514.473 929.918 515.469C929.555 516.453 929.373 517.549 929.373 518.756C929.373 519.975 929.555 521.082 929.918 522.078C930.281 523.074 930.855 523.877 931.641 524.486C932.438 525.084 933.445 525.383 934.664 525.383ZM956.021 510.16C957.533 510.16 958.852 510.547 959.977 511.32C961.102 512.082 961.957 513.119 962.543 514.432C963.141 515.732 963.439 517.174 963.439 518.756C963.439 520.326 963.1 521.768 962.42 523.08C961.74 524.393 960.797 525.436 959.59 526.209C958.383 526.971 957.012 527.352 955.477 527.352C953.953 527.352 952.605 526.971 951.434 526.209C950.273 525.447 949.371 524.41 948.727 523.098C948.094 521.785 947.777 520.338 947.777 518.756V512.463C947.777 510.494 948.141 508.924 948.867 507.752C949.605 506.58 950.525 505.689 951.627 505.08C953.725 503.932 956.344 502.836 959.484 501.793V504.096L957.99 504.676C956.537 505.238 955.418 505.689 954.633 506.029C953.859 506.369 953.186 506.721 952.611 507.084C951.662 507.705 950.982 508.443 950.572 509.299C950.174 510.154 949.975 511.314 949.975 512.779V513.289C950.584 512.41 951.416 511.672 952.471 511.074C953.537 510.465 954.721 510.16 956.021 510.16ZM955.477 525.383C956.707 525.383 957.721 525.084 958.518 524.486C959.314 523.877 959.895 523.074 960.258 522.078C960.633 521.082 960.82 519.975 960.82 518.756C960.82 517.549 960.633 516.453 960.258 515.469C959.895 514.473 959.314 513.676 958.518 513.078C957.721 512.469 956.707 512.164 955.477 512.164C954.258 512.164 953.25 512.469 952.453 513.078C951.668 513.676 951.094 514.473 950.73 515.469C950.367 516.453 950.186 517.549 950.186 518.756C950.186 519.975 950.367 521.082 950.73 522.078C951.094 523.074 951.668 523.877 952.453 524.486C953.25 525.084 954.258 525.383 955.477 525.383ZM975.727 527.352C974.133 527.352 972.709 526.947 971.455 526.139C970.213 525.33 969.246 524.234 968.555 522.852C967.863 521.469 967.518 519.945 967.518 518.281C967.518 516.617 967.863 515.094 968.555 513.711C969.246 512.328 970.213 511.232 971.455 510.424C972.709 509.615 974.133 509.211 975.727 509.211C977.309 509.211 978.727 509.615 979.98 510.424C981.234 511.232 982.213 512.334 982.916 513.729C983.619 515.111 983.971 516.629 983.971 518.281C983.971 519.945 983.619 521.469 982.916 522.852C982.213 524.234 981.234 525.33 979.98 526.139C978.727 526.947 977.309 527.352 975.727 527.352ZM975.727 525.242C977.004 525.242 978.053 524.926 978.873 524.293C979.693 523.66 980.291 522.822 980.666 521.779C981.041 520.725 981.229 519.559 981.229 518.281C981.229 517.016 981.041 515.861 980.666 514.818C980.291 513.764 979.693 512.92 978.873 512.287C978.053 511.654 977.004 511.338 975.727 511.338C974.461 511.338 973.418 511.654 972.598 512.287C971.777 512.92 971.18 513.764 970.805 514.818C970.43 515.861 970.242 517.016 970.242 518.281C970.242 519.559 970.43 520.719 970.805 521.762C971.18 522.805 971.777 523.648 972.598 524.293C973.418 524.926 974.461 525.242 975.727 525.242ZM989.191 509.439H991.617V512.604C991.98 511.572 992.596 510.734 993.463 510.09C994.33 509.434 995.32 509.105 996.434 509.105C997.723 509.105 998.848 509.422 999.809 510.055C1000.77 510.676 1001.47 511.584 1001.9 512.779C1002.43 511.584 1003.14 510.682 1004.04 510.072C1004.96 509.451 1006.03 509.141 1007.26 509.141C1008.67 509.141 1009.82 509.463 1010.72 510.107C1011.63 510.74 1012.28 511.596 1012.69 512.674C1013.1 513.74 1013.31 514.941 1013.31 516.277V527H1010.9V516.559C1010.9 515.07 1010.61 513.793 1010.02 512.727C1009.44 511.66 1008.45 511.127 1007.05 511.127C1006.1 511.127 1005.28 511.402 1004.57 511.953C1003.88 512.504 1003.35 513.225 1002.99 514.115C1002.63 515.006 1002.45 515.955 1002.45 516.963V527H1000.04V516.488C1000.04 514.988 999.75 513.723 999.176 512.691C998.602 511.648 997.617 511.127 996.223 511.127C995.273 511.127 994.447 511.402 993.744 511.953C993.053 512.504 992.525 513.225 992.162 514.115C991.799 515.006 991.617 515.955 991.617 516.963V527H989.191V509.439ZM1024.01 527.404C1022.62 527.404 1021.48 527.07 1020.59 526.402C1019.7 525.734 1019.04 524.838 1018.63 523.713C1018.24 522.588 1018.04 521.322 1018.04 519.916V509.439H1020.41V519.986C1020.41 521.486 1020.69 522.764 1021.25 523.818C1021.83 524.861 1022.81 525.383 1024.19 525.383C1025.15 525.383 1026.04 525.107 1026.86 524.557C1027.69 524.006 1028.36 523.279 1028.85 522.377C1029.34 521.475 1029.59 520.531 1029.59 519.547V509.439H1031.96V527H1029.59V523.941C1029.35 524.457 1028.96 524.984 1028.43 525.523C1027.9 526.051 1027.25 526.496 1026.49 526.859C1025.73 527.223 1024.9 527.404 1024.01 527.404ZM1038.55 509.439H1040.98V516.383H1050.08V509.439H1052.49V527H1050.08V518.316H1040.98V527H1038.55V509.439Z" fill="#FF0000"/>
<path d="M894.85 670.352C892.436 670.352 890.396 669.789 888.732 668.664C887.068 667.527 885.826 665.998 885.006 664.076C884.197 662.143 883.793 659.975 883.793 657.572C883.793 655.17 884.197 653.002 885.006 651.068C885.826 649.135 887.062 647.6 888.715 646.463C890.367 645.326 892.4 644.758 894.814 644.758C897.111 644.758 899.115 645.314 900.826 646.428C902.537 647.541 903.855 649.17 904.781 651.314L902.443 652.281C901.939 650.5 901.002 649.193 899.631 648.361C898.271 647.518 896.654 647.096 894.779 647.096C892.869 647.096 891.281 647.564 890.016 648.502C888.75 649.428 887.818 650.67 887.221 652.229C886.623 653.775 886.324 655.498 886.324 657.396C886.324 659.377 886.623 661.17 887.221 662.775C887.818 664.369 888.756 665.641 890.033 666.59C891.311 667.539 892.916 668.014 894.85 668.014C896.666 668.014 898.213 667.598 899.49 666.766C900.779 665.934 901.764 664.609 902.443 662.793L904.816 663.777C903.914 665.922 902.602 667.557 900.879 668.682C899.156 669.795 897.146 670.352 894.85 670.352ZM917.596 670.352C915.791 670.352 914.32 670.064 913.184 669.49C912.047 668.904 911.197 667.967 910.635 666.678C910.084 665.377 909.809 663.643 909.809 661.475V652.756C909.809 650.271 910.406 648.326 911.602 646.92C912.797 645.502 914.66 644.793 917.191 644.793C919.359 644.793 921.07 645.297 922.324 646.305C923.578 647.301 924.205 648.812 924.205 650.84C924.205 651.344 924.07 651.924 923.801 652.58C923.543 653.236 923.139 653.852 922.588 654.426C922.037 654.988 921.369 655.393 920.584 655.639C921.521 655.709 922.336 656.066 923.027 656.711C923.719 657.344 924.246 658.146 924.609 659.119C924.973 660.092 925.154 661.088 925.154 662.107C925.154 663.795 924.838 665.26 924.205 666.502C923.584 667.744 922.705 668.699 921.568 669.367C920.432 670.023 919.107 670.352 917.596 670.352ZM917.332 668.277C919.23 668.277 920.566 667.75 921.34 666.695C922.125 665.641 922.518 664.129 922.518 662.16C922.518 660.953 922.295 659.945 921.85 659.137C921.416 658.328 920.836 657.736 920.109 657.361C919.383 656.975 918.592 656.781 917.736 656.781C917.033 656.781 916.383 656.852 915.785 656.992C915.188 657.133 914.637 657.414 914.133 657.836V655.744C915.07 655.182 916.559 654.859 918.598 654.777C919.266 654.754 919.822 654.537 920.268 654.127C920.725 653.705 921.059 653.195 921.27 652.598C921.48 652 921.586 651.414 921.586 650.84C921.586 649.527 921.217 648.555 920.479 647.922C919.752 647.277 918.656 646.955 917.191 646.955C915.902 646.955 914.895 647.172 914.168 647.605C913.441 648.027 912.932 648.637 912.639 649.434C912.357 650.23 912.217 651.232 912.217 652.439V661.475C912.217 663.291 912.387 664.686 912.727 665.658C913.078 666.631 913.617 667.311 914.344 667.697C915.07 668.084 916.066 668.277 917.332 668.277ZM935.209 670.404C933.814 670.404 932.672 670.07 931.781 669.402C930.891 668.734 930.24 667.838 929.83 666.713C929.432 665.588 929.232 664.322 929.232 662.916V652.439H931.605V662.986C931.605 664.486 931.887 665.764 932.449 666.818C933.023 667.861 934.002 668.383 935.385 668.383C936.346 668.383 937.236 668.107 938.057 667.557C938.889 667.006 939.551 666.279 940.043 665.377C940.535 664.475 940.781 663.531 940.781 662.547V652.439H943.154V670H940.781V666.941C940.547 667.457 940.16 667.984 939.621 668.523C939.094 669.051 938.449 669.496 937.688 669.859C936.926 670.223 936.1 670.404 935.209 670.404ZM956.619 677.699C955.096 677.699 953.783 677.418 952.682 676.855C951.592 676.305 950.613 675.449 949.746 674.289L951.627 672.883C951.932 673.34 952.336 673.779 952.84 674.201C953.355 674.635 953.93 674.986 954.562 675.256C955.195 675.525 955.834 675.66 956.479 675.66C957.521 675.66 958.4 675.42 959.115 674.939C959.842 674.471 960.387 673.82 960.75 672.988C961.125 672.156 961.324 671.207 961.348 670.141V667.486C960.07 669.396 958.219 670.352 955.793 670.352C954.328 670.352 953.051 669.953 951.961 669.156C950.883 668.348 950.051 667.252 949.465 665.869C948.891 664.475 948.604 662.922 948.604 661.211C948.604 659.5 948.891 657.953 949.465 656.57C950.051 655.176 950.883 654.08 951.961 653.283C953.051 652.475 954.328 652.07 955.793 652.07C958.207 652.07 960.059 653.031 961.348 654.953V652.439H963.756V670.141C963.756 671.676 963.469 673.012 962.895 674.148C962.332 675.285 961.512 676.158 960.434 676.768C959.367 677.389 958.096 677.699 956.619 677.699ZM956.408 668.277C957.568 668.277 958.529 667.961 959.291 667.328C960.064 666.684 960.627 665.834 960.979 664.779C961.342 663.713 961.523 662.535 961.523 661.246C961.523 659.945 961.342 658.762 960.979 657.695C960.627 656.629 960.064 655.773 959.291 655.129C958.529 654.484 957.568 654.162 956.408 654.162C955.248 654.162 954.275 654.484 953.49 655.129C952.717 655.773 952.143 656.635 951.768 657.713C951.404 658.779 951.223 659.957 951.223 661.246C951.223 662.523 951.404 663.695 951.768 664.762C952.143 665.828 952.717 666.684 953.49 667.328C954.275 667.961 955.248 668.277 956.408 668.277ZM974.672 669.93L967.975 652.439H970.646L975.832 667.082L980.895 652.439H983.566L974.25 677.559H971.789L974.672 669.93ZM987.504 652.439H989.93V659.383H999.035V652.439H1001.44V670H999.035V661.316H989.93V670H987.504V652.439ZM1014.96 670.352C1013.37 670.352 1011.94 669.947 1010.69 669.139C1009.45 668.33 1008.48 667.234 1007.79 665.852C1007.1 664.469 1006.75 662.945 1006.75 661.281C1006.75 659.617 1007.1 658.094 1007.79 656.711C1008.48 655.328 1009.45 654.232 1010.69 653.424C1011.94 652.615 1013.37 652.211 1014.96 652.211C1016.54 652.211 1017.96 652.615 1019.21 653.424C1020.47 654.232 1021.45 655.334 1022.15 656.729C1022.85 658.111 1023.21 659.629 1023.21 661.281C1023.21 662.945 1022.85 664.469 1022.15 665.852C1021.45 667.234 1020.47 668.33 1019.21 669.139C1017.96 669.947 1016.54 670.352 1014.96 670.352ZM1014.96 668.242C1016.24 668.242 1017.29 667.926 1018.11 667.293C1018.93 666.66 1019.53 665.822 1019.9 664.779C1020.28 663.725 1020.46 662.559 1020.46 661.281C1020.46 660.016 1020.28 658.861 1019.9 657.818C1019.53 656.764 1018.93 655.92 1018.11 655.287C1017.29 654.654 1016.24 654.338 1014.96 654.338C1013.7 654.338 1012.65 654.654 1011.83 655.287C1011.01 655.92 1010.41 656.764 1010.04 657.818C1009.66 658.861 1009.48 660.016 1009.48 661.281C1009.48 662.559 1009.66 663.719 1010.04 664.762C1010.41 665.805 1011.01 666.648 1011.83 667.293C1012.65 667.926 1013.7 668.242 1014.96 668.242ZM1036.14 670.352C1034.34 670.352 1032.87 670.064 1031.73 669.49C1030.59 668.904 1029.74 667.967 1029.18 666.678C1028.63 665.377 1028.36 663.643 1028.36 661.475V652.756C1028.36 650.271 1028.95 648.326 1030.15 646.92C1031.34 645.502 1033.21 644.793 1035.74 644.793C1037.91 644.793 1039.62 645.297 1040.87 646.305C1042.12 647.301 1042.75 648.812 1042.75 650.84C1042.75 651.344 1042.62 651.924 1042.35 652.58C1042.09 653.236 1041.69 653.852 1041.13 654.426C1040.58 654.988 1039.92 655.393 1039.13 655.639C1040.07 655.709 1040.88 656.066 1041.57 656.711C1042.27 657.344 1042.79 658.146 1043.16 659.119C1043.52 660.092 1043.7 661.088 1043.7 662.107C1043.7 663.795 1043.38 665.26 1042.75 666.502C1042.13 667.744 1041.25 668.699 1040.12 669.367C1038.98 670.023 1037.65 670.352 1036.14 670.352ZM1035.88 668.277C1037.78 668.277 1039.11 667.75 1039.89 666.695C1040.67 665.641 1041.06 664.129 1041.06 662.16C1041.06 660.953 1040.84 659.945 1040.4 659.137C1039.96 658.328 1039.38 657.736 1038.66 657.361C1037.93 656.975 1037.14 656.781 1036.28 656.781C1035.58 656.781 1034.93 656.852 1034.33 656.992C1033.73 657.133 1033.18 657.414 1032.68 657.836V655.744C1033.62 655.182 1035.11 654.859 1037.14 654.777C1037.81 654.754 1038.37 654.537 1038.81 654.127C1039.27 653.705 1039.61 653.195 1039.82 652.598C1040.03 652 1040.13 651.414 1040.13 650.84C1040.13 649.527 1039.76 648.555 1039.03 647.922C1038.3 647.277 1037.2 646.955 1035.74 646.955C1034.45 646.955 1033.44 647.172 1032.71 647.605C1031.99 648.027 1031.48 648.637 1031.19 649.434C1030.9 650.23 1030.76 651.232 1030.76 652.439V661.475C1030.76 663.291 1030.93 664.686 1031.27 665.658C1031.62 666.631 1032.16 667.311 1032.89 667.697C1033.62 668.084 1034.61 668.277 1035.88 668.277ZM1053.76 670.404C1052.36 670.404 1051.22 670.07 1050.33 669.402C1049.44 668.734 1048.79 667.838 1048.38 666.713C1047.98 665.588 1047.78 664.322 1047.78 662.916V652.439H1050.15V662.986C1050.15 664.486 1050.43 665.764 1051 666.818C1051.57 667.861 1052.55 668.383 1053.93 668.383C1054.89 668.383 1055.78 668.107 1056.6 667.557C1057.44 667.006 1058.1 666.279 1058.59 665.377C1059.08 664.475 1059.33 663.531 1059.33 662.547V652.439H1061.7V670H1059.33V666.941C1059.09 667.457 1058.71 667.984 1058.17 668.523C1057.64 669.051 1057 669.496 1056.23 669.859C1055.47 670.223 1054.65 670.404 1053.76 670.404ZM1078.08 662.266C1077.85 662.781 1077.47 663.309 1076.94 663.848C1076.41 664.375 1075.76 664.82 1074.99 665.184C1074.23 665.535 1073.4 665.711 1072.51 665.711C1071.12 665.711 1069.97 665.377 1069.07 664.709C1068.18 664.041 1067.53 663.145 1067.12 662.02C1066.71 660.895 1066.5 659.629 1066.5 658.223V652.439H1068.91V658.293C1068.91 659.805 1069.19 661.088 1069.75 662.143C1070.33 663.186 1071.3 663.707 1072.69 663.707C1073.65 663.707 1074.54 663.432 1075.36 662.881C1076.19 662.33 1076.85 661.604 1077.35 660.701C1077.84 659.799 1078.08 658.855 1078.08 657.871V652.439H1080.51V670H1078.08V662.266Z" fill="#FF0000"/>
<path d="M653.393 645.162H655.906V655.428H658.895L665.732 645.162H668.896L661.742 655.709C662.457 655.709 663.119 655.867 663.729 656.184C664.338 656.5 664.842 656.881 665.24 657.326C665.65 657.771 665.92 658.182 666.049 658.557L670.268 670H667.244L663.605 659.893C663.5 659.588 663.289 659.248 662.973 658.873C662.656 658.498 662.258 658.176 661.777 657.906C661.309 657.637 660.805 657.502 660.266 657.502H655.906V670H653.393V645.162ZM680.463 670.352C678.869 670.352 677.504 669.936 676.367 669.104C675.23 668.271 674.375 667.164 673.801 665.781C673.227 664.398 672.939 662.887 672.939 661.246C672.939 659.617 673.227 658.111 673.801 656.729C674.375 655.346 675.225 654.238 676.35 653.406C677.475 652.562 678.834 652.141 680.428 652.141C681.963 652.141 683.311 652.545 684.471 653.354C685.631 654.162 686.527 655.27 687.16 656.676L684.893 657.66C684.623 656.582 684.084 655.732 683.275 655.111C682.467 654.479 681.518 654.162 680.428 654.162C679.256 654.162 678.289 654.514 677.527 655.217C676.777 655.908 676.232 656.793 675.893 657.871C675.553 658.938 675.383 660.062 675.383 661.246C675.383 662.441 675.547 663.578 675.875 664.656C676.215 665.734 676.76 666.619 677.51 667.311C678.271 668.002 679.244 668.348 680.428 668.348C681.506 668.348 682.449 668.031 683.258 667.398C684.078 666.766 684.623 665.916 684.893 664.85L686.949 665.746C686.434 667.199 685.613 668.33 684.488 669.139C683.363 669.947 682.021 670.352 680.463 670.352ZM698.674 670.211C696.986 670.211 695.557 669.812 694.385 669.016C693.225 668.219 692.352 667.152 691.766 665.816C691.191 664.469 690.904 662.969 690.904 661.316C690.904 659.688 691.191 658.182 691.766 656.799C692.34 655.416 693.189 654.309 694.314 653.477C695.439 652.633 696.799 652.211 698.393 652.211C701.006 652.211 702.881 653.072 704.018 654.795C705.154 656.518 705.723 658.744 705.723 661.475C705.723 661.568 705.711 661.674 705.688 661.791C705.676 661.908 705.664 661.99 705.652 662.037H693.418C693.395 663.15 693.576 664.17 693.963 665.096C694.361 666.021 694.953 666.76 695.738 667.311C696.535 667.861 697.502 668.137 698.639 668.137C699.752 668.137 700.701 668.002 701.486 667.732C702.283 667.451 703.016 666.959 703.684 666.256L705.336 667.557C704.363 668.506 703.355 669.186 702.312 669.596C701.281 670.006 700.068 670.211 698.674 670.211ZM703.455 660.033C703.479 658.908 703.303 657.924 702.928 657.08C702.553 656.225 701.984 655.562 701.223 655.094C700.461 654.613 699.518 654.373 698.393 654.373C697.326 654.373 696.424 654.625 695.686 655.129C694.947 655.621 694.391 656.295 694.016 657.15C693.641 658.006 693.441 658.967 693.418 660.033H703.455ZM710.539 652.439H712.965V659.383H722.07V652.439H724.479V670H722.07V661.316H712.965V670H710.539V652.439ZM735.834 670.404C734.439 670.404 733.297 670.07 732.406 669.402C731.516 668.734 730.865 667.838 730.455 666.713C730.057 665.588 729.857 664.322 729.857 662.916V652.439H732.23V662.986C732.23 664.486 732.512 665.764 733.074 666.818C733.648 667.861 734.627 668.383 736.01 668.383C736.971 668.383 737.861 668.107 738.682 667.557C739.514 667.006 740.176 666.279 740.668 665.377C741.16 664.475 741.406 663.531 741.406 662.547V652.439H743.779V670H741.406V666.941C741.172 667.457 740.785 667.984 740.246 668.523C739.719 669.051 739.074 669.496 738.312 669.859C737.551 670.223 736.725 670.404 735.834 670.404ZM750.705 663.883C750.975 663.121 751.344 662.459 751.812 661.896C752.281 661.322 752.797 661.035 753.359 661.035C751.988 660.801 750.945 660.35 750.23 659.682C749.516 659.014 749.158 658 749.158 656.641C749.158 655.902 749.34 655.217 749.703 654.584C750.066 653.951 750.658 653.436 751.479 653.037C752.299 652.639 753.348 652.439 754.625 652.439H760.988V670H758.58V661.826H755.996C755.258 661.826 754.666 662.031 754.221 662.441C753.775 662.84 753.395 663.502 753.078 664.428L751.092 670H748.332L750.705 663.883ZM758.58 659.699V654.303H754.625C753.746 654.303 753.066 654.525 752.586 654.971C752.117 655.416 751.883 656.008 751.883 656.746C751.883 657.707 752.176 658.439 752.762 658.943C753.348 659.447 754.326 659.699 755.697 659.699H758.58Z" fill="#FF0000"/>
<path d="M664.836 527.035V515.838H660.582L654.359 527.035H651.371L658.068 515.451C656.99 515.252 656.047 514.859 655.238 514.273C654.441 513.688 653.826 512.949 653.393 512.059C652.959 511.156 652.742 510.148 652.742 509.035C652.742 507.652 653.07 506.445 653.727 505.414C654.395 504.371 655.309 503.574 656.469 503.023C657.641 502.473 658.953 502.197 660.406 502.197H667.385V527.035H664.836ZM664.801 504.465H660.371C659.363 504.465 658.473 504.641 657.699 504.992C656.926 505.344 656.316 505.865 655.871 506.557C655.438 507.236 655.221 508.051 655.221 509C655.221 510.359 655.654 511.414 656.521 512.164C657.389 512.914 658.525 513.324 659.932 513.395H664.801V504.465ZM674.328 509.439H676.701V511.953C677.979 510.031 679.83 509.07 682.256 509.07C683.709 509.07 684.963 509.469 686.018 510.266C687.084 511.062 687.893 512.158 688.443 513.553C688.994 514.936 689.27 516.488 689.27 518.211C689.27 519.934 688.994 521.492 688.443 522.887C687.893 524.27 687.084 525.359 686.018 526.156C684.963 526.953 683.709 527.352 682.256 527.352C679.842 527.352 677.99 526.396 676.701 524.486V534.699H674.328V509.439ZM681.641 525.277C682.801 525.277 683.768 524.961 684.541 524.328C685.326 523.684 685.9 522.828 686.264 521.762C686.639 520.695 686.826 519.523 686.826 518.246C686.826 516.957 686.639 515.779 686.264 514.713C685.9 513.646 685.326 512.797 684.541 512.164C683.768 511.52 682.801 511.197 681.641 511.197C680.48 511.197 679.514 511.52 678.74 512.164C677.979 512.797 677.416 513.646 677.053 514.713C676.701 515.768 676.525 516.945 676.525 518.246C676.525 519.535 676.701 520.713 677.053 521.779C677.416 522.834 677.979 523.684 678.74 524.328C679.514 524.961 680.48 525.277 681.641 525.277ZM701.574 527.352C699.98 527.352 698.557 526.947 697.303 526.139C696.061 525.33 695.094 524.234 694.402 522.852C693.711 521.469 693.365 519.945 693.365 518.281C693.365 516.617 693.711 515.094 694.402 513.711C695.094 512.328 696.061 511.232 697.303 510.424C698.557 509.615 699.98 509.211 701.574 509.211C703.156 509.211 704.574 509.615 705.828 510.424C707.082 511.232 708.061 512.334 708.764 513.729C709.467 515.111 709.818 516.629 709.818 518.281C709.818 519.945 709.467 521.469 708.764 522.852C708.061 524.234 707.082 525.33 705.828 526.139C704.574 526.947 703.156 527.352 701.574 527.352ZM701.574 525.242C702.852 525.242 703.9 524.926 704.721 524.293C705.541 523.66 706.139 522.822 706.514 521.779C706.889 520.725 707.076 519.559 707.076 518.281C707.076 517.016 706.889 515.861 706.514 514.818C706.139 513.764 705.541 512.92 704.721 512.287C703.9 511.654 702.852 511.338 701.574 511.338C700.309 511.338 699.266 511.654 698.445 512.287C697.625 512.92 697.027 513.764 696.652 514.818C696.277 515.861 696.09 517.016 696.09 518.281C696.09 519.559 696.277 520.719 696.652 521.762C697.027 522.805 697.625 523.648 698.445 524.293C699.266 524.926 700.309 525.242 701.574 525.242ZM721.631 527.352C720.037 527.352 718.672 526.936 717.535 526.104C716.398 525.271 715.543 524.164 714.969 522.781C714.395 521.398 714.107 519.887 714.107 518.246C714.107 516.617 714.395 515.111 714.969 513.729C715.543 512.346 716.393 511.238 717.518 510.406C718.643 509.562 720.002 509.141 721.596 509.141C723.131 509.141 724.479 509.545 725.639 510.354C726.799 511.162 727.695 512.27 728.328 513.676L726.061 514.66C725.791 513.582 725.252 512.732 724.443 512.111C723.635 511.479 722.686 511.162 721.596 511.162C720.424 511.162 719.457 511.514 718.695 512.217C717.945 512.908 717.4 513.793 717.061 514.871C716.721 515.938 716.551 517.062 716.551 518.246C716.551 519.441 716.715 520.578 717.043 521.656C717.383 522.734 717.928 523.619 718.678 524.311C719.439 525.002 720.412 525.348 721.596 525.348C722.674 525.348 723.617 525.031 724.426 524.398C725.246 523.766 725.791 522.916 726.061 521.85L728.117 522.746C727.602 524.199 726.781 525.33 725.656 526.139C724.531 526.947 723.189 527.352 721.631 527.352ZM737.293 509.439H739.473L745.924 527H743.305L738.365 512.568L733.426 527H730.842L737.293 509.439ZM753.992 527.352C753.008 527.352 752.1 527.141 751.268 526.719C750.447 526.285 749.797 525.682 749.316 524.908C748.836 524.135 748.596 523.25 748.596 522.254C748.596 520.473 749.146 519.16 750.248 518.316C751.361 517.461 752.885 517.033 754.818 517.033H760.391C760.391 515.123 760.039 513.682 759.336 512.709C758.633 511.725 757.438 511.232 755.75 511.232C754.754 511.232 753.834 511.484 752.99 511.988C752.158 512.48 751.496 513.09 751.004 513.816L749.281 512.463C750.066 511.361 750.998 510.535 752.076 509.984C753.154 509.422 754.426 509.141 755.891 509.141C757.297 509.141 758.498 509.434 759.494 510.02C760.502 510.594 761.264 511.414 761.779 512.48C762.295 513.535 762.553 514.777 762.553 516.207V527H760.549L760.461 523.836C759.676 525.031 758.762 525.916 757.719 526.49C756.688 527.064 755.445 527.352 753.992 527.352ZM754.678 525.172C755.768 525.172 756.746 524.873 757.613 524.275C758.492 523.678 759.172 522.904 759.652 521.955C760.145 521.006 760.391 520.033 760.391 519.037H755.064C753.916 519.037 752.961 519.318 752.199 519.881C751.449 520.432 751.074 521.223 751.074 522.254C751.074 523.285 751.414 524.029 752.094 524.486C752.785 524.943 753.646 525.172 754.678 525.172ZM776.334 527.352C774.529 527.352 773.059 527.064 771.922 526.49C770.785 525.904 769.936 524.967 769.373 523.678C768.822 522.377 768.547 520.643 768.547 518.475V509.756C768.547 507.271 769.145 505.326 770.34 503.92C771.535 502.502 773.398 501.793 775.93 501.793C778.098 501.793 779.809 502.297 781.062 503.305C782.316 504.301 782.943 505.812 782.943 507.84C782.943 508.344 782.809 508.924 782.539 509.58C782.281 510.236 781.877 510.852 781.326 511.426C780.775 511.988 780.107 512.393 779.322 512.639C780.26 512.709 781.074 513.066 781.766 513.711C782.457 514.344 782.984 515.146 783.348 516.119C783.711 517.092 783.893 518.088 783.893 519.107C783.893 520.795 783.576 522.26 782.943 523.502C782.322 524.744 781.443 525.699 780.307 526.367C779.17 527.023 777.846 527.352 776.334 527.352ZM776.07 525.277C777.969 525.277 779.305 524.75 780.078 523.695C780.863 522.641 781.256 521.129 781.256 519.16C781.256 517.953 781.033 516.945 780.588 516.137C780.154 515.328 779.574 514.736 778.848 514.361C778.121 513.975 777.33 513.781 776.475 513.781C775.771 513.781 775.121 513.852 774.523 513.992C773.926 514.133 773.375 514.414 772.871 514.836V512.744C773.809 512.182 775.297 511.859 777.336 511.777C778.004 511.754 778.561 511.537 779.006 511.127C779.463 510.705 779.797 510.195 780.008 509.598C780.219 509 780.324 508.414 780.324 507.84C780.324 506.527 779.955 505.555 779.217 504.922C778.49 504.277 777.395 503.955 775.93 503.955C774.641 503.955 773.633 504.172 772.906 504.605C772.18 505.027 771.67 505.637 771.377 506.434C771.096 507.23 770.955 508.232 770.955 509.439V518.475C770.955 520.291 771.125 521.686 771.465 522.658C771.816 523.631 772.355 524.311 773.082 524.697C773.809 525.084 774.805 525.277 776.07 525.277Z" fill="#FF0000"/>
</g>
<defs>
<clipPath id="clip0_14_2">
<rect width="1280" height="745" fill="white"/>
</clipPath>
</defs>
</svg>
