<svg width="1280" height="1284" viewBox="0 0 1280 1284" fill="none" xmlns="http://www.w3.org/2000/svg">
<rect width="1280" height="1284" fill="white"/>
<circle cx="254.611" cy="745.611" r="100.282" transform="rotate(0.7752 254.611 745.611)" stroke="#FF0000" stroke-width="9.83152"/>
<path d="M165.787 792.616L248.603 1202.74L342 795" stroke="#FF0000" stroke-width="9.83152"/>
<path d="M319.557 222.142L431.399 70.3074C445.962 59.5294 471.301 65.3762 463.752 95.4427L335.913 237.075" stroke="#FF0000" stroke-width="10"/>
<path d="M394 334H107L146.057 475H359.332L394 334Z" stroke="#FF0000" stroke-width="10"/>
<circle cx="258" cy="198" r="86" fill="white" stroke="#FF0000" stroke-width="10"/>
<circle cx="167" cy="289" r="86" fill="white" stroke="#FF0000" stroke-width="10"/>
<circle cx="325" cy="296" r="86" fill="white" stroke="#FF0000" stroke-width="10"/>
<rect x="208" y="401" width="85" height="48" rx="15" stroke="#FF0000" stroke-width="10"/>
<rect x="794" y="1155" width="85" height="48" rx="15" stroke="#FF0000" stroke-width="10"/>
<rect x="209" y="912" width="85" height="48" rx="15" stroke="#FF0000" stroke-width="10"/>
<path d="M830.432 1170.36H817.336V1168.16H833.35V1169.43L822.697 1193H819.885L830.432 1170.36ZM842.859 1193.21C841.629 1193.09 840.492 1192.76 839.449 1192.21C838.406 1191.66 837.533 1190.91 836.83 1189.96C836.127 1189 835.676 1187.87 835.477 1186.58L837.938 1185.86C838.055 1186.95 838.395 1187.87 838.957 1188.62C839.531 1189.37 840.258 1189.94 841.137 1190.31C842.016 1190.69 842.977 1190.87 844.02 1190.87C845.555 1190.87 846.779 1190.49 847.693 1189.73C848.619 1188.96 849.082 1187.83 849.082 1186.34C849.082 1185.38 848.83 1184.56 848.326 1183.89C847.822 1183.21 847.201 1182.66 846.463 1182.24C845.725 1181.81 844.717 1181.3 843.439 1180.73C842.057 1180.11 840.949 1179.56 840.117 1179.08C839.285 1178.59 838.582 1177.94 838.008 1177.13C837.434 1176.31 837.146 1175.3 837.146 1174.1C837.146 1172.97 837.393 1171.95 837.885 1171.06C838.389 1170.16 839.068 1169.44 839.924 1168.9C840.791 1168.35 841.77 1168 842.859 1167.86V1163.84H844.512V1167.83C847.312 1168.07 849.34 1169.38 850.594 1171.73L848.625 1173.05C848.109 1172.08 847.424 1171.34 846.568 1170.83C845.725 1170.32 844.799 1170.06 843.791 1170.06C843.076 1170.06 842.402 1170.22 841.77 1170.54C841.148 1170.84 840.645 1171.28 840.258 1171.85C839.883 1172.42 839.695 1173.07 839.695 1173.8C839.695 1174.71 839.936 1175.47 840.416 1176.11C840.896 1176.73 841.488 1177.24 842.191 1177.65C842.906 1178.05 843.885 1178.53 845.127 1179.08C846.545 1179.71 847.682 1180.29 848.537 1180.8C849.404 1181.3 850.137 1182 850.734 1182.88C851.344 1183.74 851.648 1184.83 851.648 1186.13C851.648 1187.5 851.338 1188.72 850.717 1189.78C850.107 1190.84 849.264 1191.67 848.186 1192.28C847.107 1192.88 845.883 1193.2 844.512 1193.25V1197.32H842.859V1193.21Z" fill="#FF0000"/>
<path d="M227.348 418.893H221.441V416.73H224.465C225.449 416.73 226.217 416.443 226.768 415.869C227.318 415.295 227.594 414.551 227.594 413.637V413.162H229.896V438H227.348V418.893ZM244.574 438.352C242.441 438.352 240.689 437.713 239.318 436.436C237.947 435.146 236.957 433.529 236.348 431.584C235.738 429.639 235.434 427.635 235.434 425.572C235.434 423.498 235.732 421.488 236.33 419.543C236.928 417.586 237.889 415.969 239.213 414.691C240.549 413.402 242.254 412.758 244.328 412.758C246.262 412.758 247.908 413.361 249.268 414.568C250.639 415.775 251.67 417.363 252.361 419.332C253.053 421.301 253.398 423.41 253.398 425.66C253.398 427.875 253.059 429.949 252.379 431.883C251.699 433.816 250.691 435.381 249.355 436.576C248.031 437.76 246.438 438.352 244.574 438.352ZM244.469 436.049C245.945 436.049 247.152 435.504 248.09 434.414C249.027 433.312 249.695 431.959 250.094 430.354C250.504 428.748 250.709 427.143 250.709 425.537C250.709 423.885 250.498 422.268 250.076 420.686C249.666 419.104 248.98 417.785 248.02 416.73C247.07 415.676 245.84 415.148 244.328 415.148C242.805 415.148 241.562 415.682 240.602 416.748C239.652 417.814 238.967 419.139 238.545 420.721C238.135 422.303 237.93 423.92 237.93 425.572C237.93 427.225 238.141 428.848 238.562 430.441C238.984 432.035 239.682 433.371 240.654 434.449C241.639 435.516 242.91 436.049 244.469 436.049ZM263.98 438.211C262.75 438.094 261.613 437.76 260.57 437.209C259.527 436.658 258.654 435.908 257.951 434.959C257.248 433.998 256.797 432.873 256.598 431.584L259.059 430.863C259.176 431.953 259.516 432.873 260.078 433.623C260.652 434.373 261.379 434.936 262.258 435.311C263.137 435.686 264.098 435.873 265.141 435.873C266.676 435.873 267.9 435.492 268.814 434.73C269.74 433.957 270.203 432.826 270.203 431.338C270.203 430.377 269.951 429.562 269.447 428.895C268.943 428.215 268.322 427.664 267.584 427.242C266.846 426.809 265.838 426.305 264.561 425.73C263.178 425.109 262.07 424.559 261.238 424.078C260.406 423.586 259.703 422.936 259.129 422.127C258.555 421.307 258.268 420.299 258.268 419.104C258.268 417.967 258.514 416.953 259.006 416.062C259.51 415.16 260.189 414.439 261.045 413.9C261.912 413.35 262.891 413.004 263.98 412.863V408.838H265.633V412.828C268.434 413.074 270.461 414.375 271.715 416.73L269.746 418.049C269.23 417.076 268.545 416.338 267.689 415.834C266.846 415.318 265.92 415.061 264.912 415.061C264.197 415.061 263.523 415.219 262.891 415.535C262.27 415.84 261.766 416.279 261.379 416.854C261.004 417.416 260.816 418.066 260.816 418.805C260.816 419.707 261.057 420.475 261.537 421.107C262.018 421.729 262.609 422.244 263.312 422.654C264.027 423.053 265.006 423.527 266.248 424.078C267.666 424.711 268.803 425.285 269.658 425.801C270.525 426.305 271.258 426.996 271.855 427.875C272.465 428.742 272.77 429.826 272.77 431.127C272.77 432.498 272.459 433.717 271.838 434.783C271.229 435.838 270.385 436.67 269.307 437.279C268.229 437.877 267.004 438.199 265.633 438.246V442.324H263.98V438.211Z" fill="#FF0000"/>
<path d="M1200.5 849V146H549V849" stroke="#FF0000" stroke-width="10"/>
<path d="M549 847.449C554.05 897.312 637.621 938.714 678.506 845.018" stroke="#FF0000" stroke-width="10.1249"/>
<path d="M679.871 843.969C681.039 894.073 761.148 941.831 809.176 851.589" stroke="#FF0000" stroke-width="10.1249"/>
<path d="M810.365 849.473C813.125 899.515 894.711 944.702 939.847 852.979" stroke="#FF0000" stroke-width="10.1249"/>
<path d="M941.098 849.329C944.038 899.36 1025.79 944.254 1070.59 852.369" stroke="#FF0000" stroke-width="10.1249"/>
<path d="M1071.79 850.071C1074.5 900.116 1155.47 945.419 1200.34 853.762" stroke="#FF0000" stroke-width="10.1249"/>
<path d="M1200.5 838.5C1199 849.5 1204 852 1194.5 864.5" stroke="#FF0000" stroke-width="10"/>
<rect x="1007" y="683.5" width="11.2044" height="122.387" fill="#FF0000"/>
<rect x="1025.1" y="683.5" width="11.2044" height="131.006" fill="#FF0000"/>
<rect x="1079.4" y="683.5" width="11.2044" height="122.387" fill="#FF0000"/>
<rect x="1097.5" y="683.5" width="11.2044" height="122.387" fill="#FF0000"/>
<rect x="1115.6" y="683.5" width="11.2044" height="122.387" fill="#FF0000"/>
<rect x="1133.7" y="683.5" width="11.2044" height="114.63" fill="#FF0000"/>
<rect x="1151.8" y="683.5" width="11.2044" height="122.387" fill="#FF0000"/>
<rect x="1061.3" y="683.5" width="11.2044" height="114.63" fill="#FF0000"/>
<rect x="1043.2" y="683.5" width="11.2044" height="131.006" fill="#FF0000"/>
<path d="M1007.65 808.936V810.368H1014.79L1008.97 821.5H1010.7L1016.66 809.808V808.936H1007.65Z" fill="#FF0000"/>
<path d="M1030.15 831.651C1032.36 831.651 1034.5 830.442 1034.5 827.943C1034.5 826.441 1033.69 825.267 1032.32 824.698C1033.23 824.174 1033.83 823.213 1033.83 822.057C1033.83 820.03 1032.13 818.785 1030.16 818.785C1028.3 818.785 1026.48 819.95 1026.48 822.022C1026.48 823.178 1027.04 824.147 1027.99 824.698C1026.65 825.232 1025.79 826.414 1025.79 827.952C1025.79 830.424 1027.93 831.651 1030.15 831.651ZM1030.19 824.236C1028.89 824.236 1028.03 823.382 1028.03 822.102C1028.03 820.777 1029.06 820.092 1030.18 820.092C1031.43 820.092 1032.34 820.893 1032.34 822.173C1032.34 823.436 1031.44 824.236 1030.19 824.236ZM1030.14 830.309C1028.65 830.309 1027.32 829.491 1027.32 827.783C1027.32 826.236 1028.49 825.276 1030.14 825.276C1031.76 825.276 1032.94 826.236 1032.94 827.801C1032.94 829.491 1031.63 830.309 1030.14 830.309Z" fill="#FF0000"/>
<path d="M1049.15 831.651C1051.36 831.651 1053.5 830.442 1053.5 827.943C1053.5 826.441 1052.69 825.267 1051.32 824.698C1052.23 824.174 1052.83 823.213 1052.83 822.057C1052.83 820.03 1051.13 818.785 1049.16 818.785C1047.3 818.785 1045.48 819.95 1045.48 822.022C1045.48 823.178 1046.04 824.147 1046.99 824.698C1045.65 825.232 1044.79 826.414 1044.79 827.952C1044.79 830.424 1046.93 831.651 1049.15 831.651ZM1049.19 824.236C1047.89 824.236 1047.03 823.382 1047.03 822.102C1047.03 820.777 1048.06 820.092 1049.18 820.092C1050.43 820.092 1051.34 820.893 1051.34 822.173C1051.34 823.436 1050.44 824.236 1049.19 824.236ZM1049.14 830.309C1047.65 830.309 1046.32 829.491 1046.32 827.783C1046.32 826.236 1047.49 825.276 1049.14 825.276C1050.76 825.276 1051.94 826.236 1051.94 827.801C1051.94 829.491 1050.63 830.309 1049.14 830.309Z" fill="#FF0000"/>
<path d="M1066.41 805.035C1065.54 805.035 1064.73 805.302 1063.91 805.898L1064.55 802.377H1069.94V800.936H1063.3L1062.14 807.445L1063.62 807.845C1064.22 806.947 1065.2 806.44 1066.18 806.44C1067.86 806.44 1068.94 807.694 1068.94 809.259C1068.94 810.833 1067.74 812.229 1066.09 812.229C1064.45 812.229 1063.52 811.002 1063.21 809.57L1061.76 809.97C1062.22 812.077 1063.93 813.651 1066.09 813.651C1068.55 813.651 1070.53 811.651 1070.53 809.277C1070.53 806.911 1068.7 805.035 1066.41 805.035Z" fill="#FF0000"/>
<path d="M1085.06 821.651C1087.5 821.651 1089.53 820.3 1089.53 817.89C1089.53 816.192 1088.38 815.152 1086.66 814.796C1087.98 814.369 1088.86 813.462 1088.86 812.084C1088.86 810.057 1087.09 808.785 1085.02 808.785C1082.88 808.785 1081.17 810.119 1081.17 812.333L1082.65 812.431C1082.67 811.088 1083.62 810.244 1085.04 810.244C1086.36 810.244 1087.35 810.99 1087.35 812.271C1087.35 813.711 1086.38 814.28 1084.46 814.28V815.525C1086.04 815.516 1088.04 815.729 1088.04 817.775C1088.04 819.339 1086.72 820.211 1085.08 820.211C1083.31 820.211 1082.07 819.233 1082.07 817.597L1080.58 817.686C1080.58 820.273 1082.55 821.651 1085.06 821.651Z" fill="#FF0000"/>
<path d="M1103.06 821.651C1105.5 821.651 1107.53 820.3 1107.53 817.89C1107.53 816.192 1106.38 815.152 1104.66 814.796C1105.98 814.369 1106.86 813.462 1106.86 812.084C1106.86 810.057 1105.09 808.785 1103.02 808.785C1100.88 808.785 1099.17 810.119 1099.17 812.333L1100.65 812.431C1100.67 811.088 1101.62 810.244 1103.04 810.244C1104.36 810.244 1105.35 810.99 1105.35 812.271C1105.35 813.711 1104.38 814.28 1102.46 814.28V815.525C1104.04 815.516 1106.04 815.729 1106.04 817.775C1106.04 819.339 1104.72 820.211 1103.08 820.211C1101.31 820.211 1100.07 819.233 1100.07 817.597L1098.58 817.686C1098.58 820.273 1100.55 821.651 1103.06 821.651Z" fill="#FF0000"/>
<path d="M1116.65 808.936V810.368H1123.79L1117.97 821.5H1119.7L1125.66 809.808V808.936H1116.65Z" fill="#FF0000"/>
<path d="M1140.27 806.382C1139.61 806.231 1138.93 806.249 1138.29 806.409L1141.03 801.936H1139.25L1135.48 808.16C1135.08 808.827 1134.81 809.574 1134.81 810.437C1134.81 812.748 1136.77 814.651 1139.17 814.651C1141.58 814.651 1143.53 812.748 1143.53 810.419C1143.53 808.427 1142.1 806.791 1140.27 806.382ZM1139.17 813.193C1137.6 813.193 1136.34 811.948 1136.34 810.419C1136.34 808.881 1137.61 807.627 1139.17 807.627C1140.74 807.627 1142 808.89 1142 810.41C1142 811.939 1140.74 813.193 1139.17 813.193Z" fill="#FF0000"/>
<path d="M1158.27 812.382C1157.61 812.231 1156.93 812.249 1156.29 812.409L1159.03 807.936H1157.25L1153.48 814.16C1153.08 814.827 1152.81 815.574 1152.81 816.437C1152.81 818.748 1154.77 820.651 1157.17 820.651C1159.58 820.651 1161.53 818.748 1161.53 816.419C1161.53 814.427 1160.1 812.791 1158.27 812.382ZM1157.17 819.193C1155.6 819.193 1154.34 817.948 1154.34 816.419C1154.34 814.881 1155.61 813.627 1157.17 813.627C1158.74 813.627 1160 814.89 1160 816.41C1160 817.939 1158.74 819.193 1157.17 819.193Z" fill="#FF0000"/>
<path d="M589 585H916.5" stroke="#FF0000" stroke-width="3"/>
<path d="M607.712 651.073C613.645 647.56 621.549 640.555 621.549 632.951C621.549 627.188 617.715 623.89 612.231 623.89C605.912 623.89 602.271 628.666 602.271 634.45L605.976 634.686C606.062 630.659 607.861 627.295 612.274 627.295C615.916 627.295 617.779 629.587 617.779 632.865C617.779 640.726 608.418 647.217 601.821 651.287V654.5H623.113V651.073H607.712ZM637.08 654.864C642.97 654.864 647.854 651.608 647.854 645.803C647.854 641.712 645.07 639.205 640.935 638.349C644.127 637.32 646.248 635.136 646.248 631.815C646.248 626.931 641.964 623.868 636.994 623.868C631.831 623.868 627.719 627.081 627.719 632.415L631.275 632.651C631.317 629.416 633.609 627.381 637.037 627.381C640.207 627.381 642.606 629.18 642.606 632.265C642.606 635.735 640.25 637.106 635.644 637.106V640.105C639.436 640.084 644.256 640.598 644.256 645.525C644.256 649.295 641.085 651.394 637.122 651.394C632.86 651.394 629.882 649.038 629.882 645.096L626.283 645.31C626.283 651.544 631.039 654.864 637.08 654.864ZM672.36 646.017C672.36 640.319 667.412 638.606 663.149 636.956V627.317C665.162 627.617 666.748 628.774 667.84 630.808L670.967 628.881C669.168 625.689 666.426 624.147 663.149 623.911V618.963H661.542V623.89C656.98 624.147 653.338 627.081 653.338 631.794C653.338 636.828 657.537 638.563 661.542 640.127V651.394C658.201 651.094 655.694 649.081 655.202 645.353L651.474 646.296C652.353 651.587 656.615 654.479 661.542 654.778V660.112L663.149 660.069V654.778C668.354 654.479 672.36 651.115 672.36 646.017ZM657.108 631.622C657.108 629.202 658.993 627.467 661.542 627.253V636.314C659.057 635.243 657.108 634 657.108 631.622ZM663.149 651.415V640.769C666.105 641.969 668.59 643.361 668.59 646.339C668.59 649.038 666.533 651.137 663.149 651.415Z" fill="#FF0000"/>
<path d="M766.313 1161.96V1225.76H1115.59C1151.4 1199.21 1201.52 1123.68 1115.59 1034H766.313V1097.98M766.313 1161.96H599.422C565.9 1152.11 518.969 1125.99 599.422 1100.32L766.313 1097.98M766.313 1161.96V1097.98" stroke="#FF0000" stroke-width="10"/>
<path d="M241.828 947.352C240.352 947.352 238.992 946.988 237.75 946.262C236.52 945.523 235.541 944.527 234.814 943.273C234.1 942.02 233.742 940.648 233.742 939.16C233.742 937.566 234.135 936.137 234.92 934.871L242.127 922.162H244.904L239.385 931.549C240.229 931.361 241.043 931.268 241.828 931.268C243.316 931.268 244.676 931.607 245.906 932.287C247.148 932.967 248.127 933.904 248.842 935.1C249.568 936.295 249.932 937.631 249.932 939.107C249.932 940.561 249.58 941.92 248.877 943.186C248.186 944.439 247.219 945.447 245.977 946.209C244.746 946.971 243.363 947.352 241.828 947.352ZM241.828 945.084C242.859 945.084 243.809 944.82 244.676 944.293C245.543 943.754 246.229 943.033 246.732 942.131C247.236 941.217 247.488 940.227 247.488 939.16C247.488 938.082 247.236 937.092 246.732 936.189C246.229 935.275 245.543 934.555 244.676 934.027C243.809 933.488 242.859 933.219 241.828 933.219C240.797 933.219 239.848 933.488 238.98 934.027C238.125 934.555 237.445 935.275 236.941 936.189C236.438 937.092 236.186 938.082 236.186 939.16C236.186 940.227 236.438 941.217 236.941 942.131C237.445 943.033 238.131 943.754 238.998 944.293C239.865 944.82 240.809 945.084 241.828 945.084ZM260.742 947.211C259.512 947.094 258.375 946.76 257.332 946.209C256.289 945.658 255.416 944.908 254.713 943.959C254.01 942.998 253.559 941.873 253.359 940.584L255.82 939.863C255.938 940.953 256.277 941.873 256.84 942.623C257.414 943.373 258.141 943.936 259.02 944.311C259.898 944.686 260.859 944.873 261.902 944.873C263.438 944.873 264.662 944.492 265.576 943.73C266.502 942.957 266.965 941.826 266.965 940.338C266.965 939.377 266.713 938.562 266.209 937.895C265.705 937.215 265.084 936.664 264.346 936.242C263.607 935.809 262.6 935.305 261.322 934.73C259.939 934.109 258.832 933.559 258 933.078C257.168 932.586 256.465 931.936 255.891 931.127C255.316 930.307 255.029 929.299 255.029 928.104C255.029 926.967 255.275 925.953 255.768 925.062C256.271 924.16 256.951 923.439 257.807 922.9C258.674 922.35 259.652 922.004 260.742 921.863V917.838H262.395V921.828C265.195 922.074 267.223 923.375 268.477 925.73L266.508 927.049C265.992 926.076 265.307 925.338 264.451 924.834C263.607 924.318 262.682 924.061 261.674 924.061C260.959 924.061 260.285 924.219 259.652 924.535C259.031 924.84 258.527 925.279 258.141 925.854C257.766 926.416 257.578 927.066 257.578 927.805C257.578 928.707 257.818 929.475 258.299 930.107C258.779 930.729 259.371 931.244 260.074 931.654C260.789 932.053 261.768 932.527 263.01 933.078C264.428 933.711 265.564 934.285 266.42 934.801C267.287 935.305 268.02 935.996 268.617 936.875C269.227 937.742 269.531 938.826 269.531 940.127C269.531 941.498 269.221 942.717 268.6 943.783C267.99 944.838 267.146 945.67 266.068 946.279C264.99 946.877 263.766 947.199 262.395 947.246V951.324H260.742V947.211Z" fill="#FF0000"/>
<path d="M798 1201L774 1226" stroke="#FF0000" stroke-width="10"/>
<path d="M851 1201L827 1226" stroke="#FF0000" stroke-width="10"/>
<path d="M816 1034L768 1080" stroke="#FF0000" stroke-width="10"/>
<path d="M863 1034L768 1128" stroke="#FF0000" stroke-width="10"/>
<path d="M910 1034L768 1179" stroke="#FF0000" stroke-width="10"/>
<path d="M1008 1034L877 1170" stroke="#FF0000" stroke-width="10"/>
<path d="M1053 1035L877 1226" stroke="#FF0000" stroke-width="10"/>
<path d="M1102 1034L926 1226" stroke="#FF0000" stroke-width="10"/>
<path d="M1134 1053L977 1226" stroke="#FF0000" stroke-width="10"/>
<path d="M1155 1085L1031 1226" stroke="#FF0000" stroke-width="10"/>
<path d="M1163 1130L1080 1226" stroke="#FF0000" stroke-width="10"/>
<path d="M960 1034L841 1155" stroke="#FF0000" stroke-width="10"/>
<path d="M221 650L155 747" stroke="#FF0000" stroke-width="10"/>
<path d="M254 647L159 783" stroke="#FF0000" stroke-width="10"/>
<path d="M285 653L173 813" stroke="#FF0000" stroke-width="10"/>
<path d="M313 665L198 829" stroke="#FF0000" stroke-width="10"/>
<path d="M332 688L225 842" stroke="#FF0000" stroke-width="10"/>
<path d="M350 715L258 846" stroke="#FF0000" stroke-width="10"/>
<path d="M356 747L296 837" stroke="#FF0000" stroke-width="10"/>
</svg>
