<svg width="352" height="523" viewBox="0 0 352 523" fill="none" xmlns="http://www.w3.org/2000/svg">
<rect width="351.438" height="523" fill="white"/>
<circle cx="206.255" cy="132.323" r="75.8112" transform="rotate(15.3525 206.255 132.323)" stroke="#FF0000" stroke-width="10"/>
<path d="M131.182 146.172L113.275 470.98L263.367 182.464" stroke="#FF0000" stroke-width="10"/>
<path d="M141.196 252.575L138.459 261.074C141.43 262.454 144.359 263.735 147.176 264.887C156.162 268.645 167.052 270.963 173.8 271.75L176.931 263.495C169.206 262.883 159.094 260.473 150.361 256.9C147.826 255.863 144.08 254.166 141.196 252.575ZM172.913 253.219L163.569 248.327C161.139 253.664 156.911 259.579 153.146 263.959C147.288 270.441 135.908 280.172 126.4 285.326L133.136 293.179C142.521 287.317 154.218 276.811 161.607 267.995C165.957 262.787 170.471 256.577 172.913 253.219ZM180.474 281.962L171.601 278.332C168.928 285.871 164.401 299.146 162.673 303.371C161.059 307.315 158.415 309.358 153.626 307.398C149.753 305.814 148.248 303.061 149.314 300.455C150.323 297.99 153.719 297.324 157.804 298.995C168.438 303.346 173.499 313.884 176.639 320.677L184.399 314.972C180.714 307.299 173.531 297.126 161.207 292.084C151.417 288.079 143.453 291.069 140.658 297.901C137.489 305.647 142.777 312.415 151.51 315.987C161.581 320.107 167.205 316.407 169.885 309.857C171.498 305.913 175.157 295.16 176.716 290.948C177.913 287.82 179.053 284.833 180.474 281.962ZM191.061 290.65L199.115 285.23C196.519 281.127 189.787 272.864 185.609 268.607L178.208 273.636C182.174 277.807 188.33 285.669 191.061 290.65Z" fill="#FF0000"/>
</svg>
