<svg width="1280" height="871" viewBox="0 0 1280 871" fill="none" xmlns="http://www.w3.org/2000/svg">
<g clip-path="url(#clip0_79_281)">
<rect width="1280" height="871" fill="white"/>
<circle cx="676.255" cy="264.323" r="75.8112" transform="rotate(15.3525 676.255 264.323)" stroke="#FF0000" stroke-width="10"/>
<circle cx="892.458" cy="514.98" r="75.8112" transform="rotate(5.06392 892.458 514.98)" stroke="#FF0000" stroke-width="10"/>
<circle cx="146.473" cy="101.473" r="75.8112" transform="rotate(-17.6111 146.473 101.473)" stroke="#FF0000" stroke-width="10"/>
<path d="M601.182 278.172L583.275 602.98L733.367 314.464" stroke="#FF0000" stroke-width="10"/>
<path d="M821.065 542.015L861.459 864.798L957.607 554.115" stroke="#FF0000" stroke-width="10"/>
<path d="M91.0215 153.941L252.727 436.203L221.674 112.468" stroke="#FF0000" stroke-width="10"/>
<path d="M849.923 644.919L848.748 653.77C851.918 654.597 855.028 655.334 858.006 655.965C867.518 658.057 878.647 658.393 885.428 657.962L887.033 649.28C879.324 650.058 868.944 649.493 859.713 647.537C857.033 646.97 853.045 645.969 849.923 644.919ZM881.245 639.887L871.178 636.743C869.74 642.428 866.636 649.004 863.714 653.985C859.108 661.409 849.649 673.017 841.215 679.786L849.244 686.309C857.432 678.866 867.065 666.439 872.76 656.446C876.11 650.544 879.442 643.627 881.245 639.887ZM893.818 666.818L884.439 664.831C883.156 672.726 881.073 686.596 880.127 691.062C879.244 695.231 877.007 697.713 871.945 696.64C867.851 695.773 865.879 693.333 866.462 690.579C867.014 687.974 870.237 686.712 874.555 687.626C885.795 690.007 892.657 699.472 896.96 705.595L903.576 698.596C898.58 691.705 889.695 682.978 876.668 680.218C866.321 678.027 859.019 682.391 857.489 689.611C855.755 697.8 862.167 703.514 871.397 705.469C882.042 707.724 886.915 703.078 888.381 696.156C889.265 691.987 890.944 680.754 891.726 676.33C892.345 673.039 892.933 669.897 893.818 666.818ZM905.786 673.475L912.743 666.704C909.456 663.13 901.356 656.203 896.485 652.76L890.101 659.03C894.749 662.426 902.21 669.062 905.786 673.475Z" fill="#FF0000"/>
<path d="M1055.13 322.629L1096.89 303.7L993.265 75.0595C965.26 59.4994 900.947 49.0941 867.737 131.953L971.365 360.594L1013.25 341.611M1055.13 322.629L1104.64 431.876C1108.14 456.743 1104.97 495.214 1064.3 450.163L1013.25 341.611M1055.13 322.629L1013.25 341.611" stroke="#FF0000" stroke-width="10"/>
<path d="M360.483 674.564L404.318 688.019L477.982 448.042C467.289 417.842 425.969 367.473 346.23 407.6L272.566 647.576L316.525 661.07M360.483 674.564L325.286 789.227C311.447 810.181 283.602 836.917 282.937 776.228L316.525 661.07M360.483 674.564L316.525 661.07" stroke="#FF0000" stroke-width="10"/>
<path d="M1005.9 196.072C994.576 177.222 975.054 167.79 954.002 180.435C931.437 193.99 932.55 217.662 943.212 235.412C953.791 253.024 972.763 263.722 995.301 251.681C993.542 256.857 992.83 263.464 996.549 269.656C1001.59 278.049 1011.5 279.586 1020.31 274.296C1027.19 270.163 1029.8 263.914 1030.21 257.114L1018.34 256.377C1018.04 259.928 1016.67 262.626 1013.78 264.362C1011.03 266.015 1007.94 266.182 1005.46 262.054C1000.84 254.349 1005.95 245.097 1009 240.829C1013.49 235.514 1016.51 229.016 1017.94 221.418L1000.49 218.234C999.032 226.41 994.686 231.642 988.631 235.279C977.899 241.726 968.842 239.115 962.781 230.585L1009.29 202.649C1008.24 200.282 1007.14 198.136 1005.9 196.072ZM954.792 217.596C951.705 210.275 952.086 200.311 962.13 194.277C970.798 189.07 980.543 190.331 986.026 198.834L954.792 217.596Z" fill="#FF0000"/>
<path d="M163.945 211.788C167.437 209.757 172.601 215.596 179.963 211.314C185.909 207.856 186.94 200.941 181.945 192.352L175.149 196.304C177.509 200.363 177.6 203.342 175.995 204.275C172.692 206.196 166.867 200.742 160.355 204.529C154.22 208.097 153.15 215.161 158.09 223.656L164.602 219.868C162.242 215.81 162.057 212.886 163.945 211.788ZM182.022 216.81C176.359 220.104 172.36 224.956 171.637 231.313L168.508 225.933L157.182 232.52L184.243 279.051L195.569 272.464L184.756 253.87C179.925 245.565 173.723 234.899 184.294 228.752C192.883 223.757 197.054 230.93 198.92 234.139L214.729 261.321L226.055 254.734L208.6 224.72C202.178 213.678 192.499 210.718 182.022 216.81Z" fill="#FF0000"/>
<path d="M373.593 500.845L358.099 499.971L357.139 516.998L372.632 517.872L373.593 500.845ZM403.505 502.533L388.012 501.659L387.051 518.686L402.544 519.56L403.505 502.533ZM394.683 533.428L393.064 562.114C392.302 575.613 391.238 594.481 374.057 593.511C360.098 592.723 360.842 579.531 361.137 574.316L363.543 531.671L345.135 530.632L342.469 577.879C341.56 593.986 348.758 608.242 367.779 609.315C376.676 609.817 385.133 607.217 390.909 600.31L390.415 609.054L408.823 610.092L413.091 534.467L394.683 533.428Z" fill="#FF0000"/>
<path d="M664.382 437.748C670.903 427.999 671.016 416.436 660.129 409.153C654.223 405.202 648.453 404.742 643.369 406.491C642.737 400.815 639.706 395.491 634.013 391.683C623.125 384.4 610.915 388.18 604.25 398.143C597.634 408.034 598.706 420.905 609.593 428.188C615.215 431.949 621.293 432.718 626.78 431.136C627.175 436.55 630.017 441.85 636.279 446.039C642.185 449.99 648.191 451.02 654.89 449.321L652.458 440.175C648.182 441.332 644.669 440.424 641.538 438.33C635.988 434.617 635.188 429.653 637.927 424.79L661.979 440.879C662.883 439.836 663.668 438.816 664.382 437.748ZM642.378 417.982C645.208 414.828 650.103 412.746 655.298 416.221C659.781 419.22 661.388 424.209 658.531 428.787L642.378 417.982ZM614.592 420.717C608.116 416.385 608.981 409.548 612.79 403.855C616.645 398.091 622.539 394.823 629.015 399.155C635.49 403.487 634.72 410.181 630.864 415.945C627.056 421.638 621.067 425.048 614.592 420.717Z" fill="#FF0000"/>
</g>
<defs>
<clipPath id="clip0_79_281">
<rect width="1280" height="871" fill="white"/>
</clipPath>
</defs>
</svg>
