<svg width="1280" height="1050" viewBox="0 0 1280 1050" fill="none" xmlns="http://www.w3.org/2000/svg">
<g clip-path="url(#clip0_79_555)">
<rect width="1280" height="1050" fill="white"/>
<circle cx="956.5" cy="273.5" r="227.5" stroke="#FF0000" stroke-width="10"/>
<path d="M914.732 180.891L956.825 348L986.711 180.891" stroke="#FF0000" stroke-width="8.41858"/>
<circle cx="950.721" cy="144.721" r="50.5115" stroke="#FF0000" stroke-width="8.41858"/>
<path d="M1159 171H1307" stroke="#FF0000" stroke-width="10"/>
<path d="M1174 331H1307" stroke="#FF0000" stroke-width="9.81717"/>
<rect x="1040" y="731" width="237" height="143" fill="white" stroke="#FF0000" stroke-width="10"/>
<rect x="801" y="740" width="237" height="143" fill="white" stroke="#FF0000" stroke-width="10"/>
<rect x="522.902" y="909.075" width="237" height="143" transform="rotate(-32.4522 522.902 909.075)" fill="white" stroke="#FF0000" stroke-width="10"/>
<rect x="1040" y="875" width="237" height="143" fill="white" stroke="#FF0000" stroke-width="10"/>
<rect x="801" y="875" width="237" height="143" fill="white" stroke="#FF0000" stroke-width="10"/>
<rect x="1040" y="596" width="237" height="143" fill="white" stroke="#FF0000" stroke-width="10"/>
<path d="M580.915 946.111L584.042 943.994L572.242 926.557L569.115 928.674L580.915 946.111ZM595.948 936.484C599.676 933.961 601.242 930.239 600.207 926.015L596.535 926.895C597.275 929.605 596.335 931.882 593.934 933.507C590.581 935.775 587.098 934.886 584.44 930.959C581.799 927.056 582.261 923.534 585.638 921.249C588.015 919.64 590.444 919.565 592.692 921.216L594.807 918.144C591.28 915.68 587.301 915.783 583.623 918.271C578.47 921.759 577.555 927.521 581.33 933.1C585.105 938.679 590.795 939.971 595.948 936.484ZM606.225 928.982L617.833 921.127L615.886 918.25L607.405 923.989L604.256 919.336L612.137 914.003L610.19 911.126L602.309 916.459L599.499 912.306L607.98 906.567L606.033 903.69L594.425 911.545L606.225 928.982ZM610.281 973.875C614.009 971.353 615.575 967.63 614.54 963.406L610.868 964.286C611.608 966.996 610.668 969.273 608.267 970.898C604.915 973.167 601.431 972.278 598.773 968.35C596.132 964.447 596.594 960.925 599.971 958.64C602.348 957.031 604.777 956.956 607.025 958.608L609.14 955.535C605.613 953.071 601.634 953.174 597.957 955.663C592.803 959.15 591.888 964.912 595.663 970.491C599.439 976.07 605.128 977.363 610.281 973.875ZM633.667 957.502L623.817 953.08C625.42 950.974 625.487 948.594 623.794 946.093C621.678 942.966 618.615 942.266 614.462 945.077L608.758 948.937L620.558 966.374L623.66 964.274L618.768 957.044L619.918 956.265L620.969 955.554L630.04 959.957L633.667 957.502ZM616.821 954.167L613.807 949.714L616.084 948.174C618.11 946.802 619.549 946.558 620.701 948.259C621.852 949.96 621.124 951.255 619.097 952.627L616.821 954.167ZM636.121 955.842L647.728 947.986L645.782 945.109L637.301 950.849L634.152 946.196L642.032 940.863L640.085 937.986L632.205 943.319L629.394 939.166L637.875 933.427L635.928 930.55L624.32 938.405L636.121 955.842ZM662.172 938.212L665.574 935.909L646.82 923.179L644.468 924.771L649.288 946.931L652.691 944.628L651.579 940.129L658.408 935.507L662.172 938.212ZM650.707 936.524L648.759 928.578L655.411 933.341L650.707 936.524ZM669.54 907.804L673.349 923.134L660.558 913.882L656.08 916.912L667.88 934.349L671.008 932.233L662.187 919.199L674.303 927.778L677.33 925.729L673.87 911.292L682.691 924.326L685.818 922.21L674.018 904.773L669.54 907.804Z" fill="#FF0000"/>
<mask id="path-13-inside-1_79_555" fill="white">
<path d="M99.718 658.79C99.718 667.572 98.0663 676.268 94.8571 684.381C91.6479 692.494 86.944 699.866 81.0142 706.075C75.0843 712.285 68.0445 717.211 60.2968 720.571C52.5491 723.932 44.2451 725.661 35.859 725.661C27.4729 725.661 19.169 723.932 11.4212 720.571C3.6735 717.211 -3.36627 712.285 -9.29613 706.075C-15.226 699.866 -19.9298 692.494 -23.139 684.381C-26.3482 676.268 -28 667.572 -28 658.79L35.859 658.79H99.718Z"/>
</mask>
<path d="M99.718 658.79C99.718 667.572 98.0663 676.268 94.8571 684.381C91.6479 692.494 86.944 699.866 81.0142 706.075C75.0843 712.285 68.0445 717.211 60.2968 720.571C52.5491 723.932 44.2451 725.661 35.859 725.661C27.4729 725.661 19.169 723.932 11.4212 720.571C3.6735 717.211 -3.36627 712.285 -9.29613 706.075C-15.226 699.866 -19.9298 692.494 -23.139 684.381C-26.3482 676.268 -28 667.572 -28 658.79L35.859 658.79H99.718Z" stroke="#FF0000" stroke-width="24.0977" mask="url(#path-13-inside-1_79_555)"/>
<mask id="path-14-inside-2_79_555" fill="white">
<path d="M514.199 658.79C514.199 667.572 512.548 676.268 509.339 684.381C506.129 692.494 501.425 699.866 495.496 706.075C489.566 712.285 482.526 717.211 474.778 720.571C467.031 723.932 458.727 725.661 450.34 725.661C441.954 725.661 433.65 723.932 425.903 720.571C418.155 717.211 411.115 712.285 405.185 706.075C399.255 699.866 394.552 692.494 391.342 684.381C388.133 676.268 386.481 667.572 386.481 658.79L450.34 658.79H514.199Z"/>
</mask>
<path d="M514.199 658.79C514.199 667.572 512.548 676.268 509.339 684.381C506.129 692.494 501.425 699.866 495.496 706.075C489.566 712.285 482.526 717.211 474.778 720.571C467.031 723.932 458.727 725.661 450.34 725.661C441.954 725.661 433.65 723.932 425.903 720.571C418.155 717.211 411.115 712.285 405.185 706.075C399.255 699.866 394.552 692.494 391.342 684.381C388.133 676.268 386.481 667.572 386.481 658.79L450.34 658.79H514.199Z" stroke="#FF0000" stroke-width="24.0977" mask="url(#path-14-inside-2_79_555)"/>
<path d="M-0.287598 316H392.37V451.082M392.37 664.212H-0.287598M392.37 664.212H613V586.165M392.37 664.212V586.165M613 586.165H526.667M613 586.165L526.667 451.082M392.37 586.165V451.082M392.37 586.165H526.667M392.37 451.082H526.667M526.667 451.082V586.165" stroke="#FF0000" stroke-width="12.0489"/>
</g>
<defs>
<clipPath id="clip0_79_555">
<rect width="1280" height="1050" fill="white"/>
</clipPath>
</defs>
</svg>
