<svg width="1280" height="1102" viewBox="0 0 1280 1102" fill="none" xmlns="http://www.w3.org/2000/svg">
<rect width="1280" height="1102" fill="white"/>
<circle cx="854" cy="387" r="86" fill="white" stroke="#FF0000" stroke-width="10"/>
<circle cx="1012" cy="172" r="86" fill="white" stroke="#FF0000" stroke-width="10"/>
<path d="M1008.51 230H1014.83C1019.27 218.843 1023.3 211.718 1039.97 188.866C1051.26 173.407 1054.62 164.4 1054.62 154.856C1054.62 143.026 1044.13 133.348 1032.57 133.348C1024.1 133.348 1016.44 137.649 1011.6 146.387C1006.9 137.649 999.236 133.348 990.902 133.348C979.072 133.348 968.856 143.026 968.856 154.856C968.856 164.669 972.889 174.213 983.508 188.731C1000.04 211.449 1003.81 218.17 1008.51 230ZM1011.6 218.305C1007.84 210.508 1002.06 201.233 994.262 190.748C986.466 180.128 981.492 172.466 979.475 167.761C977.459 163.056 976.384 158.754 976.384 154.856C976.384 147.193 983.239 140.875 990.902 140.875C998.295 140.875 1004.88 146.656 1008.24 158.754H1015.1C1018.19 147.597 1024.78 140.875 1032.57 140.875C1040.37 140.875 1047.09 147.193 1047.09 154.856C1047.09 158.889 1046.02 163.325 1043.87 168.03C1041.71 172.734 1036.74 180.666 1028.81 191.554C1020.88 202.443 1014.96 211.449 1011.6 218.305Z" fill="#FF0000"/>
<circle cx="1075" cy="521" r="86" fill="white" stroke="#FF0000" stroke-width="10"/>
<path d="M177.852 182.428C175.296 182.428 173.28 183.472 172.056 185.884C171.084 183.4 169.14 182.428 166.836 182.428C164.928 182.428 163.128 183.112 162.012 184.948V182.752H158.988L159.024 200.5H162.12V192.544C162.12 188.692 162.732 185.164 166.26 185.164C169.248 185.164 169.932 187.9 169.932 190.312V200.5H173.028V192.544C173.028 188.692 173.604 185.164 177.24 185.164C180.768 185.164 180.84 188.764 180.84 190.24V200.5H183.936V189.34C183.936 185.38 182.1 182.428 177.852 182.428ZM204.012 190.96C204.012 186.64 201.6 182.428 196.164 182.428C190.764 182.428 188.1 186.82 188.1 191.716C188.1 196.648 190.8 200.824 196.452 200.824C199.26 200.824 201.42 199.924 203.436 197.764L201.312 195.856C199.8 197.476 198.288 197.98 196.488 197.98C193.212 197.98 191.304 195.928 191.196 192.544H203.904C203.976 192.076 204.012 191.464 204.012 190.96ZM191.196 190.024C191.412 187.36 193.104 185.02 196.128 185.02C199.116 185.02 200.916 186.964 201.024 189.7C201.024 189.844 201.024 189.952 201.06 190.024H191.196ZM217.343 182.428C214.931 182.428 212.843 183.436 211.655 185.164V182.752H208.559V200.5H211.655V192.832C211.655 188.44 212.951 185.164 216.515 185.164C219.395 185.164 220.223 187.252 220.223 190.204V200.5H223.319V189.448C223.319 184.876 221.231 182.428 217.343 182.428ZM239.901 182.752V190.456C239.901 194.56 238.713 198.088 235.005 198.088C231.657 198.088 231.333 195.244 231.333 192.94V182.752H228.237V193.696C228.237 197.872 230.037 200.824 234.213 200.824C236.445 200.824 238.641 199.96 239.901 198.088V200.5H242.997V182.752H239.901ZM250.283 187.756H253.991V183.544H250.283V187.756ZM250.283 200.5H253.991V196.288H250.283V200.5Z" fill="#FF0000"/>
<path d="M521.442 395.731H523.508L524.278 391.761H522.212L521.442 395.731ZM516.742 420H518.727L522.617 400.026H520.632L516.742 420ZM532.237 401.606H537.018L537.342 400.026H532.561L533.979 392.733L531.71 394.273L530.576 400.026H527.254L526.93 401.606H530.292L527.578 415.584C527.456 416.07 527.416 416.637 527.416 417.123C527.416 419.271 528.712 420.284 530.738 420.284C531.548 420.284 532.561 420.081 533.615 419.797L533.777 418.096C532.804 418.42 531.954 418.582 531.305 418.582C530.049 418.582 529.401 418.055 529.401 416.799C529.401 416.475 529.442 416.07 529.523 415.584L532.237 401.606ZM557.261 400.026L556.491 403.956C555.519 401.403 553.048 399.742 549.766 399.742C543.445 399.742 538.583 405.982 538.583 412.343C538.583 417.042 541.339 420.284 546.119 420.284C549.28 420.284 552.318 418.744 554.141 416.151L553.412 420H555.397L559.287 400.026H557.261ZM555.6 409.304C554.871 414.328 551.062 418.42 546.403 418.42C542.757 418.42 540.569 415.948 540.569 412.14C540.569 407.035 544.499 401.565 549.928 401.565C554.06 401.565 556.248 404.807 555.6 409.304ZM566.081 420.284C566.769 420.284 567.701 420.122 568.755 419.797L568.917 418.096C568.106 418.379 567.418 418.501 566.81 418.501C565.473 418.501 564.987 417.772 565.351 415.908L570.051 391.761H568.066L563.366 415.867C562.799 418.866 563.852 420.284 566.081 420.284ZM577.784 395.731H579.85L580.62 391.761H578.554L577.784 395.731ZM573.084 420H575.069L578.959 400.026H576.973L573.084 420ZM589.713 420.284C593.238 420.284 596.398 418.379 598.303 414.976L596.561 414.125C595.183 416.88 592.671 418.501 589.835 418.501C586.148 418.501 584.568 415.908 584.568 412.626C584.568 407.157 588.093 401.525 593.319 401.525C595.953 401.525 597.857 403.105 598.343 405.82L600.369 405.171C599.559 401.687 597.087 399.742 593.481 399.742C587.161 399.742 582.583 406.022 582.583 412.586C582.583 417.042 585.054 420.284 589.713 420.284ZM521.944 444.964H523.902L524.812 441.047H522.854L521.944 444.964ZM516.444 469H518.304L522.834 449.237H520.974L516.444 469ZM531.42 469.277C532.35 469.277 533.319 469.138 533.932 468.96L534.17 467.18C533.636 467.358 532.745 467.576 531.875 467.576C529.56 467.576 528.729 466.329 529.422 463.243L532.31 450.839H538.027L538.403 449.237H532.666L534.387 441.818L532.191 443.243L530.826 449.237H527.483L527.127 450.839H530.431L527.562 463.382C526.672 467.2 527.978 469.277 531.42 469.277ZM546.534 469.277C549.996 469.277 553.379 467.18 555.318 463.797L554.19 469H555.951L560.501 449.237H558.582L557.375 454.42C556.94 451.136 554.487 448.96 550.985 448.96C545.762 448.96 541.193 453.391 539.887 458.911C538.601 464.687 541.212 469.277 546.534 469.277ZM547.108 467.536C542.755 467.536 540.658 463.936 541.747 459.267C542.835 454.42 546.771 450.681 551.223 450.681C555.555 450.681 557.593 454.242 556.485 458.911C555.377 463.837 551.519 467.536 547.108 467.536ZM566.752 469.277C567.484 469.277 568.394 469.158 569.265 468.98L569.502 467.338C568.849 467.477 568.216 467.556 567.702 467.556C565.447 467.556 565.783 466.092 566.178 464.371L571.559 441.047H569.68L564.24 464.687C563.646 467.239 563.725 469.277 566.752 469.277ZM579.473 444.964H581.431L582.341 441.047H580.383L579.473 444.964ZM573.973 469H575.833L580.363 449.237H578.503L573.973 469ZM590.353 469.277C593.855 469.277 597.04 467.398 598.998 464.034L597.416 463.243C595.932 465.874 593.34 467.536 590.531 467.536C585.981 467.536 584.755 463.659 585.783 459.326C586.812 454.835 589.997 450.681 594.607 450.681C597.277 450.681 599.078 452.224 599.513 454.895L601.412 454.321C600.739 450.899 598.326 448.96 594.785 448.96C589.067 448.96 585.131 453.906 583.944 458.97C582.618 464.806 584.893 469.277 590.353 469.277ZM521.118 497.893H524.035L524.845 493.761H521.928L521.118 497.893ZM516.499 522H519.295L523.184 502.026H520.389L516.499 522ZM533.08 504.173H537.902L538.307 502.026H533.486L534.944 494.612L531.743 496.718L530.73 502.026H527.408L526.963 504.173H530.285L527.773 517.219C527.692 517.624 527.611 518.232 527.611 518.759C527.611 521.19 529.191 522.324 531.5 522.324C532.432 522.324 533.526 522.122 534.579 521.797L534.863 519.488C533.891 519.812 532.999 519.974 532.351 519.974C531.095 519.974 530.406 519.488 530.406 518.273C530.406 518.029 530.447 517.624 530.528 517.219L533.08 504.173ZM557.24 502.026L556.673 504.983C555.539 502.998 553.189 501.702 550.312 501.702C543.911 501.702 539.211 508.022 539.211 514.383C539.211 519.123 541.844 522.324 546.787 522.324C549.502 522.324 552.176 521.271 553.918 519.326L553.391 522H556.146L560.036 502.026H557.24ZM555.701 510.939C555.174 515.68 551.73 519.731 547.192 519.731C543.87 519.731 541.966 517.584 541.966 514.099C541.966 509.4 545.45 504.254 550.515 504.254C554.202 504.254 556.146 506.928 555.701 510.939ZM566.676 522.324C567.405 522.324 568.378 522.162 569.471 521.838L569.755 519.488C568.985 519.731 568.337 519.853 567.729 519.853C566.554 519.853 566.109 519.285 566.433 517.665L571.052 493.761H568.297L563.637 517.624C563.03 520.785 564.285 522.324 566.676 522.324ZM577.974 497.893H580.891L581.701 493.761H578.784L577.974 497.893ZM573.355 522H576.151L580.04 502.026H577.245L573.355 522ZM590.544 522.324C594.15 522.324 597.391 520.379 599.336 516.895L596.946 515.72C595.69 518.273 593.34 519.853 590.706 519.853C587.344 519.853 585.926 517.503 585.926 514.545C585.926 509.44 589.167 504.173 594.029 504.173C596.419 504.173 598.161 505.632 598.526 508.184L601.321 507.293C600.552 503.687 597.959 501.702 594.231 501.702C587.83 501.702 583.13 507.86 583.13 514.464C583.13 518.921 585.601 522.324 590.544 522.324ZM521.687 547.102H524.417L525.346 543.047H522.616L521.687 547.102ZM516.227 571H518.838L523.368 551.237H520.777L516.227 571ZM531.875 571.297C532.904 571.297 533.992 571.138 534.644 570.941L535.02 568.468C534.466 568.685 533.477 568.982 532.528 568.982C530.51 568.982 529.719 567.934 530.352 565.144L533.062 553.453H538.601L539.096 551.237H533.576L535.337 543.601L532.29 545.52L531.004 551.237H527.681L527.167 553.453H530.45L527.72 565.362C526.85 569.14 528.294 571.297 531.875 571.297ZM546.989 571.297C550.115 571.297 553.201 569.576 555.12 566.588L554.19 571H556.623L561.173 551.237H558.503L557.454 555.668C556.9 552.76 554.546 550.92 551.361 550.92C546.119 550.92 541.707 555.411 540.421 560.851C539.135 566.628 541.588 571.297 546.989 571.297ZM547.84 568.923C543.764 568.923 542.004 565.619 542.993 561.346C544.022 556.816 547.543 553.314 551.737 553.314C555.773 553.314 557.514 556.578 556.485 560.851C555.456 565.441 552.014 568.923 547.84 568.923ZM567.187 571.297C567.979 571.297 569.027 571.178 569.957 571L570.293 568.725C569.68 568.844 569.067 568.943 568.572 568.943C566.673 568.943 566.812 567.775 567.168 566.252L572.529 543.047H569.917L564.438 566.727C563.805 569.516 564.299 571.297 567.187 571.297ZM579.849 547.102H582.579L583.508 543.047H580.778L579.849 547.102ZM574.388 571H577L581.53 551.237H578.938L574.388 571ZM591.303 571.297C594.884 571.297 598.128 569.398 600.146 565.955L597.95 564.848C596.605 567.301 594.191 568.923 591.54 568.923C587.326 568.923 586.278 565.322 587.208 561.405C588.157 557.231 591.105 553.314 595.418 553.314C597.891 553.314 599.513 554.758 599.849 557.231L602.48 556.46C601.847 552.918 599.354 550.92 595.675 550.92C589.799 550.92 585.843 555.866 584.656 560.911C583.35 566.648 585.566 571.297 591.303 571.297ZM520.875 600.015H524.521L525.331 595.761H521.685L520.875 600.015ZM516.296 624H519.781L523.67 604.026H520.186L516.296 624ZM533.803 606.659H538.665L539.151 604.026H534.289L535.748 596.571L531.777 599.205L530.845 604.026H527.523L526.996 606.659H530.319L527.928 618.895C527.847 619.3 527.766 619.867 527.766 620.435C527.766 623.109 529.63 624.365 532.182 624.365C533.155 624.365 534.289 624.162 535.424 623.797L535.788 620.961C534.856 621.245 533.965 621.448 533.236 621.448C531.98 621.448 531.291 621.002 531.291 619.827C531.291 619.584 531.332 619.219 531.413 618.895L533.803 606.659ZM557.302 604.026L556.776 606.7C555.682 604.877 553.413 603.661 550.739 603.661C544.337 603.661 539.84 610.022 539.84 616.505C539.84 621.164 542.393 624.365 547.214 624.365C549.685 624.365 552.238 623.433 553.939 621.448L553.453 624H556.938L560.827 604.026H557.302ZM555.884 612.615C555.52 617.153 552.4 621.123 547.984 621.123C544.945 621.123 543.284 619.26 543.284 616.181C543.284 611.643 546.404 606.862 551.144 606.862C554.507 606.862 556.168 609.171 555.884 612.615ZM567.391 624.365C568.161 624.365 569.174 624.203 570.268 623.838L570.673 620.961C569.943 621.164 569.336 621.285 568.728 621.285C567.715 621.285 567.269 620.84 567.553 619.462L572.131 595.761H568.687L564.069 619.422C563.42 622.704 564.838 624.365 567.391 624.365ZM578.601 600.015H582.248L583.058 595.761H579.412L578.601 600.015ZM574.023 624H577.507L581.397 604.026H577.913L574.023 624ZM591.692 624.365C595.379 624.365 598.701 622.379 600.686 618.814L597.728 617.355C596.554 619.746 594.366 621.285 591.935 621.285C588.815 621.285 587.559 619.138 587.559 616.464C587.559 611.724 590.557 606.74 595.095 606.74C597.283 606.74 598.863 608.118 599.147 610.508L602.631 609.414C601.861 605.687 599.187 603.661 595.338 603.661C588.856 603.661 584.075 609.739 584.075 616.383C584.075 620.84 586.546 624.365 591.692 624.365ZM521.429 649.241H524.931L525.9 645.047H522.379L521.429 649.241ZM516.029 673H519.372L523.902 653.237H520.559L516.029 673ZM532.31 673.336C533.457 673.336 534.664 673.158 535.357 672.921L535.891 669.756C535.278 670.013 534.189 670.369 533.2 670.369C531.459 670.369 530.708 669.558 531.262 667.065L533.814 656.066H539.155L539.808 653.237H534.466L536.267 645.363L532.409 647.777L531.163 653.237H527.859L527.206 656.066H530.47L527.879 667.362C527.028 671.061 528.611 673.336 532.31 673.336ZM547.444 673.336C550.214 673.336 553.043 671.991 554.902 669.36L554.17 673H557.316L561.846 653.237H558.424L557.553 656.897C556.861 654.404 554.605 652.901 551.757 652.901C546.475 652.901 542.221 657.411 540.955 662.792C539.669 668.549 541.964 673.336 547.444 673.336ZM548.572 670.29C544.793 670.29 543.349 667.283 544.259 663.405C545.189 659.231 548.295 655.947 552.251 655.947C556.01 655.947 557.415 658.915 556.505 662.792C555.535 667.065 552.508 670.29 548.572 670.29ZM567.642 673.336C568.513 673.336 569.7 673.198 570.689 673.02L571.144 670.131C570.531 670.23 569.957 670.31 569.502 670.31C567.939 670.31 567.88 669.479 568.177 668.153L573.538 645.047H570.175L564.695 668.766C564.002 671.793 564.932 673.336 567.642 673.336ZM580.264 649.241H583.766L584.735 645.047H581.214L580.264 649.241ZM574.863 673H578.207L582.737 653.237H579.394L574.863 673ZM592.292 673.336C595.952 673.336 599.275 671.398 601.333 667.876L598.524 666.452C597.317 668.707 595.062 670.29 592.609 670.29C588.731 670.29 587.841 667.006 588.691 663.465C589.562 659.607 592.252 655.947 596.268 655.947C598.543 655.947 599.988 657.273 600.245 659.567L603.608 658.598C602.975 654.918 600.403 652.901 596.605 652.901C590.591 652.901 586.594 657.826 585.408 662.851C584.122 668.489 586.298 673.336 592.292 673.336ZM520.632 702.136H525.007L525.899 697.761H521.523L520.632 702.136ZM516.094 726H520.267L524.156 706.026H519.983L516.094 726ZM534.485 709.186H539.387L540.036 706.026H535.133L536.592 698.571L531.771 701.65L530.92 706.026H527.678L527.03 709.186H530.312L528.124 720.53C528.043 720.936 527.962 721.503 527.962 722.07C527.962 725.028 530.028 726.365 532.824 726.365C533.877 726.365 535.052 726.203 536.268 725.838L536.754 722.394C535.782 722.718 534.89 722.88 534.161 722.88C532.905 722.88 532.176 722.475 532.176 721.341C532.176 721.098 532.216 720.855 532.257 720.571L534.485 709.186ZM557.444 706.026L556.958 708.497C555.945 706.836 553.798 705.661 551.205 705.661C544.763 705.661 540.549 712.063 540.549 718.626C540.549 723.245 542.94 726.365 547.64 726.365C549.909 726.365 552.339 725.554 554.041 723.569L553.595 726H557.728L561.617 706.026H557.444ZM556.107 714.291C555.945 718.586 553.15 722.516 548.855 722.516C546.06 722.516 544.682 720.936 544.682 718.221C544.682 713.886 547.356 709.429 551.813 709.429C554.851 709.429 556.269 711.414 556.107 714.291ZM568.146 726.365C568.915 726.365 569.969 726.243 571.144 725.878L571.589 722.394C570.982 722.597 570.374 722.718 569.807 722.718C568.875 722.718 568.51 722.435 568.713 721.3L573.291 697.761H569.118L564.54 721.219C563.891 724.663 565.472 726.365 568.146 726.365ZM579.268 702.136H583.644L584.535 697.761H580.16L579.268 702.136ZM574.731 726H578.904L582.793 706.026H578.62L574.731 726ZM592.919 726.365C596.687 726.365 600.009 724.379 602.035 720.733L598.51 718.991C597.497 721.219 595.431 722.718 593.162 722.718C590.326 722.718 589.232 720.814 589.232 718.383C589.232 713.967 591.947 709.308 596.16 709.308C598.227 709.308 599.604 710.564 599.766 712.832L603.939 711.536C603.17 707.687 600.455 705.661 596.485 705.661C589.881 705.661 585.019 711.576 585.019 718.262C585.019 722.718 587.49 726.365 592.919 726.365ZM521.172 751.359H525.465L526.454 747.047H522.161L521.172 751.359ZM515.811 775H519.886L524.436 755.237H520.361L515.811 775ZM532.765 775.376C534.011 775.376 535.337 775.158 536.069 774.901L536.741 771.043C536.089 771.34 534.921 771.756 533.853 771.756C532.429 771.756 531.697 771.162 532.191 768.966L534.565 758.679H539.709L540.5 755.237H535.357L537.216 747.126L532.508 750.054L531.341 755.237H528.057L527.265 758.679H530.49L528.037 769.342C527.206 773.002 528.927 775.376 532.765 775.376ZM547.958 775.376C550.372 775.376 552.924 774.387 554.744 772.151L554.21 775H558.028L562.558 755.237H558.384L557.692 758.145C556.841 756.048 554.685 754.861 552.172 754.861C546.851 754.861 542.755 759.431 541.529 764.733C540.223 770.489 542.38 775.376 547.958 775.376ZM549.343 771.657C545.861 771.657 544.734 768.966 545.545 765.484C546.396 761.627 549.106 758.58 552.805 758.58C556.287 758.58 557.375 761.251 556.544 764.733C555.674 768.669 553.023 771.657 549.343 771.657ZM568.137 775.376C569.087 775.376 570.412 775.218 571.441 775.02L572.014 771.518C571.441 771.617 570.887 771.696 570.452 771.696C569.245 771.696 568.988 771.162 569.245 770.034L574.566 747.047H570.491L564.992 770.826C564.24 774.07 565.585 775.376 568.137 775.376ZM580.719 751.359H585.012L586.001 747.047H581.708L580.719 751.359ZM575.358 775H579.433L583.983 755.237H579.908L575.358 775ZM593.34 775.376C597.079 775.376 600.443 773.417 602.54 769.817L599.137 768.056C598.069 770.114 595.972 771.657 593.716 771.657C590.155 771.657 589.443 768.689 590.195 765.524C590.986 762.003 593.439 758.58 597.159 758.58C599.236 758.58 600.502 759.807 600.68 761.904L604.755 760.717C604.142 756.918 601.511 754.861 597.574 754.861C591.402 754.861 587.386 759.807 586.199 764.772C584.933 770.331 587.049 775.376 593.34 775.376ZM520.389 804.258H525.494L526.385 799.761H521.28L520.389 804.258ZM515.891 828H520.753L524.643 808.026H519.781L515.891 828ZM535.208 811.672H540.151L540.88 808.026H535.937L537.396 800.531L531.804 804.136L531.035 808.026H527.793L527.064 811.672H530.346L528.28 822.206C528.199 822.611 528.118 823.138 528.118 823.746C528.118 826.947 530.467 828.405 533.506 828.405C534.6 828.405 535.815 828.243 537.112 827.838L537.679 823.867C536.747 824.151 535.856 824.354 535.046 824.354C533.79 824.354 533.06 823.989 533.06 822.895C533.06 822.652 533.101 822.449 533.141 822.247L535.208 811.672ZM557.546 808.026L557.1 810.214C556.128 808.715 554.062 807.621 551.671 807.621C545.229 807.621 541.218 814.063 541.218 820.748C541.218 825.285 543.528 828.405 548.106 828.405C550.132 828.405 552.401 827.757 554.143 825.691L553.697 828H558.559L562.448 808.026H557.546ZM549.686 823.908C547.174 823.908 546.04 822.611 546.04 820.302C546.04 816.129 548.349 812.037 552.482 812.037C555.196 812.037 556.331 813.658 556.331 815.967C556.331 820.059 553.859 823.908 549.686 823.908ZM568.9 828.405C569.71 828.405 570.804 828.284 571.979 827.878L572.547 823.867C571.979 824.029 571.412 824.151 570.845 824.151C570.075 824.151 569.71 823.989 569.873 823.098L574.41 799.761H569.548L565.011 823.017C564.322 826.582 566.064 828.405 568.9 828.405ZM579.975 804.258H585.08L585.971 799.761H580.866L579.975 804.258ZM575.478 828H580.339L584.229 808.026H579.367L575.478 828ZM594.146 828.405C597.995 828.405 601.398 826.379 603.464 822.652L599.372 820.626C598.44 822.692 596.536 824.151 594.47 824.151C591.877 824.151 590.945 822.449 590.945 820.302C590.945 816.251 593.416 811.875 597.306 811.875C599.17 811.875 600.385 813.05 600.466 815.157L605.328 813.658C604.558 809.687 601.763 807.621 597.671 807.621C590.986 807.621 586.043 813.455 586.043 820.181C586.043 824.637 588.514 828.405 594.146 828.405ZM520.915 853.498H525.98L526.988 849.047H521.924L520.915 853.498ZM515.613 877H520.421L524.971 857.237H520.144L515.613 877ZM533.22 877.396C534.565 877.396 536.009 877.158 536.781 876.881L537.592 872.331C536.9 872.668 535.653 873.142 534.526 873.142C533.378 873.142 532.686 872.786 533.101 870.887L535.337 861.273H540.263L541.212 857.237H536.267L538.166 848.888L532.607 852.331L531.519 857.237H528.235L527.305 861.273H530.51L528.195 871.322C527.384 874.943 529.244 877.396 533.22 877.396ZM548.413 877.396C550.491 877.396 552.746 876.802 554.526 874.943L554.21 877H558.701L563.251 857.237H558.305L557.771 859.373C556.801 857.672 554.744 856.821 552.548 856.821C547.207 856.821 543.27 861.451 542.063 866.673C540.757 872.43 542.736 877.396 548.413 877.396ZM550.075 873.024C546.87 873.024 546.059 870.63 546.791 867.564C547.563 864.042 549.877 861.193 553.32 861.193C556.524 861.193 557.296 863.587 556.564 866.673C555.753 870.274 553.517 873.024 550.075 873.024ZM568.612 877.396C569.621 877.396 571.085 877.237 572.173 877.04L572.865 872.905C572.291 872.984 571.757 873.063 571.362 873.063C570.511 873.063 570.056 872.865 570.274 871.936L575.575 849.047H570.748L565.249 872.865C564.438 876.347 566.218 877.396 568.612 877.396ZM581.134 853.498H586.199L587.208 849.047H582.143L581.134 853.498ZM575.833 877H580.64L585.19 857.237H580.363L575.833 877ZM594.33 877.396C598.148 877.396 601.59 875.417 603.727 871.738L599.73 869.661C598.781 871.54 596.842 873.024 594.785 873.024C591.54 873.024 591.006 870.353 591.659 867.603C592.391 864.398 594.567 861.193 598.029 861.193C599.889 861.193 600.977 862.341 601.056 864.24L605.883 862.855C605.27 858.938 602.559 856.821 598.504 856.821C592.193 856.821 588.138 861.767 586.951 866.713C585.704 872.173 587.762 877.396 594.33 877.396Z" fill="#FF0000"/>
<line x1="640.996" y1="85.0055" x2="644.468" y2="958.008" stroke="#FF0000" stroke-width="10"/>
<line x1="119" y1="87.0856" x2="122.471" y2="960.088" stroke="#FF0000" stroke-width="10"/>
<path d="M620 64L137 66.0126" stroke="#FF0000" stroke-width="10"/>
<path d="M623.562 982.086L140.566 984.007" stroke="#FF0000" stroke-width="10"/>
<path d="M643.516 89.9998C632.518 90.5435 613.506 87.6191 614.905 62.1133" stroke="#FF0000" stroke-width="10"/>
<path d="M620.385 987.06C620.184 973.842 623.664 951.095 648.882 953.459" stroke="#FF0000" stroke-width="10"/>
<path d="M117.88 955.145C128.889 954.939 147.802 958.444 145.623 983.895" stroke="#FF0000" stroke-width="10"/>
<path d="M141.858 62.9949C142.383 74.153 139.572 93.4411 115.019 92.0168" stroke="#FF0000" stroke-width="10"/>
<path d="M1057.42 565.033H1091.57V506.826H1112.13L1074.5 469.187L1036.86 506.826H1057.42V565.033ZM1061.46 561V502.793H1046.67L1074.5 474.967L1102.32 502.793H1087.53V561H1061.46Z" fill="#FF0000"/>
<path d="M1061.31 656.5L962.5 1049.49L863.691 656.5H1061.31Z" stroke="#FF0000" stroke-width="10"/>
<path d="M812.767 444.452L853.498 414.61L893.961 444.452L878.502 397.941L916.141 372.938H870.302L853.498 322.931L836.695 372.938H790.856L828.495 397.941L812.767 444.452ZM827.554 424.154L838.174 394.849L814.246 379.525H842.744L853.498 347.128L864.118 379.525H892.482L868.823 394.849L879.443 424.154L853.498 404.528L827.554 424.154Z" fill="#FF0000"/>
<path d="M164.101 298.313C164.952 298.313 165.981 298.179 166.921 297.978L166.854 296.143C166.182 296.299 165.489 296.366 164.952 296.366C162.356 296.366 162.288 294.621 162.288 292.674V266.379H160.162V293.189C160.162 296.098 160.7 298.313 164.101 298.313ZM172.337 270.81H174.552V266.379H172.337V270.81ZM172.381 298H174.485V275.644H172.381V298ZM193.686 295.337H188.606C185.674 295.337 183.817 294.464 183.75 292.159C183.683 290.951 184.153 289.966 185.428 288.937C186.749 289.832 188.427 290.324 190.329 290.324C194.962 290.324 198.363 287.392 198.363 282.961C198.363 281.462 197.983 280.097 197.311 278.956L200.758 275.867L199.661 274.48L196.215 277.568C194.805 276.158 192.791 275.33 190.374 275.33C185.697 275.33 182.25 278.441 182.25 282.85C182.25 284.819 182.922 286.542 184.108 287.818C182.407 289.16 181.691 290.66 181.736 292.338C181.803 294.531 183.011 295.896 184.645 296.59L181.042 299.477C180.93 299.902 180.885 300.327 180.885 300.775C180.885 305.452 184.981 308.205 191.314 308.205C197.155 308.205 200.489 305.497 200.489 301.267C200.489 297.597 198.117 295.337 193.686 295.337ZM190.396 277.076C193.977 277.076 196.304 279.493 196.304 282.917C196.304 286.251 193.977 288.578 190.374 288.578C186.749 288.578 184.376 286.229 184.376 282.894C184.376 279.537 186.793 277.076 190.396 277.076ZM191.18 306.504C185.003 306.504 182.899 303.796 182.899 300.73V300.081L186.01 297.015C186.525 297.105 187.062 297.15 187.599 297.15H192.925C196.864 297.15 198.453 298.918 198.453 301.424C198.453 305.005 195.23 306.504 191.18 306.504ZM206.554 298H208.702V284.752C208.702 280.298 211.209 277.277 215.349 277.277C219.489 277.277 221.324 279.873 221.324 284.282V298H223.472V283.588C223.338 278.709 220.809 275.33 215.796 275.33C212.596 275.33 209.955 276.941 208.702 279.828V266.379H206.554V298ZM237.929 298.313C239.026 298.313 240.1 298.112 240.749 297.933L240.682 295.964C240.1 296.187 239.182 296.389 238.242 296.389C235.557 296.389 234.237 294.889 234.237 291.398V277.456H240.704V275.644H234.237V267.251L232.155 268.863V275.644H228.373V277.456H232.111V291.712C232.111 296.053 234.08 298.313 237.929 298.313ZM246.59 284.729H258.339V283.051H246.59V284.729ZM270.446 298.313C271.296 298.313 272.325 298.179 273.265 297.978L273.198 296.143C272.527 296.299 271.833 296.366 271.296 296.366C268.7 296.366 268.633 294.621 268.633 292.674V266.379H266.507V293.189C266.507 296.098 267.044 298.313 270.446 298.313ZM287.118 298.313C290.654 298.313 293.026 297.284 295.577 294.71L294.078 293.345C291.907 295.583 290.027 296.344 287.118 296.344C282.284 296.344 279.352 292.965 279.218 287.281H296.069C296.159 286.945 296.204 286.05 296.204 285.356C296.204 281.126 293.876 275.33 286.737 275.33C280.583 275.33 276.98 280.455 276.98 286.945C276.98 293.502 280.695 298.313 287.118 298.313ZM279.218 285.669C279.554 280.634 282.351 277.165 286.715 277.165C291.862 277.165 293.876 281.014 294.055 284.282C294.1 284.707 294.1 285.222 294.055 285.669H279.218ZM313.502 295.337H308.422C305.491 295.337 303.633 294.464 303.566 292.159C303.499 290.951 303.969 289.966 305.245 288.937C306.565 289.832 308.243 290.324 310.146 290.324C314.778 290.324 318.18 287.392 318.18 282.961C318.18 281.462 317.799 280.097 317.128 278.956L320.574 275.867L319.478 274.48L316.031 277.568C314.621 276.158 312.607 275.33 310.19 275.33C305.513 275.33 302.067 278.441 302.067 282.85C302.067 284.819 302.738 286.542 303.924 287.818C302.224 289.16 301.507 290.66 301.552 292.338C301.619 294.531 302.828 295.896 304.461 296.59L300.858 299.477C300.747 299.902 300.702 300.327 300.702 300.775C300.702 305.452 304.797 308.205 311.13 308.205C316.971 308.205 320.306 305.497 320.306 301.267C320.306 297.597 317.934 295.337 313.502 295.337ZM310.213 277.076C313.793 277.076 316.121 279.493 316.121 282.917C316.121 286.251 313.793 288.578 310.19 288.578C306.565 288.578 304.193 286.229 304.193 282.894C304.193 279.537 306.61 277.076 310.213 277.076ZM310.996 306.504C304.819 306.504 302.716 303.796 302.716 300.73V300.081L305.827 297.015C306.341 297.105 306.878 297.15 307.415 297.15H312.742C316.68 297.15 318.269 298.918 318.269 301.424C318.269 305.005 315.047 306.504 310.996 306.504ZM333.397 275.33C329.571 275.33 327.064 276.807 324.893 279.828L326.527 281.037C328.25 278.53 330.287 277.232 333.397 277.232C338.074 277.232 340.089 279.672 340.089 284.662V285.266H333.554C327.512 285.266 324.021 287.213 324.021 291.644C324.021 295.807 327.086 298.313 331.607 298.313C335.188 298.313 338.321 296.501 340.111 292.965L340.245 298H342.058V284.304C342.058 278.642 338.992 275.33 333.397 275.33ZM331.965 296.456C328.317 296.456 326.191 294.598 326.191 291.712C326.191 288.601 328.608 286.9 333.643 286.9H340.089V290.123C338.701 294.061 335.971 296.456 331.965 296.456ZM357.969 298.313C361.975 298.313 365.131 296.098 366.473 292.293L364.526 291.555C363.519 294.554 361.102 296.344 357.947 296.344C352.777 296.344 350.316 291.868 350.316 286.855C350.316 281.887 352.755 277.277 357.925 277.277C360.99 277.277 363.475 279.112 364.683 282.111L366.697 281.328C365.063 277.456 361.886 275.33 357.925 275.33C351.39 275.33 348.167 280.992 348.167 286.855C348.167 293.323 351.838 298.313 357.969 298.313ZM375.335 307.556H377.663L389.747 275.644H387.442L380.192 295.292L371.62 275.644H369.271L379.05 297.821L375.335 307.556ZM170.025 335.038C167.733 335.038 164.983 335.817 163.333 338.796V335.405H160.171V358H163.333V345.396C163.333 340.492 165.9 337.88 169.383 337.88C170.345 337.88 171.308 338.109 172.362 338.567L173.92 336.001C172.683 335.313 171.4 335.038 170.025 335.038ZM194.564 345.58C194.564 340.446 191.677 335.038 184.756 335.038C178.202 335.038 174.719 340.446 174.719 346.817C174.719 353.233 178.248 358.367 185.123 358.367C188.606 358.367 191.218 357.358 193.877 354.563L191.677 352.638C189.614 354.838 187.643 355.479 185.168 355.479C180.723 355.479 177.973 352.5 177.881 347.55H194.426C194.518 347 194.564 346.221 194.564 345.58ZM184.756 337.696C188.927 337.696 191.264 340.492 191.493 344.159C191.493 344.571 191.539 344.8 191.539 344.892H177.881C178.156 340.905 180.677 337.696 184.756 337.696ZM208.736 355.25C205.482 354.746 202.641 354.196 202.641 351.904C202.641 350.942 203.191 350.117 204.107 349.613C205.437 350.346 207.041 350.759 208.782 350.759C213.549 350.759 217.307 347.688 217.307 343.059C217.307 341.455 216.849 340.034 216.07 338.796L219.14 336.23L217.49 334.167L214.374 336.871C212.907 335.726 210.936 335.038 208.736 335.038C203.878 335.038 200.12 338.292 200.12 342.875C200.12 344.892 200.853 346.634 202.045 348.009C200.441 349.109 199.616 350.484 199.616 352.317C199.616 354.563 200.808 355.846 202.549 356.625L198.883 359.742C198.837 360.017 198.791 360.292 198.791 360.75C198.791 365.241 202.595 367.716 208.874 367.716C214.557 367.716 218.544 365.746 218.544 361.483C218.544 356.579 213.228 355.938 208.736 355.25ZM208.782 337.696C212.036 337.696 214.145 339.851 214.145 342.967C214.145 345.946 212.128 348.146 208.736 348.146C205.345 348.146 203.237 345.9 203.237 342.967C203.237 339.851 205.574 337.696 208.782 337.696ZM209.011 365.058C205.162 365.058 201.907 364.05 201.907 360.842C201.907 360.75 201.907 360.658 201.953 360.429L205.024 357.45C205.987 357.679 207.041 357.863 208.049 358C211.807 358.596 215.382 359.008 215.382 361.758C215.382 363.958 212.999 365.058 209.011 365.058ZM238.921 335.405V345.809C238.921 351.675 236.676 355.571 232.184 355.571C227.876 355.571 227.234 352.134 227.234 348.467V335.405H224.072V349.246C224.072 354.838 226.318 358.367 231.451 358.367C234.43 358.367 237.317 357.175 238.921 354.746V358H242.084V335.405H238.921ZM254.572 358.367C255.58 358.367 256.726 358.092 257.689 357.771L257.643 355.067C256.955 355.296 256.176 355.479 255.489 355.479C253.976 355.479 253.426 354.471 253.426 352.913V326.055H250.264V353.096C250.264 356.625 251.96 358.367 254.572 358.367ZM270.637 335.038C266.788 335.038 263.854 336.505 261.425 339.667L263.717 341.592C265.55 339.071 267.75 337.834 270.592 337.834C274.396 337.834 276.458 339.988 276.458 343.93V344.984H271.829C267.383 344.984 264.954 345.396 263.213 346.405C261.563 347.413 260.646 349.154 260.646 351.446C260.646 355.8 263.534 358.367 268.438 358.367C272.012 358.367 274.762 357.038 276.55 354.517L276.733 358H279.621V343.93C279.621 338.292 276.321 335.038 270.637 335.038ZM269.354 355.754C265.963 355.754 263.809 354.15 263.809 351.629C263.809 350.346 264.221 349.338 265.046 348.696C266.146 347.825 267.933 347.55 272.104 347.55H276.458V347.871C276.458 352.683 273.708 355.754 269.354 355.754ZM297.181 335.038C294.89 335.038 292.14 335.817 290.49 338.796V335.405H287.327V358H290.49V345.396C290.49 340.492 293.056 337.88 296.54 337.88C297.502 337.88 298.465 338.109 299.519 338.567L301.077 336.001C299.84 335.313 298.556 335.038 297.181 335.038ZM183.82 394.992C180.566 394.992 177.999 396.321 176.441 399.392C175.204 396.23 172.729 394.992 169.795 394.992C167.366 394.992 165.075 395.863 163.654 398.201V395.405H159.804L159.85 418H163.791V407.871C163.791 402.967 164.571 398.476 169.062 398.476C172.866 398.476 173.737 401.959 173.737 405.03V418H177.679V407.871C177.679 402.967 178.412 398.476 183.041 398.476C187.532 398.476 187.624 403.059 187.624 404.938V418H191.566V403.792C191.566 398.751 189.228 394.992 183.82 394.992ZM217.124 405.855C217.124 400.355 214.053 394.992 207.133 394.992C200.258 394.992 196.866 400.584 196.866 406.817C196.866 413.096 200.304 418.412 207.499 418.412C211.074 418.412 213.824 417.267 216.391 414.517L213.687 412.088C211.762 414.15 209.837 414.792 207.545 414.792C203.374 414.792 200.945 412.179 200.808 407.871H216.987C217.078 407.275 217.124 406.496 217.124 405.855ZM200.808 404.663C201.083 401.271 203.237 398.292 207.087 398.292C210.891 398.292 213.182 400.767 213.32 404.25C213.32 404.434 213.32 404.571 213.366 404.663H200.808ZM238.176 386.055V398.246C236.617 396.184 234.005 394.992 231.026 394.992C224.976 394.992 221.126 399.53 221.126 406.68C221.126 413.417 224.563 418.412 231.026 418.412C234.005 418.412 236.571 417.313 238.176 415.204V418H242.117V386.055H238.176ZM231.759 414.838C227.313 414.838 225.068 411.492 225.068 406.68C225.068 401.73 227.497 398.521 231.759 398.521C236.113 398.521 238.496 401.867 238.496 406.68C238.496 411.354 236.251 414.838 231.759 414.838ZM249.584 390.867H253.984V386.055H249.584V390.867ZM249.813 418H253.754V395.405H249.813V418ZM275.75 395.405V405.213C275.75 410.438 274.237 414.929 269.516 414.929C265.254 414.929 264.842 411.309 264.842 408.375V395.405H260.9V409.338C260.9 414.654 263.192 418.412 268.508 418.412C271.35 418.412 274.145 417.313 275.75 414.929V418H279.691V395.405H275.75ZM311.38 394.992C308.125 394.992 305.559 396.321 304.001 399.392C302.763 396.23 300.288 394.992 297.355 394.992C294.926 394.992 292.634 395.863 291.213 398.201V395.405H287.364L287.409 418H291.351V407.871C291.351 402.967 292.13 398.476 296.622 398.476C300.426 398.476 301.297 401.959 301.297 405.03V418H305.238V407.871C305.238 402.967 305.971 398.476 310.6 398.476C315.092 398.476 315.184 403.059 315.184 404.938V418H319.125V403.792C319.125 398.751 316.788 394.992 311.38 394.992ZM159.782 473H163.586V460.065C163.586 456.484 165.712 453.799 169.204 453.799C172.583 453.799 173.925 456.171 173.925 459.707V473H177.708V460.065C177.708 456.484 179.856 453.799 183.302 453.799C186.793 453.799 188.047 456.261 188.047 460.266V473H191.851V459.819C191.851 454.426 189.501 450.263 184.041 450.263C180.908 450.263 178.2 451.718 176.723 454.873C175.626 451.583 172.963 450.263 169.942 450.263C167.167 450.263 164.728 451.427 163.43 454.157V450.644H159.76L159.782 473ZM207.606 473.38C211.253 473.38 213.939 472.217 216.423 469.554L213.782 467.249C211.925 469.218 210.09 469.934 207.628 469.934C203.443 469.934 201.183 467.249 200.892 462.952H216.982C217.072 462.616 217.161 461.721 217.161 460.893C217.161 456.283 214.722 450.263 207.225 450.263C200.377 450.263 196.886 455.768 196.886 461.922C196.886 468.211 200.534 473.38 207.606 473.38ZM200.892 460.177C201.317 456.261 203.421 453.463 207.203 453.463C210.963 453.463 212.932 455.992 213.312 458.767C213.402 459.215 213.402 459.685 213.402 460.177H200.892ZM230.768 473.38C233.99 473.38 236.877 471.724 238.332 468.77L238.489 473H242.024V441.379H238.175V454.672C236.721 451.852 233.834 450.263 230.701 450.263C224.636 450.263 220.899 455.522 220.899 461.811C220.899 468.121 224.636 473.38 230.768 473.38ZM231.663 469.934C227.277 469.934 224.748 466.376 224.748 461.811C224.748 457.268 227.277 453.709 231.663 453.709C236.004 453.709 238.489 457.223 238.489 461.811C238.489 466.421 236.004 469.934 231.663 469.934ZM249.499 446.123H253.46V441.379H249.499V446.123ZM249.588 473H253.37V450.644H249.588V473ZM268.141 473.38C270.848 473.38 273.489 472.15 275.011 469.598V473H278.77V450.644H275.011V463.534C275.011 467.719 272.728 469.867 269.17 469.867C265.791 469.867 264.023 467.562 264.023 463.869V450.644H260.263V464.541C260.33 469.33 262.702 473.38 268.141 473.38ZM286.312 473H290.117V460.065C290.117 456.484 292.243 453.799 295.734 453.799C299.113 453.799 300.456 456.171 300.456 459.707V473H304.238V460.065C304.238 456.484 306.386 453.799 309.832 453.799C313.323 453.799 314.577 456.261 314.577 460.266V473H318.381V459.819C318.381 454.426 316.031 450.263 310.571 450.263C307.438 450.263 304.73 451.718 303.253 454.873C302.156 451.583 299.493 450.263 296.472 450.263C293.697 450.263 291.258 451.427 289.96 454.157V450.644H286.29L286.312 473ZM325.095 460.692H337.515V457.782H325.095V460.692ZM349.063 473.38C350.137 473.38 351.479 473.201 352.509 472.978L352.486 469.777C351.838 469.889 351.211 469.956 350.763 469.956C348.928 469.956 348.548 468.86 348.548 467.361V441.379H344.743V468.368C344.743 471.792 346.086 473.38 349.063 473.38ZM366.227 473.38C369.875 473.38 372.56 472.217 375.044 469.554L372.404 467.249C370.546 469.218 368.711 469.934 366.25 469.934C362.065 469.934 359.804 467.249 359.513 462.952H375.604C375.693 462.616 375.783 461.721 375.783 460.893C375.783 456.283 373.344 450.263 365.847 450.263C358.999 450.263 355.508 455.768 355.508 461.922C355.508 468.211 359.155 473.38 366.227 473.38ZM359.513 460.177C359.939 456.261 362.042 453.463 365.824 453.463C369.584 453.463 371.553 455.992 371.934 458.767C372.023 459.215 372.023 459.685 372.023 460.177H359.513ZM392.388 469.755H387.487C385.518 469.755 383.436 469.307 383.392 467.159C383.369 466.286 383.705 465.481 384.667 464.809C385.988 465.57 387.621 465.995 389.412 465.995C394.223 465.995 397.983 462.952 397.983 458.252C397.983 456.82 397.625 455.477 396.998 454.314L400.333 451.494L398.386 449.055L394.984 452.009C393.552 450.912 391.65 450.263 389.434 450.263C384.533 450.263 380.818 453.486 380.818 458.118C380.818 459.953 381.4 461.587 382.407 462.885C380.572 464.16 379.833 465.794 379.856 467.54C379.878 469.912 381.31 471.411 382.855 472.194L379.453 474.186C379.296 474.678 379.207 475.238 379.207 475.864C379.207 480.765 383.974 483.227 390.083 483.227C396.483 483.227 399.795 480.363 399.795 475.999C399.795 471.523 396.349 469.755 392.388 469.755ZM389.501 453.284C392.478 453.284 394.313 455.388 394.313 458.185C394.313 460.96 392.478 462.952 389.479 462.952C386.458 462.952 384.6 460.938 384.6 458.185C384.6 455.41 386.48 453.284 389.501 453.284ZM389.837 480.296C383.795 480.296 382.743 477.744 382.743 475.82V475.238L385.227 472.91C385.361 472.933 385.495 472.933 385.607 472.933H390.911C393.999 472.933 396.148 473.828 396.148 476.312C396.148 479.132 393.552 480.296 389.837 480.296ZM412.619 450.263C408.523 450.263 405.838 451.986 403.667 454.963L406.576 457.066C407.919 454.985 409.821 453.575 412.663 453.575C416.893 453.575 418.325 455.612 418.348 459.975H412.014C406.509 459.975 402.794 461.743 402.794 466.376C402.794 470.807 406.106 473.38 410.649 473.38C413.715 473.38 416.803 471.926 418.392 469.017L418.638 473H421.794V459.371C421.794 453.821 418.482 450.263 412.619 450.263ZM411.388 470.136C408.344 470.136 406.688 468.681 406.688 466.51C406.688 464.25 408.478 462.75 412.238 462.75H418.348V464.205C417.609 467.562 415.17 470.136 411.388 470.136ZM437.056 473.38C441.286 473.38 444.598 471.053 446.008 467.047L442.561 465.749C441.756 468.3 439.697 469.934 437.011 469.934C432.536 469.934 430.589 466.063 430.589 461.855C430.589 457.715 432.536 453.709 437.011 453.709C439.675 453.709 441.733 455.365 442.629 457.961L446.232 456.552C444.576 452.389 441.196 450.263 437.011 450.263C430.096 450.263 426.74 455.992 426.74 461.855C426.74 468.054 430.343 473.38 437.056 473.38ZM452.923 482.601H457.063L469.506 450.644H465.343L458.853 468.233L451.759 450.644H447.574L456.839 472.62L452.923 482.601ZM166.205 528.425C170.479 528.425 174.664 526.143 174.664 521.197C174.664 512.872 162.736 515.401 162.736 511.305C162.736 509.918 164.079 508.888 166.227 508.888C168.756 508.888 170.211 510.365 171.083 511.954L174.664 510.007C173.008 507.009 170.121 505.218 166.384 505.218C162.087 505.218 158.305 507.434 158.305 511.91C158.305 519.854 170.121 516.9 170.121 521.421C170.121 522.987 168.778 524.554 165.981 524.554C162.848 524.554 161.304 522.495 160.632 520.637L156.918 522.271C158.036 525.695 161.595 528.425 166.205 528.425ZM188.986 528.425C192.679 528.425 195.499 527.172 197.96 524.487L194.783 521.689C193.059 523.547 191.247 524.218 189.009 524.218C185.16 524.218 183.235 521.891 182.832 518.265H198.565C198.654 517.952 198.744 517.034 198.744 516.184C198.744 511.372 196.282 505.218 188.606 505.218C181.4 505.218 177.954 510.925 177.954 516.922C177.954 523.054 181.601 528.425 188.986 528.425ZM182.832 514.908C183.302 511.552 185.07 509.112 188.561 509.112C191.65 509.112 193.597 510.97 194.044 513.498C194.156 513.946 194.201 514.416 194.178 514.908H182.832ZM203.891 528H208.523V515.401C208.523 512.111 210.47 509.537 213.693 509.537C216.781 509.537 217.855 511.82 217.855 514.931V528H222.488V515.401C222.488 512.111 224.435 509.537 227.612 509.537C230.79 509.537 231.82 511.887 231.82 515.266V528H236.452V514.685C236.452 509.627 234.102 505.218 228.53 505.218C225.621 505.218 222.935 506.472 221.302 509.493C220.093 506.36 217.385 505.218 214.61 505.218C212.081 505.218 209.709 506.181 208.322 508.799V505.644H203.868L203.891 528ZM242.741 501.257H247.574V496.379H242.741V501.257ZM242.852 528H247.462V505.644H242.852V528ZM266.216 528.425C272.348 528.425 275.772 523.054 275.772 516.811C275.772 510.544 272.348 505.218 266.149 505.218C263.374 505.218 260.8 506.404 259.301 508.777V496.379H254.534V528H259.301V524.845C260.8 527.239 263.486 528.425 266.216 528.425ZM265.075 524.151C261.024 524.151 258.876 520.995 258.876 516.811C258.876 512.648 261.024 509.426 265.075 509.426C269.148 509.426 271.095 512.693 271.095 516.811C271.095 520.951 269.148 524.151 265.075 524.151ZM290.161 528.425C296.897 528.425 301.418 523.121 301.418 516.766C301.418 510.433 296.897 505.218 290.161 505.218C283.425 505.218 278.927 510.433 278.927 516.766C278.927 523.144 283.425 528.425 290.161 528.425ZM290.161 524.419C285.797 524.419 283.739 520.884 283.739 516.766C283.739 512.67 285.797 509.224 290.161 509.224C294.525 509.224 296.606 512.693 296.606 516.766C296.606 520.861 294.525 524.419 290.161 524.419ZM310.772 528.425C311.936 528.425 313.435 528.224 314.532 528L314.51 524.106C313.905 524.196 313.279 524.263 312.898 524.263C311.421 524.263 310.884 523.479 310.884 522.204V496.379H306.274V523.457C306.274 527.15 307.997 528.425 310.772 528.425ZM326.997 528.425C329.861 528.425 332.525 527.15 334.046 524.621L334.225 528H338.544V496.379H333.845V508.777C332.346 506.404 329.66 505.218 326.93 505.218C320.798 505.218 317.24 510.567 317.24 516.811C317.24 523.099 320.798 528.425 326.997 528.425ZM328.116 524.218C324.043 524.218 321.939 520.973 321.939 516.811C321.939 512.693 324.043 509.426 328.116 509.426C332.166 509.426 334.225 512.648 334.225 516.811C334.225 521.018 332.166 524.218 328.116 524.218ZM361.259 528.425C362.423 528.425 363.922 528.224 365.019 528L364.996 524.106C364.392 524.196 363.765 524.263 363.385 524.263C361.908 524.263 361.371 523.479 361.371 522.204V496.379H356.761V523.457C356.761 527.15 358.484 528.425 361.259 528.425ZM378.67 528.425C382.362 528.425 385.182 527.172 387.644 524.487L384.466 521.689C382.743 523.547 380.93 524.218 378.692 524.218C374.843 524.218 372.918 521.891 372.516 518.265H388.248C388.337 517.952 388.427 517.034 388.427 516.184C388.427 511.372 385.965 505.218 378.289 505.218C371.083 505.218 367.637 510.925 367.637 516.922C367.637 523.054 371.285 528.425 378.67 528.425ZM372.516 514.908C372.986 511.552 374.753 509.112 378.245 509.112C381.333 509.112 383.28 510.97 383.727 513.498C383.839 513.946 383.884 514.416 383.862 514.908H372.516ZM404.741 524.442H399.93C398.43 524.442 396.26 524.218 396.237 522.181C396.215 521.443 396.483 520.749 397.267 520.212C398.609 520.928 400.221 521.331 401.989 521.331C406.89 521.331 410.783 518.22 410.783 513.409C410.783 511.999 410.448 510.679 409.844 509.537L413.156 506.785L410.761 503.831L407.359 506.785C405.927 505.8 404.092 505.218 401.989 505.218C396.976 505.218 393.127 508.508 393.127 513.252C393.127 515.02 393.664 516.609 394.581 517.907C392.701 519.138 391.918 520.861 391.918 522.629C391.94 525.091 393.417 526.613 394.917 527.485L391.672 529.052C391.493 529.567 391.359 530.193 391.359 530.932C391.359 535.922 396.483 538.25 402.503 538.25C409.172 538.25 412.462 535.296 412.462 530.887C412.462 525.986 408.456 524.442 404.741 524.442ZM402.056 508.888C404.741 508.888 406.33 510.835 406.33 513.342C406.33 515.826 404.741 517.639 402.056 517.639C399.325 517.639 397.737 515.804 397.737 513.319C397.737 510.835 399.348 508.888 402.056 508.888ZM402.19 534.691C396.215 534.691 395.678 532.207 395.678 530.842V530.305L397.916 528.336H402.906C405.569 528.336 408.031 528.783 408.031 531.267C408.031 533.707 405.748 534.691 402.19 534.691ZM425.195 505.218C420.943 505.218 418.168 507.053 416.02 510.03L419.556 512.581C420.697 510.724 422.532 509.269 425.218 509.269C429.134 509.269 430.32 510.97 430.41 514.819H424.188C418.952 514.819 415.147 516.497 415.147 521.264C415.147 525.807 418.549 528.425 423.137 528.425C425.934 528.425 428.977 527.127 430.477 524.509L430.79 528H434.617V514.394C434.617 508.888 431.171 505.218 425.195 505.218ZM424.054 524.487C421.302 524.487 419.892 523.233 419.892 521.398C419.892 519.563 421.346 518.176 424.457 518.176H430.41V518.869C429.94 521.891 427.679 524.487 424.054 524.487ZM449.544 528.425C453.885 528.425 457.264 526.008 458.719 521.935L454.512 520.346C453.818 522.674 451.938 524.218 449.499 524.218C445.359 524.218 443.68 520.66 443.68 516.855C443.68 513.118 445.381 509.426 449.499 509.426C451.938 509.426 453.796 511.014 454.557 513.364L458.943 511.663C457.264 507.367 453.818 505.218 449.499 505.218C442.405 505.218 438.981 510.992 438.981 516.855C438.981 522.92 442.539 528.425 449.544 528.425ZM464.649 537.601H469.707L482.329 505.644H477.249L471.139 522.204L464.761 505.644H459.681L468.678 527.508L464.649 537.601ZM171.262 564.947C168.695 564.947 166.175 566.001 164.754 567.696V556.055H159.254V588H164.754V585.754C166.312 587.679 168.833 588.458 171.262 588.458C177.404 588.458 180.795 583.463 180.795 576.68C180.795 569.301 176.808 564.947 171.262 564.947ZM169.933 583.371C165.946 583.371 164.25 580.484 164.25 576.725C164.25 572.967 165.946 569.942 169.887 569.942C173.554 569.942 175.295 572.509 175.295 576.725C175.295 580.896 173.599 583.371 169.933 583.371ZM194.785 588.458C201.751 588.458 206.105 583.05 206.105 576.68C206.105 570.263 201.751 564.947 194.785 564.947C187.773 564.947 183.464 570.263 183.464 576.68C183.464 583.05 187.773 588.458 194.785 588.458ZM194.785 583.646C190.614 583.646 188.964 580.346 188.964 576.68C188.964 572.967 190.614 569.759 194.785 569.759C198.956 569.759 200.606 572.967 200.606 576.68C200.606 580.346 198.956 583.646 194.785 583.646ZM215.588 588.458C216.642 588.458 217.88 588.229 219.117 587.771V583.371C218.475 583.554 217.88 583.646 217.375 583.646C216.367 583.646 215.771 583.233 215.771 582.225V556.055H210.271V582.592C210.271 586.625 212.517 588.458 215.588 588.458ZM237.556 556.055V567.696C236.135 566.001 233.615 564.947 231.048 564.947C225.502 564.947 221.515 569.301 221.515 576.68C221.515 583.463 224.907 588.458 231.048 588.458C233.477 588.458 235.998 587.679 237.556 585.754V588H243.056V556.055H237.556ZM232.377 583.371C228.711 583.371 227.015 580.896 227.015 576.725C227.015 572.509 228.756 569.942 232.423 569.942C236.364 569.942 238.06 572.967 238.06 576.725C238.06 580.484 236.364 583.371 232.377 583.371ZM171.445 624.901C168.97 624.901 166.587 625.909 165.166 627.421V616.055H158.933V648H165.166V646.075C166.771 647.817 169.2 648.504 171.354 648.504C177.358 648.504 180.749 643.463 180.749 636.68C180.749 629.209 176.67 624.901 171.445 624.901ZM169.795 642.683C166.037 642.683 164.571 640.071 164.571 636.725C164.571 633.471 165.946 630.584 169.704 630.584C173.095 630.584 174.562 632.875 174.562 636.725C174.562 640.621 173.095 642.683 169.795 642.683ZM194.467 648.504C201.571 648.504 205.925 642.958 205.925 636.68C205.925 630.355 201.617 624.901 194.467 624.901C187.272 624.901 183.009 630.355 183.009 636.68C183.009 642.958 187.318 648.504 194.467 648.504ZM194.467 643.05C190.48 643.05 189.197 639.888 189.197 636.68C189.197 633.38 190.526 630.309 194.467 630.309C198.455 630.309 199.738 633.38 199.738 636.68C199.738 639.934 198.409 643.05 194.467 643.05ZM215.05 648.504C216.104 648.504 217.387 648.275 218.716 647.771V642.867C218.121 643.004 217.571 643.096 217.112 643.096C216.196 643.096 215.646 642.821 215.646 641.767V616.055H209.458V642.409C209.458 646.625 211.887 648.504 215.05 648.504ZM236.33 616.055V627.467C234.956 625.909 232.526 624.901 230.097 624.901C224.781 624.901 220.702 629.209 220.702 636.68C220.702 643.463 224.093 648.504 230.097 648.504C232.297 648.504 234.772 647.817 236.33 645.983V648H242.518V616.055H236.33ZM231.701 642.683C228.585 642.683 226.935 640.621 226.935 636.725C226.935 632.875 228.585 630.584 231.747 630.584C235.506 630.584 236.88 633.471 236.88 636.725C236.88 640.071 235.46 642.683 231.701 642.683ZM248.266 636.863H261.787V632.234H248.266V636.863ZM272.832 648.504C273.886 648.504 275.169 648.275 276.499 647.771V642.867C275.903 643.004 275.353 643.096 274.894 643.096C273.978 643.096 273.428 642.821 273.428 641.767V616.055H267.241V642.409C267.241 646.625 269.67 648.504 272.832 648.504ZM299.842 636.634C299.842 630.034 296.313 624.901 289.255 624.901C281.463 624.901 278.347 631.042 278.347 636.817C278.347 642.729 281.555 648.504 289.621 648.504C293.517 648.504 296.633 647.038 299.063 644.333L294.754 640.529C293.334 642.225 291.546 642.867 289.667 642.867C286.413 642.867 284.809 641.171 284.534 638.788H299.704C299.796 637.963 299.842 637.321 299.842 636.634ZM284.488 634.067C284.763 632.234 286.046 630.08 289.209 630.08C291.775 630.08 293.838 631.592 293.929 634.067H284.488ZM312.615 644.333C309.773 644.013 307.711 643.646 307.711 642.134C307.711 641.767 307.848 641.4 308.078 641.125C309.361 641.675 310.827 641.95 312.432 641.95C317.748 641.95 321.781 638.696 321.781 633.655C321.781 632.234 321.46 630.951 320.91 629.805L324.21 627.101L320.956 623.205L317.427 626.23C315.915 625.359 314.127 624.901 312.248 624.901C307.115 624.901 302.761 628.338 302.761 633.425C302.761 635.396 303.403 637.184 304.548 638.559C303.311 639.75 302.578 641.171 302.578 643.142C302.578 645.571 303.723 647.083 305.373 648L302.074 649.65C301.982 650.017 301.936 650.429 301.936 650.887C301.936 655.425 306.107 658.083 312.752 658.083C318.894 658.083 323.34 655.837 323.34 650.887C323.34 645.663 318.161 645.021 312.615 644.333ZM312.34 630.08C314.402 630.08 315.594 631.409 315.594 633.471C315.594 635.442 314.586 637 312.34 637C310.002 637 308.994 635.396 308.994 633.471C308.994 631.455 310.232 630.08 312.34 630.08ZM313.027 653.5C310.277 653.5 308.123 652.812 308.123 651.254C308.123 651.162 308.123 651.025 308.169 650.933L309.819 649.329C310.369 649.421 310.873 649.512 311.423 649.558C314.311 649.925 317.152 650.062 317.152 651.712C317.152 652.858 315.594 653.5 313.027 653.5ZM335.891 624.901C331.858 624.901 328.1 626.367 325.35 629.484L329.841 633.242C331.675 631.18 333.599 630.309 335.616 630.309C338.183 630.309 339.695 631.638 339.695 633.7V634.205H333.737C331.445 634.205 329.612 634.525 328.145 635.259C326.083 636.313 324.891 638.238 324.891 640.896C324.891 645.342 328.42 648.504 333.324 648.504C335.616 648.504 338.137 647.679 339.741 645.388L340.199 648H345.882V633.7C345.882 628.292 342.078 624.901 335.891 624.901ZM334.333 643.371C332.224 643.371 331.079 642.363 331.079 640.988C331.079 640.3 331.354 639.75 331.904 639.384C332.454 638.971 333.324 638.788 334.608 638.788H339.695C339.649 641.4 337.22 643.371 334.333 643.371ZM360.155 648.504C364.738 648.504 368.267 645.892 369.78 641.675L364.188 639.475C363.684 641.675 362.08 643.05 360.063 643.05C356.534 643.05 355.343 639.979 355.343 636.771C355.343 633.517 356.58 630.309 360.109 630.309C362.126 630.309 363.684 631.775 364.142 634.021L370.009 631.684C368.313 627.101 364.738 624.901 360.109 624.901C352.547 624.901 348.972 630.813 348.972 636.771C348.972 642.638 352.501 648.504 360.155 648.504ZM373.929 657.35H380.667L393.637 625.405H386.808L381.354 640.209L376.267 625.405H369.392L378.054 647.313L373.929 657.35ZM178.503 696.634C178.503 690.034 174.974 684.901 167.916 684.901C160.125 684.901 157.008 691.042 157.008 696.817C157.008 702.729 160.217 708.504 168.283 708.504C172.179 708.504 175.295 707.038 177.724 704.333L173.416 700.529C171.995 702.225 170.208 702.867 168.329 702.867C165.075 702.867 163.471 701.171 163.196 698.788H178.366C178.458 697.963 178.503 697.321 178.503 696.634ZM163.15 694.067C163.425 692.234 164.708 690.08 167.87 690.08C170.437 690.08 172.499 691.592 172.591 694.067H163.15ZM179.36 708H186.968L191.093 700.85L195.218 708H202.826L195.172 696.588L202.826 685.405H195.218L191.093 692.371L186.968 685.405H179.36L186.968 696.588L179.36 708ZM218.761 690.263V685.405H213.078V676.972L206.89 681.555V685.405H203.224V690.263H206.89V701.217C206.89 706.533 210.373 708.504 214.407 708.504C215.919 708.504 217.34 708.275 218.761 707.771V702.867C217.752 703.188 216.79 703.371 215.919 703.371C213.628 703.371 213.078 702.042 213.078 700.713V690.263H218.761ZM234.947 684.901C232.472 684.901 230.089 686.413 229.08 688.98V685.405H222.801V708H229.035V697.046C229.035 692.921 230.639 691.042 233.526 691.042C234.626 691.042 235.68 691.363 236.368 691.821L239.347 686.276C237.834 685.313 236.459 684.901 234.947 684.901ZM250.672 684.901C246.639 684.901 242.881 686.367 240.131 689.484L244.622 693.242C246.456 691.18 248.381 690.309 250.397 690.309C252.964 690.309 254.476 691.638 254.476 693.7V694.205H248.518C246.227 694.205 244.393 694.525 242.927 695.259C240.864 696.313 239.673 698.238 239.673 700.896C239.673 705.342 243.202 708.504 248.106 708.504C250.397 708.504 252.918 707.679 254.522 705.388L254.98 708H260.664V693.7C260.664 688.292 256.86 684.901 250.672 684.901ZM249.114 703.371C247.006 703.371 245.86 702.363 245.86 700.988C245.86 700.3 246.135 699.75 246.685 699.384C247.235 698.971 248.106 698.788 249.389 698.788H254.476C254.431 701.4 252.001 703.371 249.114 703.371ZM265.722 696.863H279.242V692.234H265.722V696.863ZM297.483 684.901C295.008 684.901 292.625 685.909 291.204 687.421V676.055H284.971V708H291.204V706.075C292.808 707.817 295.237 708.504 297.391 708.504C303.395 708.504 306.787 703.463 306.787 696.68C306.787 689.209 302.708 684.901 297.483 684.901ZM295.833 702.683C292.075 702.683 290.608 700.071 290.608 696.725C290.608 693.471 291.983 690.584 295.742 690.584C299.133 690.584 300.6 692.875 300.6 696.725C300.6 700.621 299.133 702.683 295.833 702.683ZM320.505 708.504C327.609 708.504 331.963 702.958 331.963 696.68C331.963 690.355 327.655 684.901 320.505 684.901C313.31 684.901 309.047 690.355 309.047 696.68C309.047 702.958 313.355 708.504 320.505 708.504ZM320.505 703.05C316.518 703.05 315.234 699.888 315.234 696.68C315.234 693.38 316.564 690.309 320.505 690.309C324.492 690.309 325.776 693.38 325.776 696.68C325.776 699.934 324.447 703.05 320.505 703.05ZM341.088 708.504C342.142 708.504 343.425 708.275 344.754 707.771V702.867C344.158 703.004 343.608 703.096 343.15 703.096C342.233 703.096 341.683 702.821 341.683 701.767V676.055H335.496V702.409C335.496 706.625 337.925 708.504 341.088 708.504ZM362.368 676.055V687.467C360.993 685.909 358.564 684.901 356.135 684.901C350.819 684.901 346.74 689.209 346.74 696.68C346.74 703.463 350.131 708.504 356.135 708.504C358.335 708.504 360.81 707.817 362.368 705.983V708H368.556V676.055H362.368ZM357.739 702.683C354.623 702.683 352.973 700.621 352.973 696.725C352.973 692.875 354.623 690.584 357.785 690.584C361.543 690.584 362.918 693.471 362.918 696.725C362.918 700.071 361.497 702.683 357.739 702.683ZM171.583 744.901C169.245 744.901 166.908 745.817 165.533 747.192V736.055H158.612V768H165.533V766.304C167.091 767.908 169.475 768.504 171.445 768.504C177.312 768.504 180.658 763.463 180.658 756.68C180.658 749.117 176.533 744.901 171.583 744.901ZM169.612 762.042C166.083 762.042 164.891 759.659 164.891 756.771C164.891 753.975 165.946 751.226 169.52 751.226C172.637 751.226 173.783 753.242 173.783 756.771C173.783 760.346 172.545 762.042 169.612 762.042ZM189.716 768.504C190.724 768.504 192.099 768.321 193.52 767.771V762.363C192.97 762.5 192.42 762.546 192.053 762.546C191.182 762.546 190.724 762.409 190.724 761.354V736.055H183.804V762.271C183.804 766.625 186.416 768.504 189.716 768.504ZM205.868 744.901C201.926 744.901 197.755 746.184 194.914 749.163L199.909 753.334C201.926 751.409 203.668 750.905 205.363 750.905C207.884 750.905 209.259 752.05 209.259 753.655V754.021H203.026C201.009 754.021 199.222 754.388 197.801 755.167C195.876 756.221 194.685 758.1 194.685 760.713C194.685 765.342 198.351 768.504 203.439 768.504C205.088 768.504 207.518 768.183 209.351 765.754L209.809 768H216.134V753.655C216.134 748.292 212.284 744.901 205.868 744.901ZM204.539 762.958C202.568 762.958 201.605 761.996 201.605 760.85C201.605 760.3 201.834 759.842 202.293 759.521C202.705 759.246 203.301 759.109 204.034 759.109H209.259C209.122 761.354 207.013 762.958 204.539 762.958ZM229.952 768.504C234.672 768.504 238.247 765.846 239.76 761.584L233.526 759.154C233.114 761.171 231.647 762.5 229.86 762.5C226.606 762.5 225.643 759.659 225.643 756.771C225.643 753.838 226.698 750.905 229.906 750.905C231.739 750.905 233.16 752.28 233.481 754.388L239.989 751.775C238.293 747.146 234.672 744.901 229.906 744.901C222.206 744.901 218.539 750.813 218.539 756.771C218.539 762.546 222.069 768.504 229.952 768.504ZM242.712 768H249.633V761.446L252.062 758.559L257.928 768H266.132L257.103 753.93L265.353 745.405H256.141L249.633 752.875V736.055H242.712V768Z" fill="#FF0000"/>
</svg>
